<svg width="500" height="272" viewBox="0 0 500 272" fill="none" xmlns="http://www.w3.org/2000/svg">
    <g clip-path="url(#clip0_2081_11040)">
        <rect width="500" height="272" rx="32" fill="#FFF62D" />
        <path
            d="M71.9419 194L81.2299 168.8H85.4059L94.6219 194H90.5899L88.4299 187.844H78.1339L75.9739 194H71.9419ZM79.2139 184.82H87.3499L83.2819 173.336L79.2139 184.82ZM96.6361 194V168.8H100.452V194H96.6361ZM164 194.432C162.248 194.432 160.688 194.048 159.32 193.28C157.976 192.488 156.92 191.396 156.152 190.004C155.384 188.612 155 186.992 155 185.144C155 183.272 155.372 181.628 156.116 180.212C156.884 178.796 157.94 177.692 159.284 176.9C160.652 176.108 162.236 175.712 164.036 175.712C165.788 175.712 167.312 176.108 168.608 176.9C169.904 177.668 170.912 178.7 171.632 179.996C172.352 181.292 172.712 182.72 172.712 184.28C172.712 184.52 172.7 184.784 172.676 185.072C172.676 185.336 172.664 185.636 172.64 185.972H158.744C158.864 187.7 159.428 189.02 160.436 189.932C161.468 190.82 162.656 191.264 164 191.264C165.08 191.264 165.98 191.024 166.7 190.544C167.444 190.04 167.996 189.368 168.356 188.528H172.172C171.692 190.208 170.732 191.612 169.292 192.74C167.876 193.868 166.112 194.432 164 194.432ZM164 178.844C162.728 178.844 161.6 179.228 160.616 179.996C159.632 180.74 159.032 181.868 158.816 183.38H168.896C168.824 181.988 168.332 180.884 167.42 180.068C166.508 179.252 165.368 178.844 164 178.844ZM175.172 194V176.144H178.556L178.844 179.276C179.396 178.172 180.2 177.308 181.256 176.684C182.336 176.036 183.572 175.712 184.964 175.712C187.124 175.712 188.816 176.384 190.04 177.728C191.288 179.072 191.912 181.076 191.912 183.74V194H188.132V184.136C188.132 180.68 186.716 178.952 183.884 178.952C182.468 178.952 181.292 179.456 180.356 180.464C179.444 181.472 178.988 182.912 178.988 184.784V194H175.172ZM200.954 194.432C199.442 194.432 198.194 194.18 197.21 193.676C196.226 193.172 195.494 192.512 195.014 191.696C194.534 190.856 194.294 189.944 194.294 188.96C194.294 187.232 194.966 185.864 196.31 184.856C197.654 183.848 199.574 183.344 202.07 183.344H206.75V183.02C206.75 181.628 206.366 180.584 205.598 179.888C204.854 179.192 203.882 178.844 202.682 178.844C201.626 178.844 200.702 179.108 199.91 179.636C199.142 180.14 198.674 180.896 198.506 181.904H194.69C194.81 180.608 195.242 179.504 195.986 178.592C196.754 177.656 197.714 176.948 198.866 176.468C200.042 175.964 201.326 175.712 202.718 175.712C205.214 175.712 207.146 176.372 208.514 177.692C209.882 178.988 210.566 180.764 210.566 183.02V194H207.254L206.93 190.94C206.426 191.924 205.694 192.752 204.734 193.424C203.774 194.096 202.514 194.432 200.954 194.432ZM201.71 191.336C202.742 191.336 203.606 191.096 204.302 190.616C205.022 190.112 205.574 189.452 205.958 188.636C206.366 187.82 206.618 186.92 206.714 185.936H202.466C200.954 185.936 199.874 186.2 199.226 186.728C198.602 187.256 198.29 187.916 198.29 188.708C198.29 189.524 198.59 190.172 199.19 190.652C199.814 191.108 200.654 191.336 201.71 191.336ZM223.56 194.432C222.168 194.432 220.932 194.156 219.852 193.604C218.796 193.052 217.956 192.272 217.332 191.264L216.936 194H213.516V168.08H217.332V178.916C217.908 178.076 218.7 177.332 219.708 176.684C220.716 176.036 222.012 175.712 223.596 175.712C225.324 175.712 226.848 176.12 228.168 176.936C229.488 177.752 230.52 178.868 231.264 180.284C232.032 181.7 232.416 183.308 232.416 185.108C232.416 186.908 232.032 188.516 231.264 189.932C230.52 191.324 229.488 192.428 228.168 193.244C226.848 194.036 225.312 194.432 223.56 194.432ZM222.912 191.12C224.544 191.12 225.888 190.568 226.944 189.464C228 188.336 228.528 186.872 228.528 185.072C228.528 183.896 228.288 182.852 227.808 181.94C227.328 181.028 226.668 180.32 225.828 179.816C224.988 179.288 224.016 179.024 222.912 179.024C221.28 179.024 219.936 179.588 218.88 180.716C217.848 181.844 217.332 183.296 217.332 185.072C217.332 186.872 217.848 188.336 218.88 189.464C219.936 190.568 221.28 191.12 222.912 191.12ZM235.043 194V168.08H238.859V194H235.043ZM250.543 194.432C248.791 194.432 247.231 194.048 245.863 193.28C244.519 192.488 243.463 191.396 242.695 190.004C241.927 188.612 241.543 186.992 241.543 185.144C241.543 183.272 241.915 181.628 242.659 180.212C243.427 178.796 244.483 177.692 245.827 176.9C247.195 176.108 248.779 175.712 250.579 175.712C252.331 175.712 253.855 176.108 255.151 176.9C256.447 177.668 257.455 178.7 258.175 179.996C258.895 181.292 259.255 182.72 259.255 184.28C259.255 184.52 259.243 184.784 259.219 185.072C259.219 185.336 259.207 185.636 259.183 185.972H245.287C245.407 187.7 245.971 189.02 246.979 189.932C248.011 190.82 249.199 191.264 250.543 191.264C251.623 191.264 252.523 191.024 253.243 190.544C253.987 190.04 254.539 189.368 254.899 188.528H258.715C258.235 190.208 257.275 191.612 255.835 192.74C254.419 193.868 252.655 194.432 250.543 194.432ZM250.543 178.844C249.271 178.844 248.143 179.228 247.159 179.996C246.175 180.74 245.575 181.868 245.359 183.38H255.439C255.367 181.988 254.875 180.884 253.963 180.068C253.051 179.252 251.911 178.844 250.543 178.844ZM269.851 194.432C268.123 194.432 266.599 194.024 265.279 193.208C263.959 192.392 262.927 191.276 262.183 189.86C261.439 188.444 261.067 186.836 261.067 185.036C261.067 183.236 261.439 181.64 262.183 180.248C262.927 178.832 263.959 177.728 265.279 176.936C266.623 176.12 268.159 175.712 269.887 175.712C271.303 175.712 272.539 175.988 273.595 176.54C274.675 177.092 275.515 177.872 276.115 178.88V168.08H279.931V194H276.511L276.115 191.228C275.539 192.068 274.747 192.812 273.739 193.46C272.731 194.108 271.435 194.432 269.851 194.432ZM270.535 191.12C272.167 191.12 273.499 190.556 274.531 189.428C275.587 188.3 276.115 186.848 276.115 185.072C276.115 183.272 275.587 181.82 274.531 180.716C273.499 179.588 272.167 179.024 270.535 179.024C268.903 179.024 267.559 179.588 266.503 180.716C265.447 181.82 264.919 183.272 264.919 185.072C264.919 186.248 265.159 187.292 265.639 188.204C266.119 189.116 266.779 189.836 267.619 190.364C268.483 190.868 269.455 191.12 270.535 191.12ZM300.856 194.432C299.464 194.432 298.228 194.156 297.148 193.604C296.092 193.052 295.252 192.272 294.628 191.264L294.232 194H290.812V168.08H294.628V178.916C295.204 178.076 295.996 177.332 297.004 176.684C298.012 176.036 299.308 175.712 300.892 175.712C302.62 175.712 304.144 176.12 305.464 176.936C306.784 177.752 307.816 178.868 308.56 180.284C309.328 181.7 309.712 183.308 309.712 185.108C309.712 186.908 309.328 188.516 308.56 189.932C307.816 191.324 306.784 192.428 305.464 193.244C304.144 194.036 302.608 194.432 300.856 194.432ZM300.208 191.12C301.84 191.12 303.184 190.568 304.24 189.464C305.296 188.336 305.824 186.872 305.824 185.072C305.824 183.896 305.584 182.852 305.104 181.94C304.624 181.028 303.964 180.32 303.124 179.816C302.284 179.288 301.312 179.024 300.208 179.024C298.576 179.024 297.232 179.588 296.176 180.716C295.144 181.844 294.628 183.296 294.628 185.072C294.628 186.872 295.144 188.336 296.176 189.464C297.232 190.568 298.576 191.12 300.208 191.12ZM312.34 194V176.144H315.76L316.084 179.528C316.708 178.352 317.572 177.428 318.676 176.756C319.804 176.06 321.16 175.712 322.744 175.712V179.708H321.7C320.644 179.708 319.696 179.888 318.856 180.248C318.04 180.584 317.38 181.172 316.876 182.012C316.396 182.828 316.156 183.968 316.156 185.432V194H312.34ZM330.564 194.432C329.052 194.432 327.804 194.18 326.82 193.676C325.836 193.172 325.104 192.512 324.624 191.696C324.144 190.856 323.904 189.944 323.904 188.96C323.904 187.232 324.576 185.864 325.92 184.856C327.264 183.848 329.184 183.344 331.68 183.344H336.36V183.02C336.36 181.628 335.976 180.584 335.208 179.888C334.464 179.192 333.492 178.844 332.292 178.844C331.236 178.844 330.312 179.108 329.52 179.636C328.752 180.14 328.284 180.896 328.116 181.904H324.3C324.42 180.608 324.852 179.504 325.596 178.592C326.364 177.656 327.324 176.948 328.476 176.468C329.652 175.964 330.936 175.712 332.328 175.712C334.824 175.712 336.756 176.372 338.124 177.692C339.492 178.988 340.176 180.764 340.176 183.02V194H336.864L336.54 190.94C336.036 191.924 335.304 192.752 334.344 193.424C333.384 194.096 332.124 194.432 330.564 194.432ZM331.32 191.336C332.352 191.336 333.216 191.096 333.912 190.616C334.632 190.112 335.184 189.452 335.568 188.636C335.976 187.82 336.228 186.92 336.324 185.936H332.076C330.564 185.936 329.484 186.2 328.836 186.728C328.212 187.256 327.9 187.916 327.9 188.708C327.9 189.524 328.2 190.172 328.8 190.652C329.424 191.108 330.264 191.336 331.32 191.336ZM343.125 194V176.144H346.509L346.797 179.276C347.349 178.172 348.153 177.308 349.209 176.684C350.289 176.036 351.525 175.712 352.917 175.712C355.077 175.712 356.769 176.384 357.993 177.728C359.241 179.072 359.865 181.076 359.865 183.74V194H356.085V184.136C356.085 180.68 354.669 178.952 351.837 178.952C350.421 178.952 349.245 179.456 348.309 180.464C347.397 181.472 346.941 182.912 346.941 184.784V194H343.125ZM370.995 194.432C369.267 194.432 367.743 194.024 366.423 193.208C365.103 192.392 364.071 191.276 363.327 189.86C362.583 188.444 362.211 186.836 362.211 185.036C362.211 183.236 362.583 181.64 363.327 180.248C364.071 178.832 365.103 177.728 366.423 176.936C367.767 176.12 369.303 175.712 371.031 175.712C372.447 175.712 373.683 175.988 374.739 176.54C375.819 177.092 376.659 177.872 377.259 178.88V168.08H381.075V194H377.655L377.259 191.228C376.683 192.068 375.891 192.812 374.883 193.46C373.875 194.108 372.579 194.432 370.995 194.432ZM371.679 191.12C373.311 191.12 374.643 190.556 375.675 189.428C376.731 188.3 377.259 186.848 377.259 185.072C377.259 183.272 376.731 181.82 375.675 180.716C374.643 179.588 373.311 179.024 371.679 179.024C370.047 179.024 368.703 179.588 367.647 180.716C366.591 181.82 366.063 183.272 366.063 185.072C366.063 186.248 366.303 187.292 366.783 188.204C367.263 189.116 367.923 189.836 368.763 190.364C369.627 190.868 370.599 191.12 371.679 191.12ZM386.547 172.76C385.827 172.76 385.227 172.544 384.747 172.112C384.291 171.656 384.063 171.092 384.063 170.42C384.063 169.748 384.291 169.196 384.747 168.764C385.227 168.308 385.827 168.08 386.547 168.08C387.267 168.08 387.855 168.308 388.311 168.764C388.791 169.196 389.031 169.748 389.031 170.42C389.031 171.092 388.791 171.656 388.311 172.112C387.855 172.544 387.267 172.76 386.547 172.76ZM384.639 194V176.144H388.455V194H384.639ZM391.992 194V176.144H395.376L395.664 179.276C396.216 178.172 397.02 177.308 398.076 176.684C399.156 176.036 400.392 175.712 401.784 175.712C403.944 175.712 405.636 176.384 406.86 177.728C408.108 179.072 408.732 181.076 408.732 183.74V194H404.952V184.136C404.952 180.68 403.536 178.952 400.704 178.952C399.288 178.952 398.112 179.456 397.176 180.464C396.264 181.472 395.808 182.912 395.808 184.784V194H391.992ZM419.034 188.528C418.098 188.528 417.234 188.42 416.442 188.204L414.894 189.716C415.158 189.884 415.482 190.028 415.866 190.148C416.25 190.268 416.79 190.376 417.486 190.472C418.182 190.568 419.13 190.664 420.33 190.76C422.706 190.976 424.422 191.552 425.478 192.488C426.534 193.4 427.062 194.624 427.062 196.16C427.062 197.216 426.774 198.212 426.198 199.148C425.646 200.108 424.77 200.876 423.57 201.452C422.394 202.052 420.882 202.352 419.034 202.352C416.538 202.352 414.51 201.872 412.95 200.912C411.414 199.976 410.646 198.548 410.646 196.628C410.646 195.884 410.838 195.14 411.222 194.396C411.63 193.676 412.266 192.992 413.13 192.344C412.626 192.128 412.182 191.9 411.798 191.66C411.438 191.396 411.114 191.132 410.826 190.868V190.004L413.922 186.836C412.53 185.636 411.834 184.064 411.834 182.12C411.834 180.944 412.11 179.876 412.662 178.916C413.238 177.932 414.066 177.152 415.146 176.576C416.226 176 417.522 175.712 419.034 175.712C420.042 175.712 420.978 175.856 421.842 176.144H428.502V178.664L425.334 178.844C425.91 179.828 426.198 180.92 426.198 182.12C426.198 183.32 425.91 184.4 425.334 185.36C424.782 186.32 423.966 187.088 422.886 187.664C421.83 188.24 420.546 188.528 419.034 188.528ZM419.034 185.54C420.138 185.54 421.026 185.252 421.698 184.676C422.394 184.076 422.742 183.236 422.742 182.156C422.742 181.052 422.394 180.212 421.698 179.636C421.026 179.06 420.138 178.772 419.034 178.772C417.906 178.772 416.994 179.06 416.298 179.636C415.626 180.212 415.29 181.052 415.29 182.156C415.29 183.236 415.626 184.076 416.298 184.676C416.994 185.252 417.906 185.54 419.034 185.54ZM414.246 196.268C414.246 197.3 414.702 198.068 415.614 198.572C416.526 199.1 417.666 199.364 419.034 199.364C420.354 199.364 421.422 199.076 422.238 198.5C423.054 197.948 423.462 197.204 423.462 196.268C423.462 195.572 423.186 194.972 422.634 194.468C422.082 193.988 421.038 193.688 419.502 193.568C418.35 193.496 417.33 193.388 416.442 193.244C415.602 193.7 415.026 194.192 414.714 194.72C414.402 195.248 414.246 195.764 414.246 196.268ZM187.591 234V219.348H185.035V216.144H187.591V213.552C187.591 211.608 188.071 210.216 189.031 209.376C190.015 208.512 191.395 208.08 193.171 208.08H195.043V211.32H193.747C192.907 211.32 192.307 211.5 191.947 211.86C191.587 212.196 191.407 212.772 191.407 213.588V216.144H195.511V219.348H191.407V234H187.591ZM205.285 234.432C203.533 234.432 201.973 234.048 200.605 233.28C199.261 232.488 198.205 231.396 197.437 230.004C196.669 228.612 196.285 226.992 196.285 225.144C196.285 223.272 196.657 221.628 197.401 220.212C198.169 218.796 199.225 217.692 200.569 216.9C201.937 216.108 203.521 215.712 205.321 215.712C207.073 215.712 208.597 216.108 209.893 216.9C211.189 217.668 212.197 218.7 212.917 219.996C213.637 221.292 213.997 222.72 213.997 224.28C213.997 224.52 213.985 224.784 213.961 225.072C213.961 225.336 213.949 225.636 213.925 225.972H200.029C200.149 227.7 200.713 229.02 201.721 229.932C202.753 230.82 203.941 231.264 205.285 231.264C206.365 231.264 207.265 231.024 207.985 230.544C208.729 230.04 209.281 229.368 209.641 228.528H213.457C212.977 230.208 212.017 231.612 210.577 232.74C209.161 233.868 207.397 234.432 205.285 234.432ZM205.285 218.844C204.013 218.844 202.885 219.228 201.901 219.996C200.917 220.74 200.317 221.868 200.101 223.38H210.181C210.109 221.988 209.617 220.884 208.705 220.068C207.793 219.252 206.653 218.844 205.285 218.844ZM222.505 234.432C220.993 234.432 219.745 234.18 218.761 233.676C217.777 233.172 217.045 232.512 216.565 231.696C216.085 230.856 215.845 229.944 215.845 228.96C215.845 227.232 216.517 225.864 217.861 224.856C219.205 223.848 221.125 223.344 223.621 223.344H228.301V223.02C228.301 221.628 227.917 220.584 227.149 219.888C226.405 219.192 225.433 218.844 224.233 218.844C223.177 218.844 222.253 219.108 221.461 219.636C220.693 220.14 220.225 220.896 220.057 221.904H216.241C216.361 220.608 216.793 219.504 217.537 218.592C218.305 217.656 219.265 216.948 220.417 216.468C221.593 215.964 222.877 215.712 224.269 215.712C226.765 215.712 228.697 216.372 230.065 217.692C231.433 218.988 232.117 220.764 232.117 223.02V234H228.805L228.481 230.94C227.977 231.924 227.245 232.752 226.285 233.424C225.325 234.096 224.065 234.432 222.505 234.432ZM223.261 231.336C224.293 231.336 225.157 231.096 225.853 230.616C226.573 230.112 227.125 229.452 227.509 228.636C227.917 227.82 228.169 226.92 228.265 225.936H224.017C222.505 225.936 221.425 226.2 220.777 226.728C220.153 227.256 219.841 227.916 219.841 228.708C219.841 229.524 220.141 230.172 220.741 230.652C221.365 231.108 222.205 231.336 223.261 231.336ZM242.203 234C240.451 234 239.059 233.58 238.027 232.74C236.995 231.876 236.479 230.352 236.479 228.168V219.348H233.419V216.144H236.479L236.947 211.608H240.295V216.144H245.335V219.348H240.295V228.168C240.295 229.152 240.499 229.836 240.907 230.22C241.339 230.58 242.071 230.76 243.103 230.76H245.155V234H242.203ZM254.357 234.432C252.197 234.432 250.493 233.76 249.245 232.416C248.021 231.072 247.409 229.068 247.409 226.404V216.144H251.225V226.008C251.225 229.464 252.641 231.192 255.473 231.192C256.889 231.192 258.053 230.688 258.965 229.68C259.877 228.672 260.333 227.232 260.333 225.36V216.144H264.149V234H260.765L260.477 230.868C259.925 231.972 259.109 232.848 258.029 233.496C256.973 234.12 255.749 234.432 254.357 234.432ZM267.504 234V216.144H270.924L271.248 219.528C271.872 218.352 272.736 217.428 273.84 216.756C274.968 216.06 276.324 215.712 277.908 215.712V219.708H276.864C275.808 219.708 274.86 219.888 274.02 220.248C273.204 220.584 272.544 221.172 272.04 222.012C271.56 222.828 271.32 223.968 271.32 225.432V234H267.504ZM287.539 234.432C285.787 234.432 284.227 234.048 282.859 233.28C281.515 232.488 280.459 231.396 279.691 230.004C278.923 228.612 278.539 226.992 278.539 225.144C278.539 223.272 278.911 221.628 279.655 220.212C280.423 218.796 281.479 217.692 282.823 216.9C284.191 216.108 285.775 215.712 287.575 215.712C289.327 215.712 290.851 216.108 292.147 216.9C293.443 217.668 294.451 218.7 295.171 219.996C295.891 221.292 296.251 222.72 296.251 224.28C296.251 224.52 296.239 224.784 296.215 225.072C296.215 225.336 296.203 225.636 296.179 225.972H282.283C282.403 227.7 282.967 229.02 283.975 229.932C285.007 230.82 286.195 231.264 287.539 231.264C288.619 231.264 289.519 231.024 290.239 230.544C290.983 230.04 291.535 229.368 291.895 228.528H295.711C295.231 230.208 294.271 231.612 292.831 232.74C291.415 233.868 289.651 234.432 287.539 234.432ZM287.539 218.844C286.267 218.844 285.139 219.228 284.155 219.996C283.171 220.74 282.571 221.868 282.355 223.38H292.435C292.363 221.988 291.871 220.884 290.959 220.068C290.047 219.252 288.907 218.844 287.539 218.844ZM305.839 234.432C303.583 234.432 301.723 233.88 300.259 232.776C298.795 231.672 297.955 230.208 297.739 228.384H301.591C301.783 229.2 302.239 229.908 302.959 230.508C303.679 231.084 304.627 231.372 305.803 231.372C306.955 231.372 307.795 231.132 308.323 230.652C308.851 230.172 309.115 229.62 309.115 228.996C309.115 228.084 308.743 227.472 307.999 227.16C307.279 226.824 306.271 226.524 304.975 226.26C303.967 226.044 302.959 225.756 301.951 225.396C300.967 225.036 300.139 224.532 299.467 223.884C298.819 223.212 298.495 222.312 298.495 221.184C298.495 219.624 299.095 218.328 300.295 217.296C301.495 216.24 303.175 215.712 305.335 215.712C307.327 215.712 308.935 216.192 310.159 217.152C311.407 218.112 312.139 219.468 312.355 221.22H308.683C308.563 220.452 308.203 219.852 307.603 219.42C307.027 218.988 306.247 218.772 305.263 218.772C304.303 218.772 303.559 218.976 303.031 219.384C302.503 219.768 302.239 220.272 302.239 220.896C302.239 221.52 302.599 222.012 303.319 222.372C304.063 222.732 305.035 223.056 306.235 223.344C307.435 223.608 308.539 223.92 309.547 224.28C310.579 224.616 311.407 225.12 312.031 225.792C312.655 226.464 312.967 227.448 312.967 228.744C312.991 230.376 312.355 231.732 311.059 232.812C309.787 233.892 308.047 234.432 305.839 234.432Z"
            fill="black" />
        <path fill-rule="evenodd" clip-rule="evenodd"
            d="M60 81H440C450.493 81 459 89.5066 459 100V111.091H41V100C41 89.5066 49.5066 81 60 81ZM41 112.091V310C41 320.493 49.5066 329 60 329H140.089L140.089 112.091H41ZM141.089 112.091L141.089 329H171.582C164.102 326.106 158.797 318.843 158.797 310.341V293.438C158.797 282.392 167.751 273.438 178.797 273.438H232.338C243.384 273.438 252.338 282.392 252.338 293.438V310.341C252.338 318.843 247.033 326.106 239.553 329H274.479C266.998 326.106 261.693 318.843 261.693 310.341V293.438C261.693 282.392 270.648 273.438 281.693 273.438H422.228C433.274 273.438 442.228 282.392 442.228 293.438V310.341C442.228 318.843 436.923 326.106 429.443 329H440C450.493 329 459 320.493 459 310V112.091H141.089ZM141.089 330H175.1C176.298 330.224 177.534 330.341 178.797 330.341H232.338C233.601 330.341 234.837 330.224 236.035 330H277.997C279.195 330.224 280.43 330.341 281.693 330.341H422.228C423.491 330.341 424.726 330.224 425.924 330H440C451.046 330 460 321.046 460 310L460 112.091V111.091L460 100C460 88.9543 451.046 80 440 80H60C48.9543 80 40 88.9543 40 100V310C40 321.046 48.9543 330 60 330H140.089V330.341H141.089V330ZM278.092 329H425.83C434.601 327.317 441.228 319.603 441.228 310.341V293.438C441.228 282.945 432.721 274.438 422.228 274.438H281.693C271.2 274.438 262.693 282.945 262.693 293.438V310.341C262.693 319.603 269.321 327.317 278.092 329ZM251.338 310.341C251.338 319.603 244.711 327.317 235.94 329H175.195C166.424 327.317 159.797 319.603 159.797 310.341V293.438C159.797 282.945 168.303 274.438 178.797 274.438H232.338C242.832 274.438 251.338 282.945 251.338 293.438V310.341ZM66 96.5C66 98.433 64.433 100 62.5 100C60.567 100 59 98.433 59 96.5C59 94.567 60.567 93 62.5 93C64.433 93 66 94.567 66 96.5ZM67 96.5C67 98.9853 64.9853 101 62.5 101C60.0147 101 58 98.9853 58 96.5C58 94.0147 60.0147 92 62.5 92C64.9853 92 67 94.0147 67 96.5ZM79.0947 96.5C79.0947 98.433 77.5277 100 75.5947 100C73.6617 100 72.0947 98.433 72.0947 96.5C72.0947 94.567 73.6617 93 75.5947 93C77.5277 93 79.0947 94.567 79.0947 96.5ZM80.0947 96.5C80.0947 98.9853 78.08 101 75.5947 101C73.1094 101 71.0947 98.9853 71.0947 96.5C71.0947 94.0147 73.1094 92 75.5947 92C78.08 92 80.0947 94.0147 80.0947 96.5ZM88.6904 100C90.6234 100 92.1904 98.433 92.1904 96.5C92.1904 94.567 90.6234 93 88.6904 93C86.7574 93 85.1904 94.567 85.1904 96.5C85.1904 98.433 86.7574 100 88.6904 100ZM88.6904 101C91.1757 101 93.1904 98.9853 93.1904 96.5C93.1904 94.0147 91.1757 92 88.6904 92C86.2051 92 84.1904 94.0147 84.1904 96.5C84.1904 98.9853 86.2051 101 88.6904 101ZM179 131H421C431.493 131 440 139.507 440 150V240C440 250.493 431.493 259 421 259H184.563C191.386 256.219 196.213 249.53 196.213 241.722C196.213 231.418 187.809 223.065 177.505 223.065C169.52 223.065 162.676 228.081 160 235.134V150C160 139.507 168.507 131 179 131ZM421 260H181.264C180.049 260.248 178.792 260.378 177.505 260.378C167.201 260.378 158.797 252.025 158.797 241.722C158.797 240.786 158.866 239.866 159 238.967V150C159 138.954 167.954 130 179 130H421C432.046 130 441 138.954 441 150V240C441 251.046 432.046 260 421 260ZM195.213 241.722C195.213 250.218 189.171 257.317 181.16 259H179C168.507 259 160 250.493 160 240V239.043C161.298 230.565 168.661 224.065 177.505 224.065C187.26 224.065 195.213 231.974 195.213 241.722ZM315.5 149H181.5C179.567 149 178 150.567 178 152.5C178 154.433 179.567 156 181.5 156H315.5C317.433 156 319 154.433 319 152.5C319 150.567 317.433 149 315.5 149ZM181.5 148C179.015 148 177 150.015 177 152.5C177 154.985 179.015 157 181.5 157H315.5C317.985 157 320 154.985 320 152.5C320 150.015 317.985 148 315.5 148H181.5ZM54.5 123H125.5C127.433 123 129 124.567 129 126.5C129 128.433 127.433 130 125.5 130H54.5C52.567 130 51 128.433 51 126.5C51 124.567 52.567 123 54.5 123ZM50 126.5C50 124.015 52.0147 122 54.5 122H125.5C127.985 122 130 124.015 130 126.5C130 128.985 127.985 131 125.5 131H54.5C52.0147 131 50 128.985 50 126.5ZM361.5 168H181.5C179.567 168 178 169.567 178 171.5C178 173.433 179.567 175 181.5 175H361.5C363.433 175 365 173.433 365 171.5C365 169.567 363.433 168 361.5 168ZM181.5 167C179.015 167 177 169.015 177 171.5C177 173.985 179.015 176 181.5 176H361.5C363.985 176 366 173.985 366 171.5C366 169.015 363.985 167 361.5 167H181.5ZM108.5 93H437.5C439.433 93 441 94.567 441 96.5C441 98.433 439.433 100 437.5 100H108.5C106.567 100 105 98.433 105 96.5C105 94.567 106.567 93 108.5 93ZM104 96.5C104 94.0147 106.015 92 108.5 92H437.5C439.985 92 442 94.0147 442 96.5C442 98.9853 439.985 101 437.5 101H108.5C106.015 101 104 98.9853 104 96.5Z"
            fill="url(#paint0_linear_2081_11040)" fill-opacity="0.2" />
        <path d="M430 60V90.8457C430 123.253 404.266 149.804 371.874 150.816L366 151"
            stroke="url(#paint1_linear_2081_11040)" stroke-opacity="0.6" />
        <circle cx="364" cy="151" r="3" fill="#666313" />
        <path d="M96 50.5H175C208.137 50.5 235 77.3629 235 110.5V147.5" stroke="url(#paint2_linear_2081_11040)"
            stroke-opacity="0.6" />
        <rect x="62" y="30" width="40" height="40" rx="20" fill="#D9D11E" />
        <path
            d="M73.6582 44.9416V43.6833C73.6582 42.8333 74.3499 42.1416 75.1999 42.1416H85.9665C86.8165 42.1416 87.5082 42.8333 87.5082 43.6833V44.9416"
            stroke="black" stroke-width="1.5" stroke-linecap="round" stroke-linejoin="round" />
        <path d="M80.584 55.0833V42.7666" stroke="black" stroke-width="1.5" stroke-linecap="round"
            stroke-linejoin="round" />
        <path d="M77.75 55.083H82.4" stroke="black" stroke-width="1.5" stroke-linecap="round" stroke-linejoin="round" />
        <path d="M83.4004 48.6172H89.2421C89.8504 48.6172 90.3421 49.1089 90.3421 49.7172V50.3839" stroke="black"
            stroke-width="1.5" stroke-linecap="round" stroke-linejoin="round" />
        <path d="M85.4004 57.8586V49.0586" stroke="black" stroke-width="1.5" stroke-linecap="round"
            stroke-linejoin="round" />
        <path d="M83.6172 57.8584H87.1839" stroke="black" stroke-width="1.5" stroke-linecap="round"
            stroke-linejoin="round" />
        <rect x="109" y="162" width="40" height="40" rx="20" fill="#62C9F4" />
        <path fill-rule="evenodd" clip-rule="evenodd"
            d="M135.757 171.283C135.6 170.906 135.011 170.906 134.854 171.283C134.528 172.068 134.066 173.032 133.604 173.494C133.142 173.956 132.178 174.418 131.393 174.743C131.016 174.9 131.016 175.49 131.393 175.647C132.178 175.973 133.142 176.435 133.604 176.897C134.066 177.359 134.528 178.323 134.854 179.107C135.011 179.485 135.6 179.485 135.757 179.107C136.083 178.323 136.545 177.359 137.007 176.897C137.472 176.432 138.398 175.967 139.142 175.641C139.508 175.48 139.508 174.91 139.142 174.75C138.398 174.423 137.472 173.958 137.007 173.494C136.545 173.032 136.083 172.068 135.757 171.283ZM127.23 174.693C127.085 174.311 126.509 174.311 126.364 174.693C125.751 176.31 124.572 179.121 123.394 180.3C122.215 181.479 119.403 182.657 117.787 183.271C117.404 183.416 117.404 183.991 117.787 184.136C119.403 184.749 122.215 185.928 123.394 187.106C124.572 188.285 125.751 191.097 126.364 192.713C126.509 193.096 127.085 193.096 127.23 192.713C127.843 191.097 129.021 188.285 130.2 187.106C131.382 185.925 134.052 184.743 135.573 184.131C135.945 183.982 135.945 183.425 135.573 183.275C134.052 182.663 131.382 181.482 130.2 180.3C129.021 179.121 127.843 176.31 127.23 174.693Z"
            fill="black" />
        <path d="M276 92.5V92.5C276 68.4756 295.476 49 319.5 49H339" stroke="url(#paint3_linear_2081_11040)"
            stroke-opacity="0.6" />
        <circle cx="276" cy="92" r="3" fill="#666313" />
        <path
            d="M238 149C238 150.657 236.657 152 235 152C233.343 152 232 150.657 232 149C232 147.343 233.343 146 235 146C236.657 146 238 147.343 238 149Z"
            fill="#666313" />
        <rect x="329" y="30" width="40" height="40" rx="20" fill="#D9D11E" />
        <path
            d="M357.334 50.0003C357.334 45.4003 353.6 41.667 349 41.667C344.4 41.667 340.667 45.4003 340.667 50.0003C340.667 54.6003 344.4 58.3337 349 58.3337"
            stroke="black" stroke-width="1.5" stroke-linecap="round" stroke-linejoin="round" />
        <path d="M345.667 42.5H346.5C344.875 47.3667 344.875 52.6333 346.5 57.5H345.667" stroke="black"
            stroke-width="1.5" stroke-linecap="round" stroke-linejoin="round" />
        <path d="M351.5 42.5C352.308 44.9333 352.717 47.4667 352.717 50" stroke="black" stroke-width="1.5"
            stroke-linecap="round" stroke-linejoin="round" />
        <path d="M341.5 53.3333V52.5C343.933 53.3083 346.467 53.7167 349 53.7167" stroke="black" stroke-width="1.5"
            stroke-linecap="round" stroke-linejoin="round" />
        <path d="M341.5 47.5C346.367 45.875 351.633 45.875 356.5 47.5" stroke="black" stroke-width="1.5"
            stroke-linecap="round" stroke-linejoin="round" />
        <path fill-rule="evenodd" clip-rule="evenodd"
            d="M354.167 57.8334C352.694 57.8334 351.5 56.6394 351.5 55.1667C351.5 53.6939 352.694 52.5 354.167 52.5C355.639 52.5 356.833 53.6939 356.833 55.1667C356.833 56.6394 355.639 57.8334 354.167 57.8334Z"
            stroke="black" stroke-width="1.5" stroke-linecap="round" stroke-linejoin="round" />
        <path d="M357.333 58.3333L356.5 57.5" stroke="black" stroke-width="1.5" stroke-linecap="round"
            stroke-linejoin="round" />
        <rect x="410" y="30" width="40" height="40" rx="20" fill="black" />
        <rect x="420" y="40" width="8.88889" height="8.88889" rx="2" fill="#6FDDAF" />
        <rect x="431.111" y="51.1113" width="8.88889" height="8.88889" rx="2" fill="#FFF400" />
        <rect x="420" y="51.1113" width="8.88889" height="8.88889" rx="2" fill="#DE4C66" />
        <rect x="431.111" y="40" width="8.88889" height="8.88889" rx="2" fill="#4F9BF6" />
    </g>
    <defs>
        <linearGradient id="paint0_linear_2081_11040" x1="250" y1="113" x2="250" y2="214.5"
            gradientUnits="userSpaceOnUse">
            <stop />
            <stop offset="1" stop-color="white" stop-opacity="0" />
        </linearGradient>
        <linearGradient id="paint1_linear_2081_11040" x1="455" y1="16" x2="466.158" y2="142.614"
            gradientUnits="userSpaceOnUse">
            <stop stop-opacity="0" />
            <stop offset="1" />
        </linearGradient>
        <linearGradient id="paint2_linear_2081_11040" x1="79" y1="20" x2="250.287" y2="135.777"
            gradientUnits="userSpaceOnUse">
            <stop stop-opacity="0" />
            <stop offset="1" />
        </linearGradient>
        <linearGradient id="paint3_linear_2081_11040" x1="349" y1="19" x2="268" y2="122" gradientUnits="userSpaceOnUse">
            <stop stop-opacity="0" />
            <stop offset="1" />
        </linearGradient>
        <clipPath id="clip0_2081_11040">
            <rect width="500" height="272" rx="32" fill="white" />
        </clipPath>
    </defs>
</svg>