<svg width="40" height="40" viewBox="0 0 40 40" fill="none" xmlns="http://www.w3.org/2000/svg">
    <rect width="40" height="40" rx="20" fill="#A9C0D1"/>
    <path fill-rule="evenodd" clip-rule="evenodd" d="M13.375 20C13.375 19.4477 13.8227 19 14.375 19H20.625C21.1773 19 21.625 19.4477 21.625 20C21.625 20.5522 21.1773 21 20.625 21H14.375C13.8227 21 13.375 20.5522 13.375 20Z" fill="black"/>
    <path fill-rule="evenodd" clip-rule="evenodd" d="M21.2404 14.1432C20.7817 14.0857 20.3161 14.1599 19.8979 14.3571C19.4798 14.5542 19.1263 14.8663 18.8788 15.2567C18.6313 15.6472 18.4999 16.1 18.5 16.5623V23.4375C18.5 24.0761 18.3398 24.6981 18.0416 25.25H24.375C24.9273 25.25 25.375 25.6977 25.375 26.25C25.375 26.8022 24.9273 27.25 24.375 27.25H14.6875C14.1352 27.25 13.6875 26.8022 13.6875 26.25C13.6875 25.6977 14.1352 25.25 14.6875 25.25C15.1682 25.25 15.6292 25.059 15.9691 24.7191C16.309 24.3792 16.5 23.9182 16.5 23.4375V16.5627C16.4999 15.7211 16.739 14.8967 17.1896 14.1859C17.6402 13.4751 18.2837 12.907 19.0449 12.5481C19.8062 12.1891 20.6538 12.0541 21.4889 12.1587C22.324 12.2632 23.1121 12.6032 23.7614 13.1387C24.1874 13.4902 24.2478 14.1205 23.8964 14.5465C23.5449 14.9725 22.9147 15.033 22.4886 14.6815C22.132 14.3873 21.6991 14.2006 21.2404 14.1432Z" fill="black"/>
    </svg>
    