<svg width="16" height="16" viewBox="0 0 16 16" fill="none" xmlns="http://www.w3.org/2000/svg">
    <g clip-path="url(#clip0_2253_1708)">
    <mask id="mask0_2253_1708" style="mask-type:luminance" maskUnits="userSpaceOnUse" x="-4" y="-4" width="24" height="24">
    <path d="M-3.52148 -3.53995H19.5356V19.5171H-3.52148V-3.53995Z" fill="white"/>
    </mask>
    <g mask="url(#mask0_2253_1708)">
    <path d="M8.00076 15.9697C12.4022 15.9697 15.9702 12.4017 15.9702 8.00022C15.9702 3.59879 12.4022 0.0307302 8.00076 0.0307302C3.59931 0.0307302 0.03125 3.59879 0.03125 8.00022C0.03125 12.4017 3.59931 15.9697 8.00076 15.9697Z" fill="#1AB4D7"/>
    <path d="M3.84688 7.97736L5.20694 6.61394C5.25203 6.56798 5.27719 6.50714 5.27719 6.44261C5.27719 6.30812 5.16787 6.19891 5.03339 6.19891C4.96788 6.19891 4.90647 6.22459 4.86016 6.27147C4.86002 6.27174 3.50132 7.62966 3.50132 7.62966L2.13641 6.26943C2.09029 6.22396 2.02917 6.19891 1.96437 6.19891C1.83005 6.19891 1.7207 6.30807 1.7207 6.44242C1.7207 6.50795 1.74687 6.56944 1.79383 6.61578L3.1537 7.97546L1.79453 9.33718C1.74676 9.38422 1.7207 9.44584 1.7207 9.51168C1.7207 9.64613 1.83005 9.75521 1.96437 9.75521C2.02928 9.75521 2.09045 9.73002 2.13641 9.68404L3.4992 8.32308L4.85682 9.67907C4.90498 9.72885 4.96709 9.75537 5.03339 9.75537C5.16773 9.75537 5.27705 9.64613 5.27705 9.51168C5.27705 9.44679 5.25192 9.38584 5.20618 9.33989L3.84688 7.97736Z" fill="white"/>
    <path d="M11.9316 7.97662C11.9316 8.2208 12.1302 8.41943 12.3747 8.41943C12.6186 8.41943 12.8172 8.2208 12.8172 7.97662C12.8172 7.73238 12.6186 7.53378 12.3747 7.53378C12.1302 7.53378 11.9316 7.73238 11.9316 7.97662Z" fill="white"/>
    <path d="M11.0924 7.97704C11.0924 7.26992 11.6676 6.69458 12.3748 6.69458C13.0816 6.69458 13.657 7.26992 13.657 7.97704C13.657 8.68399 13.0816 9.25909 12.3748 9.25909C11.6676 9.25909 11.0924 8.68399 11.0924 7.97704ZM10.5879 7.97704C10.5879 8.96217 11.3895 9.76367 12.3748 9.76367C13.3601 9.76367 14.1621 8.96217 14.1621 7.97704C14.1621 6.99177 13.3601 6.19005 12.3748 6.19005C11.3895 6.19005 10.5879 6.99177 10.5879 7.97704Z" fill="white"/>
    <path d="M10.4613 6.22043L10.3863 6.22021C10.1612 6.22021 9.94415 6.29119 9.76284 6.43091C9.73895 6.32159 9.64124 6.23933 9.52484 6.23933C9.39087 6.23933 9.28353 6.34667 9.2832 6.48091C9.2832 6.48139 9.28402 9.49049 9.28402 9.49049C9.28437 9.62448 9.39366 9.7334 9.52771 9.7334C9.66173 9.7334 9.771 9.62448 9.77135 9.49019C9.77135 9.4896 9.77146 7.63968 9.77146 7.63968C9.77146 7.0229 9.82786 6.77381 10.3562 6.70779C10.405 6.70172 10.4581 6.70267 10.4584 6.70267C10.6029 6.6977 10.7057 6.59836 10.7057 6.4641C10.7057 6.32975 10.596 6.22043 10.4613 6.22043Z" fill="white"/>
    <path d="M5.78074 7.68301C5.78074 7.67634 5.78126 7.6694 5.78159 7.66254C5.92306 7.10328 6.42957 6.68942 7.03279 6.68942C7.6433 6.68942 8.15444 7.11344 8.28868 7.68301H5.78074ZM8.7877 7.637C8.68269 7.13983 8.4105 6.73144 7.99602 6.46918C7.39014 6.08452 6.59008 6.1058 6.00486 6.52197C5.52751 6.86156 5.25195 7.41709 5.25195 7.98934C5.25195 8.13283 5.26925 8.27766 5.30526 8.42023C5.48551 9.1293 6.09507 9.66606 6.82182 9.75502C7.03748 9.78113 7.24739 9.76863 7.46476 9.71234C7.65154 9.6669 7.83228 9.59114 7.99881 9.48443C8.17166 9.37332 8.31606 9.22679 8.45591 9.0514C8.45873 9.04817 8.46158 9.04532 8.4644 9.04194C8.56146 8.92155 8.54346 8.75036 8.4368 8.66864C8.34683 8.59969 8.19581 8.57174 8.07698 8.72392C8.05143 8.76031 8.02294 8.79775 7.99157 8.8352C7.89708 8.93961 7.77984 9.04077 7.63937 9.11924C7.46061 9.21473 7.2569 9.26931 7.04035 9.27053C6.33155 9.26264 5.95226 8.76787 5.81735 8.41472C5.79379 8.34878 5.77562 8.28038 5.76296 8.20994C5.7613 8.19676 5.76008 8.18404 5.7596 8.17233C5.90614 8.17233 8.30316 8.17192 8.30316 8.17192C8.65186 8.1646 8.83954 7.91847 8.7877 7.637Z" fill="white"/>
    </g>
    </g>
    <defs>
    <clipPath id="clip0_2253_1708">
    <rect width="16" height="16" fill="white"/>
    </clipPath>
    </defs>
    </svg>
    