<?xml version="1.0" encoding="iso-8859-1"?>
<!-- Uploaded to: SVG Repo, www.svgrepo.com, Generator: SVG Repo Mixer Tools -->
<svg height="800px" width="800px" version="1.1" id="Layer_1" xmlns="http://www.w3.org/2000/svg" xmlns:xlink="http://www.w3.org/1999/xlink" 
	 viewBox="0 0 512 512" xml:space="preserve">
<path style="fill:#28AC87;" d="M475.864,321.018l-8.626-60.379c-0.662-4.633-4.897-7.894-9.545-7.347
	c-0.9,0.106-90.325,9.84-122.886-52.567c-16.642-31.896-12.297-75.374,2.011-94.445c3.39-4.518,8.174-8.774,14.15-8.737
	c5.71,0.037,10.503,3.469,13.47,8.156c13.539,21.378,4.328,74.88-0.362,93.688c-1.156,4.622,1.654,9.305,6.275,10.461l69.004,17.251
	c4.621,1.154,9.305-1.655,10.46-6.276c0.43-1.721,10.517-42.66,9.148-89.022c-1.871-63.47-24.696-105.936-66.009-122.807
	C354.761-6.602,317.327-1.803,287.548,22.509c-40.152,32.78-61.521,97.838-50.809,154.694c4.18,22.188,22.668,95.615,88.233,135.397
	c-26.683,50.976-56.818,86.519-72.544,101.172c-32.547-36.244-59.15-76.904-79.144-120.973
	c-28.558-62.948-43.205-133.263-42.358-203.344c0.058-4.736-3.888-8.73-8.624-8.73h-77.63c-4.86,0-8.855,4.197-8.615,9.054
	c7.069,142.097,59.006,249.195,89.335,300.388C168.568,463.038,219.32,512,251.685,512c28.323,0,60.255-23.595,94.91-70.131
	c27.174-36.49,50.457-79.685,63.245-105.058c18.794,0.532,38.725-1.533,59.367-6.155C473.602,329.672,476.5,325.474,475.864,321.018
	z"/>
<g>
	<path style="fill:#179975;" d="M151.272,390.167c-30.33-51.193-82.267-158.292-89.335-300.388c-0.24-4.857,3.754-9.054,8.615-9.054
		H44.675c-4.86,0-8.855,4.197-8.615,9.054c7.069,142.097,59.006,249.195,89.335,300.388C168.57,463.038,219.322,512,251.687,512
		c4.609,0,9.316-0.636,14.112-1.884C233.71,500.505,189.518,454.722,151.272,390.167z"/>
	<path style="fill:#179975;" d="M313.427,22.508c14.772-12.06,31.428-19.311,49.125-21.661
		c-27.298-3.462-53.201,3.864-75.001,21.661c-40.152,32.78-61.521,97.838-50.808,154.694c4.18,22.188,22.668,95.615,88.233,135.397
		h25.875c-65.566-39.782-84.053-113.209-88.233-135.397C251.905,120.345,273.275,55.288,313.427,22.508z"/>
</g>
</svg>