<svg width="515" height="446" viewBox="0 0 515 446" fill="none" xmlns="http://www.w3.org/2000/svg">
    <g clip-path="url(#clip0_2253_1831)">
    <path d="M333.418 274.233C283.741 321.51 230.204 358.509 183.822 380.117C160.629 390.921 139.252 397.865 121.058 400.333C102.864 402.802 87.9222 400.787 77.4964 393.755C67.0706 386.723 62.0464 375.27 61.9812 360.485C61.9161 345.702 66.8126 327.642 76.1482 307.49C94.8179 267.19 131.198 218.618 180.875 171.342C230.552 124.065 284.089 87.0662 330.471 65.4584C353.664 54.6536 375.041 47.71 393.235 45.2417C411.429 42.7732 426.371 44.7878 436.796 51.82C447.222 58.8523 452.246 70.3048 452.312 85.0896C452.377 99.8734 447.48 117.933 438.145 138.085C419.475 178.385 383.095 226.957 333.418 274.233Z" stroke="url(#paint0_linear_2253_1831)" stroke-opacity="0.4"/>
    <path d="M181.453 274.233C231.131 321.51 284.667 358.509 331.05 380.117C354.242 390.921 375.62 397.865 393.813 400.333C412.007 402.802 426.949 400.787 437.375 393.755C447.8 386.723 452.825 375.27 452.89 360.485C452.955 345.702 448.059 327.642 438.723 307.49C420.053 267.19 383.673 218.618 333.996 171.342C284.319 124.065 230.782 87.0662 184.4 65.4584C161.207 54.6536 139.83 47.71 121.636 45.2417C103.442 42.7732 88.5004 44.7878 78.0747 51.82C67.6489 58.8523 62.6247 70.3048 62.5595 85.0896C62.4944 99.8734 67.3908 117.933 76.7265 138.085C95.3962 178.385 131.776 226.957 181.453 274.233Z" stroke="url(#paint1_linear_2253_1831)" stroke-opacity="0.4"/>
    <g clip-path="url(#clip1_2253_1831)">
    <path d="M250.288 218.788C249.292 219.194 248.212 219.35 247.142 219.241C246.072 219.132 245.045 218.761 244.152 218.163C243.259 217.564 242.527 216.755 242.021 215.808C241.515 214.86 241.251 213.802 241.251 212.728C241.251 211.655 241.515 210.597 242.021 209.649C242.527 208.702 243.259 207.893 244.152 207.294C245.045 206.695 246.072 206.325 247.142 206.216C248.212 206.107 249.292 206.263 250.288 206.669C251.333 204.059 253.032 201.761 255.222 199.995C253.264 198.859 251.071 198.189 248.812 198.036C246.553 197.883 244.289 198.251 242.196 199.112C240.102 199.973 238.235 201.303 236.739 203C235.244 204.697 234.159 206.716 233.57 208.898C232.981 211.081 232.904 213.37 233.343 215.588C233.782 217.805 234.727 219.892 236.104 221.687C237.481 223.481 239.253 224.935 241.284 225.935C243.314 226.936 245.548 227.457 247.812 227.457C250.415 227.46 252.973 226.771 255.222 225.462C253.032 223.695 251.333 221.397 250.288 218.788Z" fill="black" fill-opacity="0.5"/>
    <path d="M267.989 218.788C266.994 219.193 265.913 219.348 264.844 219.239C263.774 219.129 262.747 218.759 261.855 218.16C260.962 217.561 260.231 216.752 259.725 215.804C259.219 214.857 258.955 213.8 258.955 212.726C258.955 211.652 259.219 210.595 259.725 209.647C260.231 208.7 260.962 207.891 261.855 207.292C262.747 206.693 263.774 206.322 264.844 206.213C265.913 206.103 266.994 206.258 267.989 206.664C269.034 204.055 270.732 201.758 272.921 199.993C270.964 198.858 268.77 198.188 266.512 198.036C264.253 197.883 261.99 198.252 259.897 199.113C257.804 199.974 255.937 201.304 254.442 203.001C252.946 204.698 251.862 206.716 251.273 208.899C250.685 211.081 250.607 213.37 251.046 215.587C251.485 217.804 252.43 219.891 253.806 221.685C255.183 223.48 256.955 224.933 258.984 225.934C261.014 226.935 263.247 227.456 265.511 227.457C268.115 227.46 270.672 226.771 272.921 225.462C270.732 223.696 269.033 221.398 267.989 218.788Z" fill="black" fill-opacity="0.5"/>
    <path d="M267.99 218.787C266.795 219.276 265.481 219.401 264.215 219.147C262.948 218.892 261.786 218.269 260.873 217.357L273.54 230H282.812L281.842 229.032C278.808 228.777 275.905 227.683 273.458 225.874C271.012 224.065 269.118 221.611 267.99 218.787Z" fill="black"/>
    <path d="M278.578 217.357C277.353 216.128 276.667 214.465 276.669 212.731C276.671 210.998 277.362 209.336 278.59 208.111C279.817 206.885 281.482 206.196 283.218 206.194C284.954 206.192 286.62 206.877 287.85 208.1L297.198 217.433C298.353 214.009 298.207 210.28 296.788 206.956C295.369 203.631 292.775 200.944 289.501 199.405C286.227 197.866 282.5 197.582 279.03 198.608C275.559 199.634 272.588 201.897 270.68 204.968C268.773 208.039 268.062 211.703 268.684 215.263C269.306 218.822 271.217 222.03 274.053 224.274C276.889 226.519 280.453 227.644 284.066 227.436C287.679 227.228 291.09 225.702 293.649 223.146L287.854 217.361C287.245 217.969 286.522 218.451 285.726 218.78C284.93 219.109 284.077 219.278 283.215 219.278C282.354 219.278 281.501 219.108 280.705 218.778C279.909 218.448 279.186 217.965 278.578 217.357Z" fill="black" fill-opacity="0.5"/>
    <path d="M287.85 217.357C287.242 217.965 286.519 218.447 285.723 218.776C284.928 219.105 284.075 219.274 283.214 219.274C282.353 219.274 281.501 219.105 280.705 218.776C279.91 218.447 279.187 217.965 278.578 217.357L291.242 230H300.513L287.85 217.357Z" fill="black"/>
    <path d="M231.727 215.878C230.664 215.686 229.586 215.588 228.506 215.587C226.084 215.584 223.686 216.07 221.457 217.015C219.227 217.961 217.213 219.347 215.533 221.09L221.907 227.454C222.75 226.548 223.771 225.826 224.906 225.332C226.041 224.839 227.265 224.584 228.504 224.584C229.742 224.584 230.967 224.839 232.102 225.332C233.237 225.826 234.258 226.548 235.101 227.454L237.287 225.271C234.411 222.868 232.448 219.553 231.727 215.878Z" fill="black"/>
    <path d="M231.42 212.728C231.418 210.335 231.942 207.971 232.957 205.803C233.971 203.635 235.45 201.717 237.29 200.183L235.104 198L215.533 221.09L221.907 227.454L231.723 215.871C231.521 214.835 231.42 213.783 231.42 212.728Z" fill="black" fill-opacity="0.5"/>
    <path d="M237.29 200.183L235.104 198C234.261 198.906 233.241 199.629 232.105 200.123C230.97 200.617 229.745 200.871 228.506 200.87C227.267 200.872 226.042 200.618 224.906 200.124C223.77 199.63 222.749 198.907 221.907 198L215.533 204.364C217.213 206.106 219.227 207.492 221.457 208.438C223.686 209.384 226.084 209.87 228.506 209.867C229.586 209.866 230.664 209.768 231.727 209.574C232.449 205.9 234.413 202.585 237.29 200.183Z" fill="black"/>
    </g>
    <rect x="53" y="105" width="40" height="40" rx="20" fill="#A9C0D1"/>
    <path d="M72.746 132.24C71.426 132.24 70.2727 131.94 69.286 131.34C68.2993 130.74 67.5327 129.907 66.986 128.84C66.4393 127.76 66.166 126.507 66.166 125.08C66.166 123.64 66.446 122.373 67.006 121.28C67.5793 120.173 68.386 119.313 69.426 118.7C70.4793 118.073 71.726 117.76 73.166 117.76C74.806 117.76 76.166 118.153 77.246 118.94C78.326 119.727 79.026 120.813 79.346 122.2H76.486C76.2727 121.547 75.886 121.04 75.326 120.68C74.766 120.307 74.046 120.12 73.166 120.12C71.766 120.12 70.686 120.567 69.926 121.46C69.166 122.34 68.786 123.553 68.786 125.1C68.786 126.647 69.1593 127.847 69.906 128.7C70.666 129.54 71.6927 129.96 72.986 129.96C74.2527 129.96 75.206 129.62 75.846 128.94C76.4993 128.247 76.8927 127.34 77.026 126.22H73.486V124.3H79.606V132H77.246L77.046 130.16C76.5927 130.827 76.026 131.34 75.346 131.7C74.666 132.06 73.7993 132.24 72.746 132.24Z" fill="black"/>
    <rect x="380" y="178" width="40" height="40" rx="20" fill="black"/>
    <path d="M395.578 205V191H404.718V193.06H398.138V196.9H404.118V198.9H398.138V202.94H404.718V205H395.578Z" fill="white"/>
    <rect x="171" y="356" width="40" height="40" rx="20" fill="#FFF62D"/>
    <path d="M183.531 383V369H186.571L191.031 377.88L195.431 369H198.471V383H195.911V373.34L192.011 381H189.991L186.091 373.34V383H183.531Z" fill="black"/>
    <rect x="381" y="383" width="40" height="40" rx="20" fill="#A9C0D1"/>
    <path d="M401.173 410.24C400.146 410.24 399.239 410.067 398.453 409.72C397.666 409.36 397.046 408.853 396.593 408.2C396.139 407.533 395.906 406.727 395.893 405.78H398.593C398.619 406.433 398.853 406.987 399.293 407.44C399.746 407.88 400.366 408.1 401.153 408.1C401.833 408.1 402.373 407.94 402.773 407.62C403.173 407.287 403.373 406.847 403.373 406.3C403.373 405.727 403.193 405.28 402.833 404.96C402.486 404.64 402.019 404.38 401.433 404.18C400.846 403.98 400.219 403.767 399.553 403.54C398.473 403.167 397.646 402.687 397.073 402.1C396.513 401.513 396.233 400.733 396.233 399.76C396.219 398.933 396.413 398.227 396.813 397.64C397.226 397.04 397.786 396.58 398.493 396.26C399.199 395.927 400.013 395.76 400.933 395.76C401.866 395.76 402.686 395.927 403.393 396.26C404.113 396.593 404.673 397.06 405.073 397.66C405.486 398.26 405.706 398.973 405.733 399.8H402.993C402.979 399.307 402.786 398.873 402.413 398.5C402.053 398.113 401.546 397.92 400.893 397.92C400.333 397.907 399.859 398.047 399.473 398.34C399.099 398.62 398.913 399.033 398.913 399.58C398.913 400.047 399.059 400.42 399.353 400.7C399.646 400.967 400.046 401.193 400.553 401.38C401.059 401.567 401.639 401.767 402.293 401.98C402.986 402.22 403.619 402.5 404.193 402.82C404.766 403.14 405.226 403.567 405.573 404.1C405.919 404.62 406.093 405.293 406.093 406.12C406.093 406.853 405.906 407.533 405.533 408.16C405.159 408.787 404.606 409.293 403.873 409.68C403.139 410.053 402.239 410.24 401.173 410.24Z" fill="black"/>
    </g>
    <defs>
    <linearGradient id="paint0_linear_2253_1831" x1="342.813" y1="263.29" x2="224.011" y2="122.36" gradientUnits="userSpaceOnUse">
    <stop/>
    <stop offset="1" stop-opacity="0"/>
    </linearGradient>
    <linearGradient id="paint1_linear_2253_1831" x1="172.058" y1="263.29" x2="290.86" y2="122.36" gradientUnits="userSpaceOnUse">
    <stop/>
    <stop offset="1" stop-opacity="0"/>
    </linearGradient>
    <clipPath id="clip0_2253_1831">
    <rect width="515" height="446" fill="white"/>
    </clipPath>
    <clipPath id="clip1_2253_1831">
    <rect width="86" height="32" fill="white" transform="translate(215 198)"/>
    </clipPath>
    </defs>
    </svg>
    