<svg width="530" height="469" viewBox="0 0 530 469" fill="none" xmlns="http://www.w3.org/2000/svg">
    <path d="M404.5 235C404.5 297.054 388.849 353.209 363.57 393.835C338.288 434.468 303.424 459.5 265 459.5C226.576 459.5 191.712 434.468 166.43 393.835C141.151 353.209 125.5 297.054 125.5 235C125.5 172.946 141.151 116.791 166.43 76.1651C191.712 35.532 226.576 10.5 265 10.5C303.424 10.5 338.288 35.532 363.57 76.1651C388.849 116.791 404.5 172.946 404.5 235Z" stroke="url(#paint0_linear_2253_1630)" stroke-opacity="0.4"/>
    <path d="M334.75 355.81C281.01 386.837 224.552 401.361 176.73 399.782C128.899 398.203 89.7892 380.526 70.5771 347.25C51.3649 313.974 55.6116 271.265 78.1595 229.053C100.703 186.848 141.51 145.216 195.25 114.189C248.99 83.1625 305.447 68.6392 353.27 70.218C401.1 71.797 440.21 89.4735 459.422 122.75C478.635 156.026 474.388 198.735 451.84 240.947C429.296 283.152 388.49 324.784 334.75 355.81Z" stroke="url(#paint1_linear_2253_1630)" stroke-opacity="0.4"/>
    <path d="M334.75 114.19C388.49 145.216 429.297 186.848 451.84 229.053C474.388 271.265 478.635 313.974 459.423 347.25C440.211 380.526 401.101 398.203 353.27 399.782C305.448 401.361 248.99 386.838 195.25 355.811C141.51 324.784 100.704 283.152 78.16 240.947C55.6121 198.735 51.3654 156.026 70.5775 122.75C89.7897 89.4737 128.9 71.7972 176.73 70.2182C224.553 68.6394 281.01 83.1627 334.75 114.19Z" stroke="url(#paint2_linear_2253_1630)" stroke-opacity="0.4"/>
    <g clip-path="url(#clip0_2253_1630)">
    <path d="M403 87.0005C407.418 87.0005 411 83.4188 411 79.0005C411 74.5822 407.418 71.0005 403 71.0005C398.582 71.0005 395 74.5822 395 79.0005C395 83.4188 398.582 87.0005 403 87.0005Z" fill="#D80027"/>
    <path d="M402.999 75.1743L403.862 77.8315H406.656L404.396 79.4737L405.259 82.1308L402.999 80.4886L400.739 82.1308L401.602 79.4737L399.342 77.8315H402.136L402.999 75.1743Z" fill="#FFDA44"/>
    </g>
    <g clip-path="url(#clip1_2253_1630)">
    <path d="M258.288 239.788C257.292 240.194 256.212 240.35 255.142 240.241C254.072 240.132 253.045 239.761 252.152 239.163C251.259 238.564 250.527 237.755 250.021 236.808C249.515 235.86 249.251 234.802 249.251 233.728C249.251 232.655 249.515 231.597 250.021 230.649C250.527 229.702 251.259 228.893 252.152 228.294C253.045 227.695 254.072 227.325 255.142 227.216C256.212 227.107 257.292 227.263 258.288 227.669C259.333 225.059 261.032 222.761 263.222 220.995C261.264 219.859 259.071 219.189 256.812 219.036C254.553 218.883 252.289 219.251 250.196 220.112C248.102 220.973 246.235 222.303 244.739 224C243.244 225.697 242.159 227.716 241.57 229.898C240.981 232.081 240.904 234.37 241.343 236.588C241.782 238.805 242.727 240.892 244.104 242.687C245.481 244.481 247.253 245.935 249.284 246.935C251.314 247.936 253.548 248.457 255.812 248.457C258.415 248.46 260.973 247.771 263.222 246.462C261.032 244.695 259.333 242.397 258.288 239.788Z" fill="black" fill-opacity="0.5"/>
    <path d="M275.989 239.788C274.994 240.193 273.913 240.348 272.844 240.239C271.774 240.129 270.747 239.759 269.855 239.16C268.962 238.561 268.231 237.752 267.725 236.804C267.219 235.857 266.955 234.8 266.955 233.726C266.955 232.652 267.219 231.595 267.725 230.647C268.231 229.7 268.962 228.891 269.855 228.292C270.747 227.693 271.774 227.322 272.844 227.213C273.913 227.103 274.994 227.258 275.989 227.664C277.034 225.055 278.732 222.758 280.921 220.993C278.964 219.858 276.77 219.188 274.512 219.036C272.253 218.883 269.99 219.252 267.897 220.113C265.804 220.974 263.937 222.304 262.442 224.001C260.946 225.698 259.862 227.716 259.273 229.899C258.685 232.081 258.607 234.37 259.046 236.587C259.485 238.804 260.43 240.891 261.806 242.685C263.183 244.48 264.955 245.933 266.984 246.934C269.014 247.935 271.247 248.456 273.511 248.457C276.115 248.46 278.672 247.771 280.921 246.462C278.732 244.696 277.033 242.398 275.989 239.788Z" fill="black" fill-opacity="0.5"/>
    <path d="M275.99 239.787C274.795 240.276 273.481 240.401 272.215 240.147C270.948 239.892 269.786 239.269 268.873 238.357L281.54 251H290.812L289.842 250.032C286.808 249.777 283.905 248.683 281.458 246.874C279.012 245.065 277.118 242.611 275.99 239.787Z" fill="black"/>
    <path d="M286.578 238.357C285.353 237.128 284.667 235.465 284.669 233.731C284.671 231.998 285.362 230.336 286.59 229.111C287.817 227.885 289.482 227.196 291.218 227.194C292.954 227.192 294.62 227.877 295.85 229.1L305.198 238.433C306.353 235.009 306.207 231.28 304.788 227.956C303.369 224.631 300.775 221.944 297.501 220.405C294.227 218.866 290.5 218.582 287.03 219.608C283.559 220.634 280.588 222.897 278.68 225.968C276.773 229.039 276.062 232.703 276.684 236.263C277.306 239.822 279.217 243.03 282.053 245.274C284.889 247.519 288.453 248.644 292.066 248.436C295.679 248.228 299.09 246.702 301.649 244.146L295.854 238.361C295.245 238.969 294.522 239.451 293.726 239.78C292.93 240.109 292.077 240.278 291.215 240.278C290.354 240.278 289.501 240.108 288.705 239.778C287.909 239.448 287.186 238.965 286.578 238.357Z" fill="black" fill-opacity="0.5"/>
    <path d="M295.85 238.357C295.242 238.965 294.519 239.447 293.723 239.776C292.928 240.105 292.075 240.274 291.214 240.274C290.353 240.274 289.501 240.105 288.705 239.776C287.91 239.447 287.187 238.965 286.578 238.357L299.242 251H308.513L295.85 238.357Z" fill="black"/>
    <path d="M239.727 236.878C238.664 236.686 237.586 236.588 236.506 236.587C234.084 236.584 231.686 237.07 229.457 238.015C227.227 238.961 225.213 240.347 223.533 242.09L229.907 248.454C230.75 247.548 231.771 246.826 232.906 246.332C234.041 245.839 235.265 245.584 236.504 245.584C237.742 245.584 238.967 245.839 240.102 246.332C241.237 246.826 242.258 247.548 243.101 248.454L245.287 246.271C242.411 243.868 240.448 240.553 239.727 236.878Z" fill="black"/>
    <path d="M239.42 233.728C239.418 231.335 239.942 228.971 240.957 226.803C241.971 224.635 243.45 222.717 245.29 221.183L243.104 219L223.533 242.09L229.907 248.454L239.723 236.871C239.521 235.835 239.42 234.783 239.42 233.728Z" fill="black" fill-opacity="0.5"/>
    <path d="M245.29 221.183L243.104 219C242.261 219.906 241.241 220.629 240.105 221.123C238.97 221.617 237.745 221.871 236.506 221.87C235.267 221.872 234.042 221.618 232.906 221.124C231.77 220.63 230.749 219.907 229.907 219L223.533 225.364C225.213 227.106 227.227 228.492 229.457 229.438C231.686 230.384 234.084 230.87 236.506 230.867C237.586 230.866 238.664 230.768 239.727 230.574C240.449 226.9 242.413 223.585 245.29 221.183Z" fill="black"/>
    </g>
    <g clip-path="url(#clip2_2253_1630)">
    <path d="M197 440C201.418 440 205 436.418 205 432C205 427.582 201.418 424 197 424C192.582 424 189 427.582 189 432C189 436.418 192.582 440 197 440Z" fill="#F0F0F0"/>
    <path d="M196.652 432H205C205 431.278 204.904 430.578 204.725 429.913H196.652V432Z" fill="#D80027"/>
    <path d="M196.652 427.826H203.826C203.336 427.027 202.71 426.321 201.98 425.739H196.652V427.826Z" fill="#D80027"/>
    <path d="M196.999 440C198.882 440 200.613 439.349 201.979 438.261H192.02C193.386 439.349 195.117 440 196.999 440Z" fill="#D80027"/>
    <path d="M190.174 436.174H203.826C204.219 435.532 204.524 434.831 204.724 434.087H189.275C189.476 434.831 189.781 435.532 190.174 436.174Z" fill="#D80027"/>
    <path d="M192.706 425.249H193.435L192.757 425.742L193.016 426.539L192.338 426.046L191.659 426.539L191.883 425.85C191.286 426.348 190.763 426.931 190.332 427.58H190.565L190.134 427.893C190.066 428.006 190.002 428.119 189.94 428.235L190.146 428.87L189.762 428.59C189.666 428.793 189.579 429 189.5 429.211L189.727 429.91H190.565L189.887 430.403L190.146 431.2L189.468 430.707L189.062 431.002C189.021 431.329 189 431.662 189 432H197C197 427.582 197 427.061 197 424C195.42 424 193.946 424.458 192.706 425.249ZM193.016 431.2L192.338 430.707L191.659 431.2L191.919 430.403L191.24 429.91H192.079L192.338 429.113L192.597 429.91H193.435L192.757 430.403L193.016 431.2ZM192.757 428.072L193.016 428.87L192.338 428.377L191.659 428.87L191.919 428.072L191.24 427.58H192.079L192.338 426.783L192.597 427.58H193.435L192.757 428.072ZM195.885 431.2L195.207 430.707L194.529 431.2L194.788 430.403L194.11 429.91H194.948L195.207 429.113L195.466 429.91H196.304L195.626 430.403L195.885 431.2ZM195.626 428.072L195.885 428.87L195.207 428.377L194.529 428.87L194.788 428.072L194.11 427.58H194.948L195.207 426.783L195.466 427.58H196.304L195.626 428.072ZM195.626 425.742L195.885 426.539L195.207 426.046L194.529 426.539L194.788 425.742L194.11 425.249H194.948L195.207 424.452L195.466 425.249H196.304L195.626 425.742Z" fill="#0052B4"/>
    </g>
    <g clip-path="url(#clip3_2253_1630)">
    <path d="M461 197C461 192.582 464.582 189 469 189C473.418 189 477 192.582 477 197C476.652 197 469 198.043 469 198.043L461 197Z" fill="#D80027"/>
    <path d="M477 197C477 201.418 473.418 205 469 205C464.582 205 461 201.418 461 197" fill="black"/>
    <path d="M467.902 195.363L468.581 195.855L468.322 196.652L469 196.159L469.678 196.651L469.419 195.854L470.096 195.362L469.258 195.362L468.999 194.565L468.74 195.362L467.902 195.363Z" fill="#FFDA44"/>
    <path d="M471 193.536C470.369 193.172 469.68 193 469 193.001V194.044C469.502 194.044 470.012 194.17 470.478 194.44C471.89 195.255 472.375 197.066 471.56 198.478C470.745 199.89 468.933 200.375 467.521 199.56C467.11 199.323 466.778 199 466.533 198.628L465.662 199.203C465.993 199.707 466.443 200.143 467 200.464C468.91 201.567 471.361 200.91 472.464 199C473.566 197.09 472.91 194.639 471 193.536Z" fill="#FFDA44"/>
    <path d="M466.693 196.304C466.416 196.81 466.602 197.444 467.107 197.72L470.496 199.572C470.266 199.994 470.388 200.506 470.81 200.737L471.725 201.238C472.146 201.468 472.675 201.313 472.905 200.892L473.406 199.977L466.693 196.304Z" fill="#FFDA44"/>
    </g>
    <rect x="188" y="343" width="40" height="40" rx="20" fill="#A9C0D1"/>
    <path d="M201.125 361.75H208.625M201.125 364.25H207.375M212.375 368.443C211.566 369.167 210.564 369.641 209.491 369.808C208.418 369.976 207.32 369.829 206.328 369.385C205.337 368.942 204.495 368.221 203.905 367.31C203.314 366.399 203 365.336 203 364.25V361.75C203 360.664 203.314 359.602 203.905 358.69C204.495 357.779 205.337 357.058 206.328 356.615C207.32 356.172 208.418 356.025 209.491 356.192C210.564 356.359 211.566 356.833 212.375 357.557" stroke="black" stroke-width="2" stroke-linecap="round" stroke-linejoin="round"/>
    <rect x="187" y="10" width="40" height="40" rx="20" fill="#A9C0D1"/>
    <path fill-rule="evenodd" clip-rule="evenodd" d="M200.375 30C200.375 29.4477 200.823 29 201.375 29H207.625C208.177 29 208.625 29.4477 208.625 30C208.625 30.5522 208.177 31 207.625 31H201.375C200.823 31 200.375 30.5522 200.375 30Z" fill="black"/>
    <path fill-rule="evenodd" clip-rule="evenodd" d="M208.24 24.1432C207.782 24.0857 207.316 24.1599 206.898 24.3571C206.48 24.5542 206.126 24.8663 205.879 25.2567C205.631 25.6472 205.5 26.1 205.5 26.5623V33.4375C205.5 34.0761 205.34 34.6981 205.042 35.25H211.375C211.927 35.25 212.375 35.6977 212.375 36.25C212.375 36.8022 211.927 37.25 211.375 37.25H201.688C201.135 37.25 200.688 36.8022 200.688 36.25C200.688 35.6977 201.135 35.25 201.688 35.25C202.168 35.25 202.629 35.059 202.969 34.7191C203.309 34.3792 203.5 33.9182 203.5 33.4375V26.5627C203.5 25.7211 203.739 24.8967 204.19 24.1859C204.64 23.4751 205.284 22.907 206.045 22.5481C206.806 22.1891 207.654 22.0541 208.489 22.1587C209.324 22.2632 210.112 22.6032 210.761 23.1387C211.187 23.4902 211.248 24.1205 210.896 24.5465C210.545 24.9725 209.915 25.033 209.489 24.6815C209.132 24.3873 208.699 24.2006 208.24 24.1432Z" fill="black"/>
    <rect x="421" y="351" width="40" height="40" rx="20" fill="#A9C0D1"/>
    <path d="M441 362.875V364.75M441 377.25V379.125M445.375 367.875C445.375 367.465 445.294 367.058 445.137 366.679C444.98 366.3 444.75 365.955 444.46 365.665C444.17 365.375 443.825 365.145 443.446 364.988C443.067 364.831 442.66 364.75 442.25 364.75H439.75C438.921 364.75 438.126 365.079 437.54 365.665C436.954 366.251 436.625 367.046 436.625 367.875C436.625 368.704 436.954 369.499 437.54 370.085C438.126 370.671 438.921 371 439.75 371H442.875C443.704 371 444.499 371.329 445.085 371.915C445.671 372.501 446 373.296 446 374.125C446 374.954 445.671 375.749 445.085 376.335C444.499 376.921 443.704 377.25 442.875 377.25H439.125C438.296 377.25 437.501 376.921 436.915 376.335C436.329 375.749 436 374.954 436 374.125" stroke="black" stroke-width="2" stroke-linecap="round" stroke-linejoin="round"/>
    <g clip-path="url(#clip4_2253_1630)">
    <path d="M70 365C81.0457 365 90 356.046 90 345C90 333.954 81.0457 325 70 325C58.9543 325 50 333.954 50 345C50 356.046 58.9543 365 70 365Z" fill="#F0F0F0"/>
    <path d="M54.1348 332.823C52.5638 334.867 51.3792 337.223 50.6895 339.783H61.094L54.1348 332.823Z" fill="#0052B4"/>
    <path d="M89.3106 339.783C88.6209 337.224 87.4362 334.868 85.8652 332.824L78.9062 339.783H89.3106Z" fill="#0052B4"/>
    <path d="M50.6895 350.218C51.3793 352.777 52.5639 355.133 54.1348 357.177L61.0938 350.218H50.6895Z" fill="#0052B4"/>
    <path d="M82.1778 329.134C80.1338 327.563 77.778 326.379 75.2188 325.689V336.093L82.1778 329.134Z" fill="#0052B4"/>
    <path d="M57.8242 360.866C59.8682 362.437 62.2241 363.621 64.7833 364.311V353.907L57.8242 360.866Z" fill="#0052B4"/>
    <path d="M64.7832 325.689C62.224 326.379 59.8681 327.563 57.8242 329.134L64.7832 336.093V325.689Z" fill="#0052B4"/>
    <path d="M75.2188 364.311C77.778 363.621 80.1338 362.437 82.1777 360.866L75.2188 353.907V364.311Z" fill="#0052B4"/>
    <path d="M78.9062 350.218L85.8652 357.177C87.4362 355.133 88.6209 352.777 89.3106 350.218H78.9062Z" fill="#0052B4"/>
    <path d="M89.8307 342.391H72.6088H72.6087V325.169C71.7548 325.058 70.8841 325 70 325C69.1157 325 68.2452 325.058 67.3913 325.169V342.391V342.391H50.1693C50.0581 343.245 50 344.116 50 345C50 345.884 50.0581 346.755 50.1693 347.609H67.3912H67.3913V364.831C68.2452 364.942 69.1157 365 70 365C70.8841 365 71.7548 364.942 72.6087 364.831V347.609V347.609H89.8307C89.9419 346.755 90 345.884 90 345C90 344.116 89.9419 343.245 89.8307 342.391Z" fill="#D80027"/>
    <path d="M75.2168 350.218L84.1415 359.142C84.552 358.732 84.9435 358.303 85.3171 357.858L77.6763 350.218H75.2168V350.218Z" fill="#D80027"/>
    <path d="M64.7822 350.218H64.782L55.8574 359.142C56.2677 359.553 56.6967 359.944 57.1414 360.318L64.7822 352.677V350.218Z" fill="#D80027"/>
    <path d="M64.782 339.783V339.783L55.8573 330.858C55.4468 331.268 55.0552 331.697 54.6816 332.142L62.3225 339.783H64.782V339.783Z" fill="#D80027"/>
    <path d="M75.2168 339.783L84.1416 330.858C83.7312 330.447 83.3023 330.056 82.8576 329.682L75.2168 337.323V339.783Z" fill="#D80027"/>
    </g>
    <g clip-path="url(#clip5_2253_1630)">
    <path d="M75 124C79.4183 124 83 120.419 83 116C83 111.582 79.4183 108 75 108C70.5817 108 67 111.582 67 116C67 120.419 70.5817 124 75 124Z" fill="#FFF62D"/>
    <path d="M67 116C67 111.582 70.5817 108 75 108C79.4183 108 83 111.582 83 116" fill="#338AF3"/>
    </g>
    <g clip-path="url(#clip6_2253_1630)">
    <path d="M114.244 201.957C117.07 209.573 124.401 215.001 133 215.001C141.599 215.001 148.93 209.573 151.756 201.957L133 200.218L114.244 201.957Z" fill="#FFDA44"/>
    <path d="M133 175C124.401 175 117.07 180.428 114.244 188.044L133 189.783L151.756 188.044C148.93 180.428 141.599 175 133 175Z" fill="black"/>
    <path d="M114.244 188.044C113.44 190.211 113 192.554 113 195C113 197.447 113.44 199.79 114.244 201.957H151.756C152.56 199.79 153 197.447 153 195C153 192.554 152.56 190.211 151.756 188.044H114.244Z" fill="#D80027"/>
    </g>
    <defs>
    <linearGradient id="paint0_linear_2253_1630" x1="133.992" y1="295.862" x2="359.879" y2="220.497" gradientUnits="userSpaceOnUse">
    <stop/>
    <stop offset="1" stop-opacity="0"/>
    </linearGradient>
    <linearGradient id="paint1_linear_2253_1630" x1="345" y1="347" x2="227.545" y2="83.5405" gradientUnits="userSpaceOnUse">
    <stop/>
    <stop offset="1" stop-opacity="0"/>
    </linearGradient>
    <linearGradient id="paint2_linear_2253_1630" x1="252.204" y1="378.887" x2="368.663" y2="124.473" gradientUnits="userSpaceOnUse">
    <stop/>
    <stop offset="1" stop-opacity="0"/>
    </linearGradient>
    <clipPath id="clip0_2253_1630">
    <rect x="395" y="71.0005" width="16" height="16" rx="8" fill="white"/>
    </clipPath>
    <clipPath id="clip1_2253_1630">
    <rect width="86" height="32" fill="white" transform="translate(223 219)"/>
    </clipPath>
    <clipPath id="clip2_2253_1630">
    <rect width="16" height="16" fill="white" transform="translate(189 424)"/>
    </clipPath>
    <clipPath id="clip3_2253_1630">
    <rect width="16" height="16" fill="white" transform="translate(461 189)"/>
    </clipPath>
    <clipPath id="clip4_2253_1630">
    <rect x="50" y="325" width="40" height="40" rx="20" fill="white"/>
    </clipPath>
    <clipPath id="clip5_2253_1630">
    <rect x="67" y="108" width="16" height="16" rx="8" fill="white"/>
    </clipPath>
    <clipPath id="clip6_2253_1630">
    <rect x="113" y="175" width="40" height="40" rx="20" fill="white"/>
    </clipPath>
    </defs>
    </svg>
    