<svg width="515" height="446" viewBox="0 0 515 446" fill="none" xmlns="http://www.w3.org/2000/svg">
    <g clip-path="url(#clip0_2253_1667)">
    <path d="M333.418 274.483C283.741 321.76 230.204 358.759 183.822 380.367C160.629 391.171 139.252 398.115 121.058 400.583C102.864 403.052 87.9222 401.037 77.4964 394.005C67.0706 386.973 62.0464 375.52 61.9812 360.735C61.9161 345.952 66.8126 327.892 76.1482 307.74C94.8179 267.44 131.198 218.868 180.875 171.592C230.552 124.315 284.089 87.3162 330.471 65.7084C353.664 54.9036 375.041 47.96 393.235 45.4917C411.429 43.0232 426.371 45.0378 436.796 52.07C447.222 59.1023 452.246 70.5548 452.312 85.3396C452.377 100.123 447.48 118.183 438.145 138.335C419.475 178.635 383.095 227.207 333.418 274.483Z" stroke="url(#paint0_linear_2253_1667)" stroke-opacity="0.4"/>
    <path d="M181.453 274.483C231.131 321.76 284.667 358.759 331.05 380.367C354.242 391.171 375.62 398.115 393.813 400.583C412.007 403.052 426.949 401.037 437.375 394.005C447.8 386.973 452.825 375.52 452.89 360.735C452.955 345.952 448.059 327.892 438.723 307.74C420.053 267.44 383.673 218.868 333.996 171.592C284.319 124.315 230.782 87.3162 184.4 65.7084C161.207 54.9036 139.83 47.96 121.636 45.4917C103.442 43.0232 88.5004 45.0378 78.0747 52.07C67.6489 59.1023 62.6247 70.5548 62.5595 85.3396C62.4944 100.123 67.3908 118.183 76.7265 138.335C95.3962 178.635 131.776 227.207 181.453 274.483Z" stroke="url(#paint1_linear_2253_1667)" stroke-opacity="0.4"/>
    <g clip-path="url(#clip1_2253_1667)">
    <path d="M340 390C344.418 390 348 386.418 348 382C348 377.582 344.418 374 340 374C335.582 374 332 377.582 332 382C332 386.418 335.582 390 340 390Z" fill="#2CA01C"/>
    <path d="M333.929 381.998C333.93 383.806 335.388 385.277 337.197 385.293H337.66V384.084H337.197C336.076 384.39 334.919 383.729 334.614 382.607C334.611 382.599 334.609 382.59 334.607 382.581C334.293 381.445 334.95 380.268 336.083 379.941H336.314C336.604 379.877 336.904 379.877 337.194 379.941H338.317V386.359C338.312 387.038 338.858 387.594 339.537 387.6V378.67H337.204C335.382 378.679 333.914 380.163 333.924 381.985V381.985L333.929 381.998ZM342.809 378.671H342.346V379.944H342.809C343.928 379.639 345.082 380.298 345.387 381.416C345.389 381.424 345.391 381.433 345.394 381.441C345.706 382.574 345.05 383.746 343.923 384.072H343.692C343.402 384.136 343.101 384.136 342.812 384.072H341.688V377.655C341.693 376.975 341.148 376.42 340.469 376.414V385.357H342.801C344.639 385.328 346.105 383.816 346.077 381.978C346.049 380.181 344.599 378.731 342.801 378.703L342.809 378.671Z" fill="white"/>
    </g>
    <rect x="364" y="201" width="40" height="40" rx="20" fill="#A9C0D1"/>
    <g clip-path="url(#clip2_2253_1667)">
    <path d="M373.629 215.55H377.89V225.684H380.011V229.644H373.629V215.55ZM393.351 224.874H389.09V214.74H386.969V210.78H393.351V224.874Z" fill="#6B6B6B"/>
    <path d="M372.641 209.808H386.106V221.382L380.929 214.704H372.641V209.808ZM394.323 230.634H380.857V219.06L386.035 225.738H394.323" fill="black"/>
    </g>
    <rect x="147" y="363" width="40" height="40" rx="20" fill="black"/>
    <g clip-path="url(#clip3_2253_1667)">
    <path d="M182 380.136V387.014L180.984 387.941V381.214L182 380.136" fill="#E79224"/>
    <path d="M181 381.214H174.277V387.949H181V381.214Z" fill="url(#paint2_linear_2253_1667)"/>
    <path d="M175.33 380.14L174.277 381.214H181L181.999 380.136L175.33 380.14" fill="#FEF26F"/>
    <path d="M167.004 380.435L173.617 379.575L173.064 381.058L166.799 381.988L166.825 380.927L167.004 380.435Z" fill="#91C9ED"/>
    <path d="M173.063 381.058L173.979 387.092L167.459 387.949L166.578 382.116L166.959 381.838L173.063 381.059" fill="url(#paint3_linear_2253_1667)"/>
    <path d="M173.618 379.575L173.623 379.611L174.481 385.789L173.981 387.092L173.064 381.058" fill="#0B9AD6"/>
    <mask id="mask0_2253_1667" style="mask-type:luminance" maskUnits="userSpaceOnUse" x="158" y="379" width="10" height="10">
    <path d="M161.419 379.92L167.274 382.392L164.632 388.002L158.777 385.531L161.419 379.92" fill="white"/>
    </mask>
    <g mask="url(#mask0_2253_1667)">
    <path d="M151 378H181.999V388H151V378Z" fill="url(#paint4_linear_2253_1667)"/>
    </g>
    <path d="M160.811 378L161.418 379.92L167.273 382.392L166.781 380.557L160.811 378Z" fill="#98D0A0"/>
    <path d="M160.811 378L158.455 383.232L158.777 385.531L161.419 379.92L160.811 378Z" fill="#68BF6B"/>
    <path d="M157.544 381.05L158.509 386.987L152.039 387.936L151 381.987L157.544 381.05" fill="url(#paint5_linear_2253_1667)"/>
    <path d="M151 381.987L151.454 379.867L157.987 378.887L157.544 381.049L151 381.987Z" fill="#EF463D"/>
    <path d="M157.988 378.888L158.946 384.882L158.51 386.987L157.545 381.05L157.988 378.888Z" fill="#761116"/>
    <path d="M171.955 382.215C171.926 382.027 171.857 381.884 171.746 381.791C171.658 381.716 171.547 381.678 171.421 381.678C171.389 381.678 171.355 381.681 171.321 381.685C171.152 381.708 171.022 381.782 170.943 381.903C170.885 381.99 170.857 382.096 170.857 382.217C170.857 382.264 170.861 382.313 170.869 382.364L171.107 383.934L169.232 384.192L168.994 382.622C168.965 382.439 168.898 382.298 168.789 382.202C168.7 382.124 168.59 382.084 168.466 382.084C168.437 382.084 168.407 382.086 168.376 382.09C168.199 382.114 168.065 382.186 167.983 382.306C167.924 382.391 167.896 382.498 167.896 382.621C167.896 382.668 167.9 382.718 167.908 382.771L168.55 386.854C168.579 387.042 168.649 387.185 168.765 387.277C168.855 387.349 168.967 387.385 169.097 387.385C169.132 387.385 169.169 387.382 169.206 387.377C169.368 387.355 169.493 387.282 169.568 387.161C169.622 387.075 169.648 386.972 169.648 386.854C169.648 386.806 169.644 386.757 169.635 386.705L169.373 385.092L171.248 384.834L171.51 386.447C171.539 386.632 171.609 386.774 171.723 386.867C171.813 386.942 171.925 386.979 172.051 386.979C172.084 386.979 172.117 386.977 172.152 386.972C172.32 386.949 172.449 386.877 172.526 386.757C172.582 386.671 172.609 386.567 172.609 386.447C172.609 386.4 172.605 386.35 172.597 386.298L171.955 382.215ZM164.33 384.473C164.109 384.959 163.818 385.293 163.458 385.477C163.264 385.576 163.067 385.625 162.862 385.625C162.684 385.625 162.501 385.588 162.311 385.513C161.902 385.35 161.646 385.087 161.536 384.717C161.499 384.593 161.48 384.462 161.48 384.325C161.48 384.053 161.553 383.755 161.7 383.43C161.926 382.932 162.22 382.593 162.581 382.407C162.774 382.308 162.972 382.258 163.177 382.258C163.357 382.258 163.543 382.296 163.735 382.372C164.142 382.534 164.395 382.798 164.504 383.17C164.539 383.291 164.557 383.42 164.557 383.554C164.557 383.832 164.482 384.138 164.33 384.473ZM164.971 382.029C164.741 381.802 164.462 381.624 164.134 381.494C163.809 381.364 163.48 381.3 163.148 381.3L163.133 381.3C162.797 381.302 162.464 381.372 162.136 381.51V381.51C161.793 381.649 161.494 381.845 161.24 382.096C160.987 382.347 160.78 382.649 160.621 383C160.463 383.348 160.376 383.695 160.36 384.043C160.358 384.082 160.357 384.122 160.357 384.161C160.357 384.468 160.413 384.769 160.526 385.062C160.645 385.372 160.821 385.641 161.052 385.867C161.284 386.093 161.569 386.273 161.907 386.407V386.407C162.229 386.535 162.557 386.599 162.889 386.599H162.897C163.232 386.598 163.564 386.53 163.892 386.399L163.892 386.398L163.893 386.398C164.238 386.254 164.539 386.056 164.796 385.805C165.052 385.554 165.26 385.253 165.418 384.904C165.577 384.554 165.663 384.206 165.677 383.86C165.679 383.827 165.679 383.793 165.679 383.76C165.679 383.449 165.621 383.144 165.503 382.845C165.379 382.528 165.201 382.256 164.971 382.029ZM156.85 386.042C156.799 385.985 156.73 385.943 156.646 385.915C156.56 385.887 156.456 385.874 156.334 385.874C156.218 385.874 156.087 385.886 155.938 385.91L154.23 386.183C154.248 386.059 154.313 385.898 154.429 385.7C154.557 385.48 154.747 385.214 154.998 384.905L154.998 384.905C155.084 384.798 155.15 384.716 155.195 384.659C155.228 384.621 155.273 384.565 155.332 384.492C155.723 384.012 155.964 383.622 156.057 383.316C156.11 383.142 156.142 382.967 156.154 382.791C156.157 382.742 156.159 382.695 156.159 382.647C156.159 382.521 156.148 382.396 156.125 382.274C156.105 382.162 156.076 382.069 156.036 381.995C155.997 381.921 155.947 381.864 155.885 381.829C155.816 381.789 155.718 381.772 155.59 381.772C155.484 381.772 155.357 381.784 155.209 381.808L153.236 382.123C152.997 382.162 152.82 382.228 152.708 382.327C152.618 382.405 152.572 382.507 152.572 382.624C152.572 382.654 152.575 382.686 152.581 382.718C152.609 382.875 152.696 382.99 152.837 383.049C152.92 383.084 153.021 383.101 153.138 383.101C153.218 383.101 153.306 383.093 153.402 383.078L155.054 382.817C155.056 382.844 155.058 382.872 155.058 382.899C155.058 382.995 155.04 383.089 155.005 383.182C154.956 383.31 154.833 383.493 154.638 383.725C154.583 383.789 154.498 383.888 154.384 384.022C153.938 384.527 153.619 384.957 153.426 385.315C153.426 385.315 153.426 385.315 153.426 385.315C153.426 385.315 153.426 385.315 153.426 385.315C153.289 385.562 153.194 385.805 153.142 386.044C153.111 386.183 153.096 386.317 153.096 386.445C153.096 386.537 153.104 386.626 153.119 386.712C153.142 386.836 153.175 386.938 153.219 387.018C153.262 387.099 153.319 387.159 153.388 387.195C153.452 387.227 153.547 387.24 153.677 387.241C153.842 387.241 154.065 387.218 154.347 387.173L156.137 386.886C156.454 386.835 156.675 386.765 156.803 386.666C156.906 386.587 156.959 386.479 156.958 386.352C156.958 386.32 156.955 386.287 156.948 386.252C156.933 386.169 156.901 386.099 156.85 386.042ZM155.332 384.492L155.332 384.492C155.332 384.492 155.332 384.492 155.332 384.492H155.332L155.332 384.492ZM178.593 385.857C178.335 386.148 177.989 386.292 177.541 386.293C177.09 386.292 176.742 386.148 176.483 385.859C176.224 385.569 176.094 385.17 176.094 384.658C176.094 384.137 176.224 383.732 176.481 383.44C176.738 383.148 177.088 383.003 177.541 383.002C177.989 383.003 178.335 383.148 178.593 383.44C178.85 383.732 178.98 384.137 178.98 384.658C178.98 385.167 178.85 385.566 178.593 385.857ZM179.975 383.637C179.842 383.324 179.645 383.044 179.384 382.797C179.135 382.559 178.855 382.379 178.545 382.259C178.236 382.138 177.901 382.078 177.541 382.078C177.179 382.078 176.841 382.138 176.529 382.259C176.217 382.379 175.937 382.559 175.69 382.797C175.43 383.042 175.234 383.321 175.104 383.634C174.973 383.947 174.908 384.288 174.908 384.657C174.908 385.022 174.974 385.362 175.106 385.677C175.237 385.992 175.432 386.274 175.69 386.524C175.932 386.758 176.209 386.934 176.519 387.054C176.83 387.173 177.171 387.232 177.541 387.232C177.898 387.232 178.232 387.173 178.543 387.054C178.854 386.934 179.135 386.758 179.384 386.524C179.645 386.274 179.842 385.993 179.975 385.679C180.108 385.365 180.174 385.024 180.174 384.657C180.174 384.29 180.108 383.95 179.975 383.637Z" fill="white"/>
    </g>
    <g clip-path="url(#clip4_2253_1667)">
    <mask id="mask1_2253_1667" style="mask-type:luminance" maskUnits="userSpaceOnUse" x="54" y="100" width="24" height="24">
    <path d="M54.4785 100.46H77.5356V123.517H54.4785V100.46Z" fill="white"/>
    </mask>
    <g mask="url(#mask1_2253_1667)">
    <path d="M66.0008 119.97C70.4022 119.97 73.9702 116.402 73.9702 112C73.9702 107.599 70.4022 104.031 66.0008 104.031C61.5993 104.031 58.0312 107.599 58.0312 112C58.0312 116.402 61.5993 119.97 66.0008 119.97Z" fill="#1AB4D7"/>
    <path d="M61.8469 111.977L63.2069 110.614C63.252 110.568 63.2772 110.507 63.2772 110.443C63.2772 110.308 63.1679 110.199 63.0334 110.199C62.9679 110.199 62.9065 110.225 62.8602 110.271C62.86 110.272 61.5013 111.63 61.5013 111.63L60.1364 110.269C60.0903 110.224 60.0292 110.199 59.9644 110.199C59.8301 110.199 59.7207 110.308 59.7207 110.442C59.7207 110.508 59.7469 110.569 59.7938 110.616L61.1537 111.975L59.7945 113.337C59.7468 113.384 59.7207 113.446 59.7207 113.512C59.7207 113.646 59.8301 113.755 59.9644 113.755C60.0293 113.755 60.0904 113.73 60.1364 113.684L61.4992 112.323L62.8568 113.679C62.905 113.729 62.9671 113.755 63.0334 113.755C63.1677 113.755 63.2771 113.646 63.2771 113.512C63.2771 113.447 63.2519 113.386 63.2062 113.34L61.8469 111.977Z" fill="white"/>
    <path d="M69.9316 111.977C69.9316 112.221 70.1302 112.419 70.3747 112.419C70.6186 112.419 70.8172 112.221 70.8172 111.977C70.8172 111.732 70.6186 111.534 70.3747 111.534C70.1302 111.534 69.9316 111.732 69.9316 111.977Z" fill="white"/>
    <path d="M69.0924 111.977C69.0924 111.27 69.6676 110.695 70.3748 110.695C71.0816 110.695 71.657 111.27 71.657 111.977C71.657 112.684 71.0816 113.259 70.3748 113.259C69.6676 113.259 69.0924 112.684 69.0924 111.977ZM68.5879 111.977C68.5879 112.962 69.3895 113.764 70.3748 113.764C71.3601 113.764 72.1621 112.962 72.1621 111.977C72.1621 110.992 71.3601 110.19 70.3748 110.19C69.3895 110.19 68.5879 110.992 68.5879 111.977Z" fill="white"/>
    <path d="M68.4613 110.22L68.3863 110.22C68.1612 110.22 67.9441 110.291 67.7628 110.431C67.739 110.322 67.6412 110.239 67.5248 110.239C67.3909 110.239 67.2835 110.347 67.2832 110.481C67.2832 110.481 67.284 113.49 67.284 113.49C67.2844 113.624 67.3937 113.733 67.5277 113.733C67.6617 113.733 67.771 113.624 67.7714 113.49C67.7714 113.49 67.7715 111.64 67.7715 111.64C67.7715 111.023 67.8279 110.774 68.3562 110.708C68.405 110.702 68.4581 110.703 68.4584 110.703C68.6029 110.698 68.7057 110.598 68.7057 110.464C68.7057 110.33 68.596 110.22 68.4613 110.22Z" fill="white"/>
    <path d="M63.7807 111.683C63.7807 111.676 63.7813 111.669 63.7816 111.663C63.9231 111.103 64.4296 110.689 65.0328 110.689C65.6433 110.689 66.1544 111.113 66.2887 111.683H63.7807ZM66.7877 111.637C66.6827 111.14 66.4105 110.731 65.996 110.469C65.3901 110.085 64.5901 110.106 64.0049 110.522C63.5275 110.862 63.252 111.417 63.252 111.989C63.252 112.133 63.2693 112.278 63.3053 112.42C63.4855 113.129 64.0951 113.666 64.8218 113.755C65.0375 113.781 65.2474 113.769 65.4648 113.712C65.6515 113.667 65.8323 113.591 65.9988 113.484C66.1717 113.373 66.3161 113.227 66.4559 113.051C66.4587 113.048 66.4616 113.045 66.4644 113.042C66.5615 112.922 66.5435 112.75 66.4368 112.669C66.3468 112.6 66.1958 112.572 66.077 112.724C66.0514 112.76 66.0229 112.798 65.9916 112.835C65.8971 112.94 65.7798 113.041 65.6394 113.119C65.4606 113.215 65.2569 113.269 65.0404 113.271C64.3316 113.263 63.9523 112.768 63.8173 112.415C63.7938 112.349 63.7756 112.28 63.763 112.21C63.7613 112.197 63.7601 112.184 63.7596 112.172C63.9061 112.172 66.3032 112.172 66.3032 112.172C66.6519 112.165 66.8395 111.918 66.7877 111.637Z" fill="white"/>
    </g>
    </g>
    <g clip-path="url(#clip5_2253_1667)">
    <path d="M250.288 218.787C249.292 219.194 248.212 219.349 247.142 219.24C246.072 219.131 245.045 218.761 244.152 218.163C243.259 217.564 242.527 216.755 242.021 215.807C241.515 214.86 241.251 213.802 241.251 212.728C241.251 211.654 241.515 210.597 242.021 209.649C242.527 208.701 243.259 207.893 244.152 207.294C245.045 206.695 246.072 206.325 247.142 206.216C248.212 206.107 249.292 206.263 250.288 206.669C251.333 204.059 253.032 201.761 255.222 199.995C253.264 198.859 251.071 198.189 248.812 198.036C246.553 197.883 244.289 198.251 242.196 199.112C240.102 199.973 238.235 201.303 236.739 203C235.244 204.697 234.159 206.715 233.57 208.898C232.981 211.081 232.904 213.37 233.343 215.587C233.782 217.805 234.727 219.892 236.104 221.686C237.481 223.481 239.253 224.935 241.284 225.935C243.314 226.936 245.548 227.456 247.812 227.457C250.415 227.46 252.973 226.771 255.222 225.462C253.032 223.695 251.333 221.397 250.288 218.787Z" fill="black" fill-opacity="0.5"/>
    <path d="M267.989 218.787C266.994 219.193 265.913 219.348 264.844 219.238C263.774 219.129 262.747 218.758 261.855 218.16C260.962 217.561 260.231 216.752 259.725 215.804C259.219 214.857 258.955 213.799 258.955 212.726C258.955 211.652 259.219 210.595 259.725 209.647C260.231 208.699 260.962 207.89 261.855 207.292C262.747 206.693 263.774 206.322 264.844 206.213C265.913 206.103 266.994 206.258 267.989 206.664C269.034 204.055 270.732 201.758 272.921 199.993C270.964 198.858 268.77 198.188 266.512 198.036C264.253 197.883 261.99 198.251 259.897 199.112C257.804 199.974 255.937 201.304 254.442 203.001C252.946 204.698 251.862 206.716 251.273 208.898C250.685 211.081 250.607 213.369 251.046 215.587C251.485 217.804 252.43 219.891 253.806 221.685C255.183 223.479 256.955 224.933 258.984 225.934C261.014 226.935 263.247 227.456 265.511 227.457C268.115 227.46 270.672 226.771 272.921 225.462C270.732 223.696 269.033 221.397 267.989 218.787Z" fill="black" fill-opacity="0.5"/>
    <path d="M267.99 218.788C266.795 219.277 265.481 219.402 264.215 219.147C262.948 218.893 261.786 218.27 260.873 217.357L273.54 230H282.812L281.842 229.032C278.808 228.777 275.905 227.683 273.458 225.874C271.012 224.065 269.118 221.611 267.99 218.788Z" fill="black"/>
    <path d="M278.578 217.357C277.353 216.128 276.667 214.465 276.669 212.731C276.671 210.998 277.362 209.336 278.59 208.111C279.817 206.885 281.482 206.196 283.218 206.194C284.954 206.192 286.62 206.877 287.85 208.1L297.198 217.433C298.353 214.009 298.207 210.28 296.788 206.956C295.369 203.631 292.775 200.944 289.501 199.405C286.227 197.866 282.5 197.582 279.03 198.608C275.559 199.634 272.588 201.897 270.68 204.968C268.773 208.039 268.062 211.703 268.684 215.263C269.306 218.822 271.217 222.03 274.053 224.274C276.889 226.519 280.453 227.644 284.066 227.436C287.679 227.228 291.09 225.702 293.649 223.146L287.854 217.361C287.245 217.969 286.522 218.451 285.726 218.78C284.93 219.109 284.077 219.278 283.215 219.278C282.354 219.278 281.501 219.108 280.705 218.778C279.909 218.448 279.186 217.965 278.578 217.357Z" fill="black" fill-opacity="0.5"/>
    <path d="M287.85 217.357C287.242 217.965 286.519 218.447 285.723 218.776C284.928 219.105 284.075 219.274 283.214 219.274C282.353 219.274 281.501 219.105 280.705 218.776C279.91 218.447 279.187 217.965 278.578 217.357L291.242 230H300.513L287.85 217.357Z" fill="black"/>
    <path d="M231.727 215.878C230.664 215.685 229.586 215.588 228.506 215.586C226.084 215.583 223.686 216.069 221.457 217.015C219.227 217.961 217.213 219.347 215.533 221.09L221.907 227.453C222.75 226.548 223.771 225.826 224.906 225.332C226.041 224.838 227.265 224.583 228.504 224.583C229.742 224.583 230.967 224.838 232.102 225.332C233.237 225.826 234.258 226.548 235.101 227.453L237.287 225.271C234.411 222.868 232.448 219.552 231.727 215.878Z" fill="black"/>
    <path d="M231.42 212.728C231.418 210.335 231.942 207.971 232.957 205.803C233.971 203.635 235.45 201.717 237.29 200.183L235.104 198L215.533 221.09L221.907 227.454L231.723 215.871C231.521 214.835 231.42 213.783 231.42 212.728Z" fill="black" fill-opacity="0.5"/>
    <path d="M237.29 200.183L235.104 198C234.261 198.906 233.241 199.629 232.105 200.123C230.97 200.617 229.745 200.871 228.506 200.87C227.267 200.872 226.042 200.618 224.906 200.124C223.77 199.63 222.749 198.907 221.907 198L215.533 204.364C217.213 206.106 219.227 207.492 221.457 208.438C223.686 209.384 226.084 209.87 228.506 209.867C229.586 209.866 230.664 209.768 231.727 209.574C232.449 205.9 234.413 202.585 237.29 200.183Z" fill="black"/>
    </g>
    </g>
    <defs>
    <linearGradient id="paint0_linear_2253_1667" x1="342.813" y1="263.54" x2="224.011" y2="122.61" gradientUnits="userSpaceOnUse">
    <stop/>
    <stop offset="1" stop-opacity="0"/>
    </linearGradient>
    <linearGradient id="paint1_linear_2253_1667" x1="172.058" y1="263.54" x2="290.86" y2="122.61" gradientUnits="userSpaceOnUse">
    <stop/>
    <stop offset="1" stop-opacity="0"/>
    </linearGradient>
    <linearGradient id="paint2_linear_2253_1667" x1="177.639" y1="381.307" x2="177.639" y2="387.743" gradientUnits="userSpaceOnUse">
    <stop stop-color="#FFE500"/>
    <stop offset="1" stop-color="#FCB822"/>
    </linearGradient>
    <linearGradient id="paint3_linear_2253_1667" x1="166.912" y1="381.988" x2="173.299" y2="387.471" gradientUnits="userSpaceOnUse">
    <stop stop-color="#168CCC"/>
    <stop offset="1" stop-color="#00649E"/>
    </linearGradient>
    <linearGradient id="paint4_linear_2253_1667" x1="163.025" y1="382.165" x2="163.025" y2="387.803" gradientUnits="userSpaceOnUse">
    <stop stop-color="#25A149"/>
    <stop offset="1" stop-color="#008A52"/>
    </linearGradient>
    <linearGradient id="paint5_linear_2253_1667" x1="154.282" y1="381.613" x2="155.192" y2="387.486" gradientUnits="userSpaceOnUse">
    <stop stop-color="#D92231"/>
    <stop offset="1" stop-color="#BA2234"/>
    </linearGradient>
    <clipPath id="clip0_2253_1667">
    <rect width="515" height="446" fill="white"/>
    </clipPath>
    <clipPath id="clip1_2253_1667">
    <rect width="16" height="16" fill="white" transform="translate(332 374)"/>
    </clipPath>
    <clipPath id="clip2_2253_1667">
    <rect width="27" height="27" fill="white" transform="translate(370 207)"/>
    </clipPath>
    <clipPath id="clip3_2253_1667">
    <rect width="31" height="10" fill="white" transform="translate(151 378)"/>
    </clipPath>
    <clipPath id="clip4_2253_1667">
    <rect width="16" height="16" fill="white" transform="translate(58 104)"/>
    </clipPath>
    <clipPath id="clip5_2253_1667">
    <rect width="86" height="32" fill="white" transform="translate(215 198)"/>
    </clipPath>
    </defs>
    </svg>
    