<svg width="515" height="446" viewBox="0 0 515 446" fill="none" xmlns="http://www.w3.org/2000/svg">
    <g clip-path="url(#clip0_2253_1789)">
    <path d="M333.418 274.483C283.741 321.76 230.204 358.759 183.822 380.367C160.629 391.171 139.252 398.115 121.058 400.583C102.864 403.052 87.9222 401.037 77.4964 394.005C67.0706 386.973 62.0464 375.52 61.9812 360.735C61.9161 345.952 66.8126 327.892 76.1482 307.74C94.8179 267.44 131.198 218.868 180.875 171.592C230.552 124.315 284.089 87.3162 330.471 65.7084C353.664 54.9036 375.041 47.96 393.235 45.4917C411.429 43.0232 426.371 45.0378 436.796 52.07C447.222 59.1023 452.246 70.5548 452.312 85.3396C452.377 100.123 447.48 118.183 438.145 138.335C419.475 178.635 383.095 227.207 333.418 274.483Z" stroke="url(#paint0_linear_2253_1789)" stroke-opacity="0.4"/>
    <path d="M181.453 274.483C231.131 321.76 284.667 358.759 331.05 380.367C354.242 391.171 375.62 398.115 393.813 400.583C412.007 403.052 426.949 401.037 437.375 394.005C447.8 386.973 452.825 375.52 452.89 360.735C452.955 345.952 448.059 327.892 438.723 307.74C420.053 267.44 383.673 218.868 333.996 171.592C284.319 124.315 230.782 87.3162 184.4 65.7084C161.207 54.9036 139.83 47.96 121.636 45.4917C103.442 43.0232 88.5004 45.0378 78.0747 52.07C67.6489 59.1023 62.6247 70.5548 62.5595 85.3396C62.4944 100.123 67.3908 118.183 76.7265 138.335C95.3962 178.635 131.776 227.207 181.453 274.483Z" stroke="url(#paint1_linear_2253_1789)" stroke-opacity="0.4"/>
    <g clip-path="url(#clip1_2253_1789)">
    <path d="M250.288 218.787C249.292 219.194 248.212 219.349 247.142 219.24C246.072 219.131 245.045 218.761 244.152 218.163C243.259 217.564 242.527 216.755 242.021 215.807C241.515 214.86 241.251 213.802 241.251 212.728C241.251 211.654 241.515 210.597 242.021 209.649C242.527 208.701 243.259 207.893 244.152 207.294C245.045 206.695 246.072 206.325 247.142 206.216C248.212 206.107 249.292 206.263 250.288 206.669C251.333 204.059 253.032 201.761 255.222 199.995C253.264 198.859 251.071 198.189 248.812 198.036C246.553 197.883 244.289 198.251 242.196 199.112C240.102 199.973 238.235 201.303 236.739 203C235.244 204.697 234.159 206.715 233.57 208.898C232.981 211.081 232.904 213.37 233.343 215.587C233.782 217.805 234.727 219.892 236.104 221.686C237.481 223.481 239.253 224.935 241.284 225.935C243.314 226.936 245.548 227.456 247.812 227.457C250.415 227.46 252.973 226.771 255.222 225.462C253.032 223.695 251.333 221.397 250.288 218.787Z" fill="black" fill-opacity="0.5"/>
    <path d="M267.989 218.787C266.994 219.193 265.913 219.348 264.844 219.238C263.774 219.129 262.747 218.758 261.855 218.16C260.962 217.561 260.231 216.752 259.725 215.804C259.219 214.857 258.955 213.799 258.955 212.726C258.955 211.652 259.219 210.595 259.725 209.647C260.231 208.699 260.962 207.89 261.855 207.292C262.747 206.693 263.774 206.322 264.844 206.213C265.913 206.103 266.994 206.258 267.989 206.664C269.034 204.055 270.732 201.758 272.921 199.993C270.964 198.858 268.77 198.188 266.512 198.036C264.253 197.883 261.99 198.251 259.897 199.112C257.804 199.974 255.937 201.304 254.442 203.001C252.946 204.698 251.862 206.716 251.273 208.898C250.685 211.081 250.607 213.369 251.046 215.587C251.485 217.804 252.43 219.891 253.806 221.685C255.183 223.479 256.955 224.933 258.984 225.934C261.014 226.935 263.247 227.456 265.511 227.457C268.115 227.46 270.672 226.771 272.921 225.462C270.732 223.696 269.033 221.397 267.989 218.787Z" fill="black" fill-opacity="0.5"/>
    <path d="M267.99 218.788C266.795 219.277 265.481 219.402 264.215 219.147C262.948 218.893 261.786 218.27 260.873 217.357L273.54 230H282.812L281.842 229.032C278.808 228.777 275.905 227.683 273.458 225.874C271.012 224.065 269.118 221.611 267.99 218.788Z" fill="black"/>
    <path d="M278.578 217.357C277.353 216.128 276.667 214.465 276.669 212.731C276.671 210.998 277.362 209.336 278.59 208.111C279.817 206.885 281.482 206.196 283.218 206.194C284.954 206.192 286.62 206.877 287.85 208.1L297.198 217.433C298.353 214.009 298.207 210.28 296.788 206.956C295.369 203.631 292.775 200.944 289.501 199.405C286.227 197.866 282.5 197.582 279.03 198.608C275.559 199.634 272.588 201.897 270.68 204.968C268.773 208.039 268.062 211.703 268.684 215.263C269.306 218.822 271.217 222.03 274.053 224.274C276.889 226.519 280.453 227.644 284.066 227.436C287.679 227.228 291.09 225.702 293.649 223.146L287.854 217.361C287.245 217.969 286.522 218.451 285.726 218.78C284.93 219.109 284.077 219.278 283.215 219.278C282.354 219.278 281.501 219.108 280.705 218.778C279.909 218.448 279.186 217.965 278.578 217.357Z" fill="black" fill-opacity="0.5"/>
    <path d="M287.85 217.357C287.242 217.965 286.519 218.447 285.723 218.776C284.928 219.105 284.075 219.274 283.214 219.274C282.353 219.274 281.501 219.105 280.705 218.776C279.91 218.447 279.187 217.965 278.578 217.357L291.242 230H300.513L287.85 217.357Z" fill="black"/>
    <path d="M231.727 215.878C230.664 215.685 229.586 215.588 228.506 215.586C226.084 215.583 223.686 216.069 221.457 217.015C219.227 217.961 217.213 219.347 215.533 221.09L221.907 227.453C222.75 226.548 223.771 225.826 224.906 225.332C226.041 224.838 227.265 224.583 228.504 224.583C229.742 224.583 230.967 224.838 232.102 225.332C233.237 225.826 234.258 226.548 235.101 227.453L237.287 225.271C234.411 222.868 232.448 219.552 231.727 215.878Z" fill="black"/>
    <path d="M231.42 212.728C231.418 210.335 231.942 207.971 232.957 205.803C233.971 203.635 235.45 201.717 237.29 200.183L235.104 198L215.533 221.09L221.907 227.454L231.723 215.871C231.521 214.835 231.42 213.783 231.42 212.728Z" fill="black" fill-opacity="0.5"/>
    <path d="M237.29 200.183L235.104 198C234.261 198.906 233.241 199.629 232.105 200.123C230.97 200.617 229.745 200.871 228.506 200.87C227.267 200.872 226.042 200.618 224.906 200.124C223.77 199.63 222.749 198.907 221.907 198L215.533 204.364C217.213 206.106 219.227 207.492 221.457 208.438C223.686 209.384 226.084 209.87 228.506 209.867C229.586 209.866 230.664 209.768 231.727 209.574C232.449 205.9 234.413 202.585 237.29 200.183Z" fill="black"/>
    </g>
    <rect x="71" y="145" width="40" height="40" rx="20" fill="#FFF400"/>
    <path d="M96.55 156.505C100.11 156.505 101 157.385 101 160.895V169.105C101 172.615 100.11 173.495 96.56 173.495H85.44C81.89 173.505 81 172.625 81 169.115V160.895C81 157.385 81.89 156.505 85.44 156.505H96.55Z" fill="black"/>
    <mask id="mask0_2253_1789" style="mask-type:alpha" maskUnits="userSpaceOnUse" x="81" y="156" width="20" height="18">
    <path d="M96.55 156.505C100.11 156.505 101 157.385 101 160.895V169.105C101 172.615 100.11 173.495 96.56 173.495H85.44C81.89 173.505 81 172.625 81 169.115V160.895C81 157.385 81.89 156.505 85.44 156.505H96.55Z" fill="#FFF400"/>
    </mask>
    <g mask="url(#mask0_2253_1789)">
    <path d="M80.1426 161.505H101.857" stroke="#FFF62D" stroke-width="1.5" stroke-linecap="round" stroke-linejoin="round"/>
    </g>
    <path d="M85 169.505H87" stroke="#FFF400" stroke-width="1.5" stroke-linecap="round" stroke-linejoin="round"/>
    <path d="M89.5 169.505H93.5" stroke="#FFF400" stroke-width="1.5" stroke-linecap="round" stroke-linejoin="round"/>
    <rect x="340" y="368" width="40" height="40" rx="20" fill="black"/>
    <path d="M358.125 394.333H361.875V380.333C361.875 379.417 361.5 378.667 360.375 378.667H359.625C358.5 378.667 358.125 379.417 358.125 380.333V394.333Z" fill="#DE4C66" stroke="#DE4C66" stroke-width="1.5" stroke-linecap="round" stroke-linejoin="round"/>
    <path d="M364.168 394.333H367.501V388.5C367.501 387.583 367.168 386.833 366.168 386.833H365.501C364.501 386.833 364.168 387.583 364.168 388.5V394.333Z" fill="#6FDDAF" stroke="#6FDDAF" stroke-width="1.5" stroke-linecap="round" stroke-linejoin="round"/>
    <path d="M351.666 395.333H368.333" stroke="#FFF62D" stroke-width="1.5" stroke-linecap="round" stroke-linejoin="round"/>
    <path d="M352.5 395.333H355.833V385.333C355.833 384.417 355.5 383.667 354.5 383.667H353.833C352.833 383.667 352.5 384.417 352.5 385.333V395.333Z" fill="#FFF62D" stroke="#FFF62D" stroke-width="1.5" stroke-linecap="round" stroke-linejoin="round"/>
    <rect x="431" y="128" width="16" height="16" rx="8" fill="black"/>
    <path fill-rule="evenodd" clip-rule="evenodd" d="M436.004 133.004C435.693 133.314 435.5 133.849 435.5 134.8V137.2C435.5 138.151 435.693 138.686 436.004 138.996C436.314 139.307 436.849 139.5 437.8 139.5H440.2C441.151 139.5 441.686 139.307 441.996 138.996C442.307 138.686 442.5 138.151 442.5 137.2V135.7H441.4C440.772 135.7 440.195 135.602 439.796 135.204C439.398 134.805 439.3 134.228 439.3 133.6V132.5H437.8C436.849 132.5 436.314 132.693 436.004 133.004ZM440.3 133.207L441.793 134.7H441.4C440.828 134.7 440.605 134.598 440.504 134.496C440.402 134.395 440.3 134.172 440.3 133.6V133.207ZM435.296 132.296C435.886 131.707 436.751 131.5 437.8 131.5H439.8C439.933 131.5 440.06 131.553 440.154 131.646L443.354 134.846C443.447 134.94 443.5 135.067 443.5 135.2V137.2C443.5 138.249 443.293 139.114 442.704 139.704C442.114 140.293 441.249 140.5 440.2 140.5H437.8C436.751 140.5 435.886 140.293 435.296 139.704C434.707 139.114 434.5 138.249 434.5 137.2V134.8C434.5 133.751 434.707 132.886 435.296 132.296ZM436.7 136.8C436.7 136.524 436.924 136.3 437.2 136.3H439.2C439.476 136.3 439.7 136.524 439.7 136.8C439.7 137.076 439.476 137.3 439.2 137.3H437.2C436.924 137.3 436.7 137.076 436.7 136.8Z" fill="white"/>
    <rect x="149" y="382" width="16" height="16" rx="8" fill="black"/>
    <path fill-rule="evenodd" clip-rule="evenodd" d="M155.957 386.442C156.152 386.637 156.153 386.954 155.958 387.149L154.805 388.304L160.4 388.304C160.676 388.304 160.9 388.528 160.9 388.804C160.9 389.08 160.676 389.304 160.4 389.304L153.6 389.304C153.397 389.304 153.215 389.182 153.138 388.995C153.06 388.809 153.103 388.594 153.246 388.451L155.25 386.443C155.445 386.247 155.761 386.247 155.957 386.442ZM153.1 391.196C153.1 390.92 153.323 390.696 153.6 390.696H160.4C160.602 390.696 160.784 390.818 160.861 391.004C160.939 391.191 160.896 391.406 160.754 391.549L158.75 393.557C158.554 393.753 158.238 393.753 158.042 393.558C157.847 393.363 157.847 393.046 158.042 392.851L159.194 391.696H153.6C153.323 391.696 153.1 391.472 153.1 391.196Z" fill="white"/>
    </g>
    <defs>
    <linearGradient id="paint0_linear_2253_1789" x1="342.813" y1="263.54" x2="224.011" y2="122.61" gradientUnits="userSpaceOnUse">
    <stop/>
    <stop offset="1" stop-opacity="0"/>
    </linearGradient>
    <linearGradient id="paint1_linear_2253_1789" x1="172.058" y1="263.54" x2="290.86" y2="122.61" gradientUnits="userSpaceOnUse">
    <stop/>
    <stop offset="1" stop-opacity="0"/>
    </linearGradient>
    <clipPath id="clip0_2253_1789">
    <rect width="515" height="446" fill="white"/>
    </clipPath>
    <clipPath id="clip1_2253_1789">
    <rect width="86" height="32" fill="white" transform="translate(215 198)"/>
    </clipPath>
    </defs>
    </svg>
    