<svg width="530" height="469" viewBox="0 0 530 469" fill="none" xmlns="http://www.w3.org/2000/svg">
    <path d="M125.5 235C125.5 297.054 141.151 353.209 166.43 393.835C191.712 434.468 226.576 459.5 265 459.5C303.424 459.5 338.288 434.468 363.57 393.835C388.849 353.209 404.5 297.054 404.5 235C404.5 172.946 388.849 116.791 363.57 76.1651C338.288 35.532 303.424 10.5 265 10.5C226.576 10.5 191.712 35.532 166.43 76.1651C141.151 116.791 125.5 172.946 125.5 235Z" stroke="url(#paint0_linear_2253_1743)" stroke-opacity="0.4"/>
    <path d="M195.25 355.81C248.99 386.837 305.448 401.361 353.27 399.782C401.101 398.203 440.211 380.526 459.423 347.25C478.635 313.974 474.388 271.265 451.84 229.053C429.297 186.848 388.49 145.216 334.75 114.189C281.01 83.1625 224.553 68.6392 176.73 70.218C128.9 71.797 89.7897 89.4735 70.5775 122.75C51.3654 156.026 55.6121 198.735 78.16 240.947C100.704 283.152 141.51 324.784 195.25 355.81Z" stroke="url(#paint1_linear_2253_1743)" stroke-opacity="0.4"/>
    <path d="M195.25 114.19C141.51 145.216 100.703 186.848 78.1595 229.053C55.6116 271.265 51.3649 313.974 70.5771 347.25C89.7892 380.526 128.899 398.203 176.73 399.782C224.552 401.361 281.01 386.838 334.75 355.811C388.49 324.784 429.296 283.152 451.84 240.947C474.388 198.735 478.635 156.026 459.422 122.75C440.21 89.4737 401.1 71.7972 353.27 70.2182C305.447 68.6394 248.99 83.1627 195.25 114.19Z" stroke="url(#paint2_linear_2253_1743)" stroke-opacity="0.4"/>
    <g clip-path="url(#clip0_2253_1743)">
    <path d="M258.288 239.787C257.292 240.194 256.212 240.349 255.142 240.24C254.072 240.131 253.045 239.761 252.152 239.163C251.259 238.564 250.527 237.755 250.021 236.807C249.515 235.86 249.251 234.802 249.251 233.728C249.251 232.654 249.515 231.597 250.021 230.649C250.527 229.701 251.259 228.893 252.152 228.294C253.045 227.695 254.072 227.325 255.142 227.216C256.212 227.107 257.292 227.263 258.288 227.669C259.333 225.059 261.032 222.761 263.222 220.995C261.264 219.859 259.071 219.189 256.812 219.036C254.553 218.883 252.289 219.251 250.196 220.112C248.102 220.973 246.235 222.303 244.739 224C243.244 225.697 242.159 227.715 241.57 229.898C240.981 232.081 240.904 234.37 241.343 236.587C241.782 238.805 242.727 240.892 244.104 242.686C245.481 244.481 247.253 245.935 249.284 246.935C251.314 247.936 253.548 248.456 255.812 248.457C258.415 248.46 260.973 247.771 263.222 246.462C261.032 244.695 259.333 242.397 258.288 239.787Z" fill="black" fill-opacity="0.5"/>
    <path d="M275.989 239.787C274.994 240.193 273.913 240.348 272.844 240.238C271.774 240.129 270.747 239.758 269.855 239.16C268.962 238.561 268.231 237.752 267.725 236.804C267.219 235.857 266.955 234.799 266.955 233.726C266.955 232.652 267.219 231.595 267.725 230.647C268.231 229.699 268.962 228.89 269.855 228.292C270.747 227.693 271.774 227.322 272.844 227.213C273.913 227.103 274.994 227.258 275.989 227.664C277.034 225.055 278.732 222.758 280.921 220.993C278.964 219.858 276.77 219.188 274.512 219.036C272.253 218.883 269.99 219.251 267.897 220.112C265.804 220.974 263.937 222.304 262.442 224.001C260.946 225.698 259.862 227.716 259.273 229.898C258.685 232.081 258.607 234.369 259.046 236.587C259.485 238.804 260.43 240.891 261.806 242.685C263.183 244.479 264.955 245.933 266.984 246.934C269.014 247.935 271.247 248.456 273.511 248.457C276.115 248.46 278.672 247.771 280.921 246.462C278.732 244.696 277.033 242.397 275.989 239.787Z" fill="black" fill-opacity="0.5"/>
    <path d="M275.99 239.788C274.795 240.277 273.481 240.402 272.215 240.147C270.948 239.893 269.786 239.27 268.873 238.357L281.54 251H290.812L289.842 250.032C286.808 249.777 283.905 248.683 281.458 246.874C279.012 245.065 277.118 242.611 275.99 239.788Z" fill="black"/>
    <path d="M286.578 238.357C285.353 237.128 284.667 235.465 284.669 233.731C284.671 231.998 285.362 230.336 286.59 229.111C287.817 227.885 289.482 227.196 291.218 227.194C292.954 227.192 294.62 227.877 295.85 229.1L305.198 238.433C306.353 235.009 306.207 231.28 304.788 227.956C303.369 224.631 300.775 221.944 297.501 220.405C294.227 218.866 290.5 218.582 287.03 219.608C283.559 220.634 280.588 222.897 278.68 225.968C276.773 229.039 276.062 232.703 276.684 236.263C277.306 239.822 279.217 243.03 282.053 245.274C284.889 247.519 288.453 248.644 292.066 248.436C295.679 248.228 299.09 246.702 301.649 244.146L295.854 238.361C295.245 238.969 294.522 239.451 293.726 239.78C292.93 240.109 292.077 240.278 291.215 240.278C290.354 240.278 289.501 240.108 288.705 239.778C287.909 239.448 287.186 238.965 286.578 238.357Z" fill="black" fill-opacity="0.5"/>
    <path d="M295.85 238.357C295.242 238.965 294.519 239.447 293.723 239.776C292.928 240.105 292.075 240.274 291.214 240.274C290.353 240.274 289.501 240.105 288.705 239.776C287.91 239.447 287.187 238.965 286.578 238.357L299.242 251H308.513L295.85 238.357Z" fill="black"/>
    <path d="M239.727 236.878C238.664 236.685 237.586 236.588 236.506 236.586C234.084 236.583 231.686 237.069 229.457 238.015C227.227 238.961 225.213 240.347 223.533 242.09L229.907 248.453C230.75 247.548 231.771 246.826 232.906 246.332C234.041 245.838 235.265 245.583 236.504 245.583C237.742 245.583 238.967 245.838 240.102 246.332C241.237 246.826 242.258 247.548 243.101 248.453L245.287 246.271C242.411 243.868 240.448 240.552 239.727 236.878Z" fill="black"/>
    <path d="M239.42 233.728C239.418 231.335 239.942 228.971 240.957 226.803C241.971 224.635 243.45 222.717 245.29 221.183L243.104 219L223.533 242.09L229.907 248.454L239.723 236.871C239.521 235.835 239.42 234.783 239.42 233.728Z" fill="black" fill-opacity="0.5"/>
    <path d="M245.29 221.183L243.104 219C242.261 219.906 241.241 220.629 240.105 221.123C238.97 221.617 237.745 221.871 236.506 221.87C235.267 221.872 234.042 221.618 232.906 221.124C231.77 220.63 230.749 219.907 229.907 219L223.533 225.364C225.213 227.106 227.227 228.492 229.457 229.438C231.686 230.384 234.084 230.87 236.506 230.867C237.586 230.866 238.664 230.768 239.727 230.574C240.449 226.9 242.413 223.585 245.29 221.183Z" fill="black"/>
    </g>
    <rect x="87" y="263" width="40" height="40" rx="20" fill="#FFF62D"/>
    <path fill-rule="evenodd" clip-rule="evenodd" d="M113.757 272.283C113.6 271.906 113.01 271.906 112.853 272.283C112.528 273.068 112.066 274.032 111.604 274.494C111.142 274.956 110.178 275.418 109.393 275.743C109.016 275.9 109.016 276.49 109.393 276.647C110.178 276.973 111.142 277.435 111.604 277.897C112.066 278.359 112.528 279.323 112.853 280.107C113.01 280.485 113.6 280.485 113.757 280.107C114.083 279.323 114.545 278.359 115.007 277.897C115.472 277.432 116.397 276.967 117.141 276.641C117.508 276.48 117.508 275.91 117.141 275.75C116.397 275.423 115.472 274.958 115.007 274.494C114.545 274.032 114.083 273.068 113.757 272.283ZM105.23 275.693C105.085 275.311 104.509 275.311 104.364 275.693C103.751 277.31 102.572 280.121 101.394 281.3C100.215 282.479 97.4034 283.657 95.7867 284.271C95.4044 284.416 95.4044 284.991 95.7867 285.136C97.4035 285.749 100.215 286.928 101.394 288.106C102.572 289.285 103.751 292.097 104.364 293.713C104.509 294.096 105.085 294.096 105.23 293.713C105.843 292.097 107.021 289.285 108.2 288.106C109.382 286.925 112.052 285.743 113.573 285.131C113.945 284.982 113.945 284.425 113.573 284.275C112.052 283.663 109.382 282.482 108.2 281.3C107.021 280.121 105.843 277.31 105.23 275.693Z" fill="black"/>
    <rect x="184" y="375" width="40" height="40" rx="20" fill="#A9C0D1"/>
    <path d="M195.658 389.942V388.683C195.658 387.833 196.35 387.142 197.2 387.142H207.967C208.817 387.142 209.508 387.833 209.508 388.683V389.942M202.583 400.083V387.767M199.75 400.083H204.4M205.4 393.617H211.241C211.85 393.617 212.341 394.108 212.341 394.717V395.383M207.4 402.858V394.058M205.616 402.858H209.183" stroke="black" stroke-width="1.5" stroke-linecap="round" stroke-linejoin="round"/>
    <rect x="356" y="81" width="40" height="40" rx="20" fill="#A9C0D1"/>
    <path d="M384.333 101C384.333 96.3998 380.599 92.6665 375.999 92.6665C371.399 92.6665 367.666 96.3998 367.666 101C367.666 105.6 371.399 109.333 375.999 109.333M372.666 93.4998H373.499C371.874 98.3665 371.874 103.633 373.499 108.5H372.666M378.499 93.4998C379.308 95.9332 379.716 98.4665 379.716 101M368.499 104.333V103.5C370.933 104.308 373.466 104.717 375.999 104.717M368.499 98.4999C373.366 96.8749 378.633 96.8749 383.499 98.4999M384.333 109.333L383.499 108.5M381.166 108.833C379.693 108.833 378.499 107.639 378.499 106.167C378.499 104.694 379.693 103.5 381.166 103.5C382.639 103.5 383.833 104.694 383.833 106.167C383.833 107.639 382.639 108.833 381.166 108.833Z" stroke="black" stroke-width="1.5" stroke-linecap="round" stroke-linejoin="round"/>
    <rect x="425" y="243" width="40" height="40" rx="20" fill="black"/>
    <rect x="435" y="253" width="8.88889" height="8.88889" rx="2" fill="#6FDDAF"/>
    <rect x="446.111" y="264.111" width="8.88889" height="8.88889" rx="2" fill="#FFF400"/>
    <rect x="435" y="264.111" width="8.88889" height="8.88889" rx="2" fill="#DE4C66"/>
    <rect x="446.111" y="253" width="8.88889" height="8.88889" rx="2" fill="#4F9BF6"/>
    <rect x="65" y="111" width="16" height="16" rx="8" fill="black"/>
    <path d="M74.196 121.2H74.8C76.008 121.2 77 120.212 77 119C77 117.792 76.012 116.8 74.8 116.8H74.196M71.8 116.8H71.2C69.988 116.8 69 117.788 69 119C69 120.208 69.988 121.2 71.2 121.2H71.8M71.4 119H74.6" stroke="white" stroke-linecap="round" stroke-linejoin="round"/>
    <rect x="389" y="385" width="16" height="16" rx="8" fill="black"/>
    <path d="M394.7 390.7L399.3 395.3M399.3 390.7L394.7 395.3M398.024 396.576C397.464 397.136 396.544 397.136 395.98 396.576L393.424 394.02C392.864 393.46 392.864 392.54 393.424 391.976L395.98 389.42C396.54 388.86 397.46 388.86 398.024 389.42L400.58 391.976C401.14 392.54 401.14 393.46 400.58 394.02L398.024 396.576Z" stroke="white" stroke-linecap="round" stroke-linejoin="round"/>
    <defs>
    <linearGradient id="paint0_linear_2253_1743" x1="396.008" y1="295.862" x2="170.121" y2="220.497" gradientUnits="userSpaceOnUse">
    <stop/>
    <stop offset="1" stop-opacity="0"/>
    </linearGradient>
    <linearGradient id="paint1_linear_2253_1743" x1="185" y1="347" x2="302.455" y2="83.5405" gradientUnits="userSpaceOnUse">
    <stop/>
    <stop offset="1" stop-opacity="0"/>
    </linearGradient>
    <linearGradient id="paint2_linear_2253_1743" x1="277.796" y1="378.887" x2="161.337" y2="124.473" gradientUnits="userSpaceOnUse">
    <stop/>
    <stop offset="1" stop-opacity="0"/>
    </linearGradient>
    <clipPath id="clip0_2253_1743">
    <rect width="86" height="32" fill="white" transform="translate(223 219)"/>
    </clipPath>
    </defs>
    </svg>
    