<svg width="86" height="32" viewBox="0 0 86 32" fill="none" xmlns="http://www.w3.org/2000/svg">
<g clip-path="url(#clip0_2109_1230)">
<path d="M35.2878 20.7873C34.2922 21.1937 33.2118 21.3493 32.1417 21.2404C31.0717 21.1314 30.0449 20.7613 29.1519 20.1626C28.259 19.5639 27.5273 18.755 27.0213 17.8073C26.5154 16.8596 26.2507 15.8021 26.2507 14.7282C26.2507 13.6543 26.5154 12.5968 27.0213 11.6491C27.5273 10.7014 28.259 9.89253 29.1519 9.29383C30.0449 8.69513 31.0717 8.32499 32.1417 8.21603C33.2118 8.10708 34.2922 8.26266 35.2878 8.66906C36.3329 6.0591 38.0319 3.7609 40.2219 1.9948C38.2642 0.859253 36.0709 0.188943 33.812 0.0357914C31.553 -0.11736 29.2891 0.25076 27.1956 1.11163C25.1021 1.97251 23.2351 3.30302 21.7394 5.00011C20.2437 6.6972 19.1593 8.7153 18.5703 10.8981C17.9813 13.0809 17.9035 15.3697 18.3429 17.5874C18.7823 19.805 19.7271 21.8919 21.1042 23.6863C22.4812 25.4808 24.2535 26.9346 26.2837 27.9352C28.314 28.9359 30.5477 29.4564 32.8118 29.4566C35.4153 29.4596 37.9728 28.7711 40.2219 27.4616C38.0321 25.6952 36.3332 23.3971 35.2878 20.7873Z" fill="black" fill-opacity="0.5"/>
<path d="M52.9894 20.7873C51.9937 21.193 50.9134 21.3479 49.8436 21.2384C48.7738 21.1289 47.7474 20.7584 46.8548 20.1596C45.9622 19.5607 45.2308 18.7518 44.7252 17.8042C44.2195 16.8565 43.955 15.7993 43.955 14.7255C43.955 13.6518 44.2195 12.5945 44.7252 11.6469C45.2308 10.6993 45.9622 9.89042 46.8548 9.29153C47.7474 8.69264 48.7738 8.32213 49.8436 8.21266C50.9134 8.10319 51.9937 8.2581 52.9894 8.66376C54.034 6.05502 55.7323 3.75793 57.9214 1.99267C55.9636 0.85786 53.7705 0.188205 51.5118 0.0355722C49.2532 -0.11706 46.9897 0.251425 44.8966 1.11249C42.8035 1.97356 40.9371 3.3041 39.4417 5.00106C37.9463 6.69803 36.8622 8.71589 36.2734 10.8984C35.6845 13.0808 35.6067 15.3694 36.0459 17.5867C36.4851 19.804 37.4296 21.8906 38.8063 23.685C40.1829 25.4793 41.9547 26.9332 43.9844 27.9341C46.0142 28.9349 48.2475 29.4559 50.5112 29.4566C53.1148 29.4596 55.6723 28.7711 57.9214 27.4616C55.7318 25.6956 54.0334 23.3973 52.9894 20.7873Z" fill="black" fill-opacity="0.5"/>
<path d="M52.99 20.7877C51.7946 21.2766 50.4812 21.4017 49.2148 21.1471C47.9484 20.8925 46.7857 20.2697 45.873 19.3569L58.5402 32.0002H67.8124L66.8415 31.0319C63.8077 30.7769 60.905 29.6834 58.4585 27.8741C56.012 26.0647 54.1185 23.611 52.99 20.7877Z" fill="black"/>
<path d="M63.5778 19.3568C62.3533 18.1281 61.6669 16.4646 61.6692 14.7313C61.6714 12.998 62.3621 11.3363 63.5897 10.1107C64.8173 8.88517 66.4816 8.19576 68.2176 8.19374C69.9536 8.19172 71.6196 8.87725 72.85 10.1L82.1977 19.4331C83.3529 16.0087 83.2071 12.2797 81.788 8.95556C80.3688 5.63146 77.7753 2.9442 74.501 1.40501C71.2266 -0.134172 67.4998 -0.417879 64.0295 0.607866C60.5593 1.63361 57.5878 3.89723 55.6803 6.96809C53.7728 10.0389 53.0624 13.7028 53.6843 17.2625C54.3062 20.8223 56.217 24.0296 59.0532 26.2742C61.8894 28.5189 65.453 29.6443 69.0661 29.4364C72.6792 29.2285 76.0897 27.7017 78.6488 25.1465L72.8543 19.361C72.2451 19.9692 71.5218 20.4515 70.7258 20.7804C69.9298 21.1094 69.0767 21.2785 68.2152 21.2781C67.3537 21.2777 66.5007 21.1078 65.705 20.7781C64.9093 20.4485 64.1865 19.9655 63.5778 19.3568Z" fill="black" fill-opacity="0.5"/>
<path d="M72.8504 19.3569C72.2416 19.9649 71.5188 20.4471 70.7233 20.7761C69.9278 21.1051 69.0753 21.2744 68.2142 21.2744C67.3532 21.2744 66.5006 21.1051 65.7052 20.7761C64.9097 20.4471 64.1869 19.9649 63.5781 19.3569L76.2421 32.0002H85.5132L72.8504 19.3569Z" fill="black"/>
<path d="M16.7269 17.8781C15.6642 17.6855 14.5864 17.5879 13.5063 17.5864C11.084 17.5835 8.68614 18.0694 6.45677 19.0152C4.22739 19.9609 2.21251 21.3469 0.533203 23.0898L6.9066 29.4533C7.74964 28.548 8.77056 27.8259 9.90561 27.3321C11.0407 26.8383 12.2655 26.5835 13.5036 26.5835C14.7417 26.5835 15.9665 26.8383 17.1016 27.3321C18.2366 27.8259 19.2576 28.548 20.1006 29.4533L22.2867 27.2707C19.4107 24.868 17.4481 21.5523 16.7269 17.8781Z" fill="black"/>
<path d="M16.42 14.7284C16.4178 12.3355 16.9425 9.97139 17.9568 7.80341C18.9712 5.63544 20.4504 3.71659 22.2899 2.18269L20.1038 0L0.533203 23.09L6.9066 29.4535L16.7227 17.8709C16.521 16.8355 16.4197 15.7831 16.42 14.7284Z" fill="black" fill-opacity="0.5"/>
<path d="M22.2899 2.18269L20.1038 0C19.2614 0.906293 18.2405 1.62903 17.1052 2.12289C15.9699 2.61676 14.7446 2.87109 13.5063 2.86995C12.2675 2.87164 11.0417 2.61756 9.906 2.12367C8.77028 1.62979 7.7491 0.906759 6.9066 0L0.533203 6.36352C2.21251 8.10644 4.22739 9.49241 6.45677 10.4382C8.68614 11.3839 11.084 11.8699 13.5063 11.8669C14.5864 11.8656 15.6643 11.7677 16.7269 11.5742C17.4493 7.89994 19.413 4.58467 22.2899 2.18269Z" fill="black"/>
</g>
<defs>
<clipPath id="clip0_2109_1230">
<rect width="86" height="32" fill="white"/>
</clipPath>
</defs>
</svg>
