<svg width="24" height="24" viewBox="0 0 24 24" fill="none" xmlns="http://www.w3.org/2000/svg">
    <path
        d="M13.9958 20C13.5237 20.6295 12.7827 21 11.9958 21C11.2089 21 10.4679 20.6295 9.99579 20M5.99579 12.4817V9C5.99579 5.68629 8.68208 3 11.9958 3C13.5871 3 15.1132 3.63214 16.2384 4.75736C17.3636 5.88258 17.9958 7.4087 17.9958 9V12.4817H17.9913L19.3673 13.8588C19.9771 14.4691 20.1593 15.3866 19.8289 16.1836C19.4985 16.9806 18.7206 17.5002 17.8578 17.5H6.13379C5.27101 17.5002 4.49308 16.9806 4.16269 16.1836C3.83229 15.3866 4.01448 14.4691 4.62432 13.8588L6.00032 12.4817"
        stroke="black" stroke-width="1.55" stroke-linecap="round" stroke-linejoin="round" />
</svg>
    