<svg width="86" height="32" viewBox="0 0 86 32" fill="none" xmlns="http://www.w3.org/2000/svg">
    <g clip-path="url(#clip0_2253_1835)">
    <path d="M35.2878 20.7876C34.2922 21.194 33.2118 21.3496 32.1417 21.2406C31.0717 21.1316 30.0449 20.7615 29.1519 20.1628C28.259 19.5641 27.5273 18.7552 27.0213 17.8075C26.5154 16.8598 26.2507 15.8024 26.2507 14.7284C26.2507 13.6545 26.5154 12.5971 27.0213 11.6494C27.5273 10.7016 28.259 9.89278 29.1519 9.29408C30.0449 8.69538 31.0717 8.32523 32.1417 8.21628C33.2118 8.10732 34.2922 8.2629 35.2878 8.66931C36.3329 6.05934 38.0319 3.76115 40.2219 1.99504C38.2642 0.859497 36.0709 0.189187 33.812 0.0360355C31.553 -0.117116 29.2891 0.251004 27.1956 1.11188C25.1021 1.97275 23.2351 3.30327 21.7394 5.00036C20.2437 6.69744 19.1593 8.71555 18.5703 10.8983C17.9813 13.0811 17.9035 15.37 18.3429 17.5876C18.7823 19.8052 19.7271 21.8921 21.1042 23.6866C22.4812 25.481 24.2535 26.9349 26.2837 27.9355C28.314 28.9361 30.5477 29.4567 32.8118 29.4568C35.4153 29.4599 37.9728 28.7713 40.2219 27.4618C38.0321 25.6955 36.3332 23.3974 35.2878 20.7876Z" fill="black" fill-opacity="0.5"/>
    <path d="M52.9894 20.7876C51.9937 21.1932 50.9134 21.3481 49.8436 21.2387C48.7738 21.1292 47.7474 20.7587 46.8548 20.1598C45.9622 19.5609 45.2308 18.752 44.7252 17.8044C44.2195 16.8568 43.955 15.7995 43.955 14.7258C43.955 13.652 44.2195 12.5948 44.7252 11.6472C45.2308 10.6996 45.9622 9.89067 46.8548 9.29178C47.7474 8.69288 48.7738 8.32238 49.8436 8.2129C50.9134 8.10343 51.9937 8.25835 52.9894 8.66401C54.034 6.05527 55.7323 3.75817 57.9214 1.99292C55.9636 0.858104 53.7705 0.188449 51.5118 0.0358164C49.2532 -0.116816 46.9897 0.251669 44.8966 1.11274C42.8035 1.9738 40.9371 3.30434 39.4417 5.00131C37.9463 6.69828 36.8622 8.71613 36.2734 10.8986C35.6845 13.0811 35.6067 15.3696 36.0459 17.5869C36.4851 19.8043 37.4296 21.8909 38.8063 23.6852C40.1829 25.4796 41.9547 26.9335 43.9844 27.9343C46.0142 28.9352 48.2475 29.4561 50.5112 29.4568C53.1148 29.4599 55.6723 28.7713 57.9214 27.4618C55.7318 25.6958 54.0334 23.3975 52.9894 20.7876Z" fill="black" fill-opacity="0.5"/>
    <path d="M52.99 20.7874C51.7946 21.2764 50.4812 21.4014 49.2148 21.1469C47.9484 20.8923 46.7857 20.2694 45.873 19.3567L58.5402 31.9999H67.8124L66.8415 31.0316C63.8077 30.7766 60.905 29.6832 58.4585 27.8738C56.012 26.0645 54.1185 23.6107 52.99 20.7874Z" fill="black"/>
    <path d="M63.5778 19.3568C62.3533 18.1281 61.6669 16.4646 61.6692 14.7313C61.6714 12.998 62.3621 11.3363 63.5897 10.1107C64.8173 8.88517 66.4816 8.19576 68.2176 8.19374C69.9536 8.19172 71.6196 8.87725 72.85 10.1L82.1977 19.4331C83.3529 16.0087 83.2071 12.2797 81.788 8.95556C80.3688 5.63146 77.7753 2.9442 74.501 1.40501C71.2266 -0.134172 67.4998 -0.417879 64.0295 0.607866C60.5593 1.63361 57.5878 3.89723 55.6803 6.96809C53.7728 10.0389 53.0624 13.7028 53.6843 17.2625C54.3062 20.8223 56.217 24.0296 59.0532 26.2742C61.8894 28.5189 65.453 29.6443 69.0661 29.4364C72.6792 29.2285 76.0897 27.7017 78.6488 25.1465L72.8543 19.361C72.2451 19.9692 71.5218 20.4515 70.7258 20.7804C69.9298 21.1094 69.0767 21.2785 68.2152 21.2781C67.3537 21.2777 66.5007 21.1078 65.705 20.7781C64.9093 20.4485 64.1865 19.9655 63.5778 19.3568Z" fill="black" fill-opacity="0.5"/>
    <path d="M72.8504 19.3567C72.2416 19.9646 71.5188 20.4468 70.7233 20.7759C69.9278 21.1049 69.0753 21.2742 68.2142 21.2742C67.3532 21.2742 66.5006 21.1049 65.7052 20.7759C64.9097 20.4468 64.1869 19.9646 63.5781 19.3567L76.2421 31.9999H85.5132L72.8504 19.3567Z" fill="black"/>
    <path d="M16.7269 17.8783C15.6642 17.6857 14.5864 17.5881 13.5063 17.5867C11.084 17.5837 8.68614 18.0697 6.45677 19.0154C4.22739 19.9612 2.21251 21.3471 0.533203 23.0901L6.9066 29.4536C7.74964 28.5482 8.77056 27.8261 9.90561 27.3323C11.0407 26.8386 12.2655 26.5837 13.5036 26.5837C14.7417 26.5837 15.9665 26.8386 17.1016 27.3323C18.2366 27.8261 19.2576 28.5482 20.1006 29.4536L22.2867 27.2709C19.4107 24.8682 17.4481 21.5526 16.7269 17.8783Z" fill="black"/>
    <path d="M16.42 14.7284C16.4178 12.3355 16.9425 9.97139 17.9568 7.80341C18.9712 5.63544 20.4504 3.71659 22.2899 2.18269L20.1038 0L0.533203 23.09L6.9066 29.4535L16.7227 17.8709C16.521 16.8355 16.4197 15.7831 16.42 14.7284Z" fill="black" fill-opacity="0.5"/>
    <path d="M22.2899 2.18269L20.1038 0C19.2614 0.906293 18.2405 1.62903 17.1052 2.12289C15.9699 2.61676 14.7446 2.87109 13.5063 2.86995C12.2675 2.87164 11.0417 2.61756 9.906 2.12367C8.77028 1.62979 7.7491 0.906759 6.9066 0L0.533203 6.36352C2.21251 8.10644 4.22739 9.49241 6.45677 10.4382C8.68614 11.3839 11.084 11.8699 13.5063 11.8669C14.5864 11.8656 15.6643 11.7677 16.7269 11.5742C17.4493 7.89994 19.413 4.58467 22.2899 2.18269Z" fill="black"/>
    </g>
    <defs>
    <clipPath id="clip0_2253_1835">
    <rect width="86" height="32" fill="white"/>
    </clipPath>
    </defs>
    </svg>
    