<svg width="16" height="16" viewBox="0 0 16 16" fill="none" xmlns="http://www.w3.org/2000/svg">
    <rect width="16" height="16" rx="8" fill="black"/>
    <path fill-rule="evenodd" clip-rule="evenodd" d="M5.00355 5.00355C4.6932 5.31391 4.5 5.84931 4.5 6.8V9.2C4.5 10.1507 4.6932 10.6861 5.00355 10.9964C5.31391 11.3068 5.84931 11.5 6.8 11.5H9.2C10.1507 11.5 10.6861 11.3068 10.9964 10.9964C11.3068 10.6861 11.5 10.1507 11.5 9.2V7.7H10.4C9.7723 7.7 9.19473 7.60183 8.79645 7.20355C8.39817 6.80527 8.3 6.2277 8.3 5.6V4.5H6.8C5.84931 4.5 5.31391 4.6932 5.00355 5.00355ZM9.3 5.20711L10.7929 6.7H10.4C9.8277 6.7 9.60527 6.59817 9.50355 6.49645C9.40183 6.39473 9.3 6.1723 9.3 5.6V5.20711ZM4.29645 4.29645C4.88609 3.7068 5.75069 3.5 6.8 3.5H8.8C8.93261 3.5 9.05979 3.55268 9.15355 3.64645L12.3536 6.84645C12.4473 6.94021 12.5 7.06739 12.5 7.2V9.2C12.5 10.2493 12.2932 11.1139 11.7036 11.7036C11.1139 12.2932 10.2493 12.5 9.2 12.5H6.8C5.75069 12.5 4.88609 12.2932 4.29645 11.7036C3.7068 11.1139 3.5 10.2493 3.5 9.2V6.8C3.5 5.75069 3.7068 4.88609 4.29645 4.29645ZM5.7 8.79998C5.7 8.52383 5.92386 8.29998 6.2 8.29998H8.2C8.47614 8.29998 8.7 8.52383 8.7 8.79998C8.7 9.07612 8.47614 9.29998 8.2 9.29998H6.2C5.92386 9.29998 5.7 9.07612 5.7 8.79998Z" fill="white"/>
    </svg>
    