<svg width="16" height="16" viewBox="0 0 16 16" fill="none" xmlns="http://www.w3.org/2000/svg">
    <rect width="16" height="16" rx="8" fill="black"/>
    <path fill-rule="evenodd" clip-rule="evenodd" d="M6.95682 4.44199C7.15228 4.63706 7.1526 4.95364 6.95753 5.1491L5.80503 6.3039L11.3996 6.30391C11.6758 6.30391 11.8996 6.52776 11.8996 6.80391C11.8996 7.08005 11.6758 7.30391 11.3996 7.30391L4.59962 7.3039C4.39748 7.3039 4.21523 7.18219 4.13778 6.99547C4.06033 6.80876 4.10293 6.59378 4.24572 6.4507L6.24972 4.4427C6.44479 4.24724 6.76137 4.24693 6.95682 4.44199ZM4.09962 9.1959C4.09962 8.91976 4.32348 8.6959 4.59962 8.6959H11.3996C11.6018 8.6959 11.784 8.81761 11.8615 9.00433C11.9389 9.19104 11.8963 9.40602 11.7535 9.5491L9.74953 11.5571C9.55446 11.7526 9.23788 11.7529 9.04242 11.5578C8.84696 11.3627 8.84665 11.0462 9.04171 10.8507L10.1942 9.6959H4.59962C4.32348 9.6959 4.09962 9.47204 4.09962 9.1959Z" fill="white"/>
    </svg>
    