<svg width="40" height="40" viewBox="0 0 40 40" fill="none" xmlns="http://www.w3.org/2000/svg">
    <rect width="40" height="40" rx="20" fill="#A9C0D1"/>
    <path d="M28.3327 19.9998C28.3327 15.3998 24.5993 11.6665 19.9993 11.6665C15.3993 11.6665 11.666 15.3998 11.666 19.9998C11.666 24.5998 15.3993 28.3332 19.9993 28.3332M16.666 12.4998H17.4993C15.8743 17.3665 15.8743 22.6332 17.4993 27.4998H16.666M22.4993 12.4998C23.3077 14.9332 23.716 17.4665 23.716 19.9998M12.4993 23.3332V22.4998C14.9327 23.3082 17.466 23.7165 19.9993 23.7165M12.4993 17.4999C17.366 15.8749 22.6327 15.8749 27.4993 17.4999M28.3327 28.3332L27.4993 27.4998M25.166 27.8332C23.6933 27.8332 22.4993 26.6393 22.4993 25.1665C22.4993 23.6938 23.6933 22.4998 25.166 22.4998C26.6388 22.4998 27.8327 23.6938 27.8327 25.1665C27.8327 26.6393 26.6388 27.8332 25.166 27.8332Z" stroke="black" stroke-width="1.5" stroke-linecap="round" stroke-linejoin="round"/>
    </svg>
    