<svg width="16" height="16" viewBox="0 0 16 16" fill="none" xmlns="http://www.w3.org/2000/svg">
    <g clip-path="url(#clip0_2253_1670)">
    <path d="M8 16C12.4183 16 16 12.4183 16 8C16 3.58172 12.4183 0 8 0C3.58172 0 0 3.58172 0 8C0 12.4183 3.58172 16 8 16Z" fill="#2CA01C"/>
    <path d="M1.92899 7.99757C1.92963 9.80621 3.3882 11.2769 5.19684 11.2929H5.65956V10.084H5.19684C4.07556 10.3899 2.91907 9.72877 2.61379 8.60749C2.61123 8.59853 2.60932 8.58957 2.60676 8.58061C2.29252 7.44461 2.95044 6.26765 4.0826 5.94061H4.31364C4.60356 5.87725 4.90372 5.87725 5.19364 5.94061H6.31748V12.3592C6.31172 13.0382 6.85764 13.5937 7.53668 13.6001V4.66957H5.20388C3.38244 4.67917 1.91427 6.16333 1.92387 7.98477V7.98541L1.92899 7.99757ZM10.809 4.67085H10.3463V5.94381H10.809C11.9277 5.63853 13.0816 6.29773 13.3869 7.41581C13.3895 7.42413 13.3914 7.43309 13.394 7.44141C13.7063 8.57357 13.0503 9.74605 11.9226 10.0725H11.6916C11.4016 10.1358 11.1015 10.1358 10.8116 10.0725H9.68772V3.65453C9.69348 2.97549 9.14756 2.41997 8.46851 2.41357V11.3569H10.8013C12.6388 11.3281 14.105 9.81581 14.0768 7.97837C14.0487 6.18125 12.5991 4.73101 10.8013 4.70285L10.809 4.67085Z" fill="white"/>
    </g>
    <defs>
    <clipPath id="clip0_2253_1670">
    <rect width="16" height="16" fill="white"/>
    </clipPath>
    </defs>
    </svg>
    