<svg width="40" height="40" viewBox="0 0 40 40" fill="none" xmlns="http://www.w3.org/2000/svg">
    <rect width="40" height="40" rx="20" fill="black"/>
    <g clip-path="url(#clip0_2253_1678)">
    <path d="M34.9996 17.1356V24.0142L33.9844 24.9409V18.2143L34.9996 17.1356" fill="#E79224"/>
    <path d="M34.0003 18.2139H27.2773V24.9487H34.0003V18.2139Z" fill="url(#paint0_linear_2253_1678)"/>
    <path d="M28.3304 17.1402L27.2773 18.2144H34.0003L34.9992 17.1356L28.3302 17.1402" fill="#FEF26F"/>
    <path d="M20.004 17.4349L26.6172 16.5749L26.0639 18.0583L19.7988 18.9878L19.8255 17.9274L20.004 17.4349Z" fill="#91C9ED"/>
    <path d="M26.0633 18.0584L26.9794 24.0921L20.4586 24.9492L19.5781 19.1161L19.9589 18.8377L26.0635 18.0585" fill="url(#paint1_linear_2253_1678)"/>
    <path d="M26.6178 16.5747L26.6229 16.6112L27.4805 22.7894L26.9806 24.0918L26.0645 18.0581" fill="#0B9AD6"/>
    <mask id="mask0_2253_1678" style="mask-type:luminance" maskUnits="userSpaceOnUse" x="11" y="16" width="10" height="10">
    <path d="M14.4191 16.9203L20.2737 19.3917L17.632 25.002L11.7773 22.5308L14.4191 16.9201" fill="white"/>
    </mask>
    <g mask="url(#mask0_2253_1678)">
    <path d="M4 15H34.9994V25H4V15Z" fill="url(#paint2_linear_2253_1678)"/>
    </g>
    <path d="M13.8105 14.9999L14.4183 16.9203L20.2728 19.3916L19.7806 17.5566L13.8105 14.9999Z" fill="#98D0A0"/>
    <path d="M13.8115 14.9998L11.4551 20.2316L11.7775 22.5308L14.4192 16.9202L13.8115 14.9998Z" fill="#68BF6B"/>
    <path d="M10.5443 18.0496L11.5093 23.987L5.0392 24.936L4 18.9873L10.5442 18.0499" fill="url(#paint3_linear_2253_1678)"/>
    <path d="M4 18.9868L4.45437 16.867L10.9872 15.8874L10.5444 18.0494L4 18.9868Z" fill="#EF463D"/>
    <path d="M10.9877 15.8876L11.9455 21.8822L11.5099 23.9868L10.5449 18.0496L10.9877 15.8876Z" fill="#761116"/>
    <path d="M24.955 19.2147C24.9256 19.0273 24.8572 18.8844 24.7463 18.7907C24.6581 18.7159 24.5473 18.6781 24.4209 18.6783C24.3887 18.6783 24.3555 18.6807 24.321 18.6854C24.1517 18.7082 24.0221 18.7815 23.9426 18.9027C23.8848 18.9902 23.8568 19.0957 23.8568 19.2171C23.8568 19.2636 23.8609 19.3126 23.869 19.364L24.1069 20.934L22.232 21.1921L21.9941 19.6218C21.9653 19.4393 21.8979 19.2978 21.7885 19.2016C21.7002 19.1236 21.5901 19.0837 21.4659 19.084C21.4366 19.084 21.4065 19.0862 21.3758 19.0904C21.1993 19.1142 21.0649 19.1862 20.9833 19.3055C20.9241 19.3915 20.8955 19.4975 20.8955 19.6209C20.8955 19.6682 20.8998 19.7183 20.908 19.7711L21.5495 23.8541C21.579 24.0419 21.6492 24.1845 21.7645 24.2767C21.8545 24.3488 21.9673 24.385 22.0965 24.3848C22.1318 24.3848 22.1685 24.3822 22.2064 24.3769C22.3678 24.3551 22.4925 24.282 22.5677 24.1611C22.6216 24.0751 22.6478 23.9718 22.6478 23.8536C22.6478 23.8063 22.6437 23.7567 22.6355 23.7047L22.3733 22.0916L24.2482 21.8338L24.5105 23.4469C24.5393 23.6322 24.6088 23.774 24.7226 23.8675C24.8129 23.9418 24.9246 23.9792 25.0513 23.979C25.0838 23.979 25.1171 23.9767 25.1515 23.972C25.3202 23.949 25.4494 23.8767 25.5265 23.7566C25.582 23.6709 25.6088 23.567 25.6088 23.4472C25.6088 23.3998 25.6048 23.3499 25.5966 23.2976L24.955 19.2147ZM17.3297 21.4731C17.1091 21.9592 16.8179 22.2927 16.4576 22.4775C16.2645 22.5765 16.0666 22.6254 15.8619 22.6255C15.684 22.6255 15.5007 22.5883 15.3113 22.5134C14.9016 22.3499 14.6464 22.0873 14.5359 21.7169C14.499 21.5926 14.4804 21.462 14.4804 21.3247C14.4804 21.0528 14.5533 20.7545 14.7004 20.43C14.926 19.9324 15.2205 19.5929 15.5811 19.407C15.7737 19.3077 15.9717 19.2584 16.1771 19.2584C16.3569 19.2584 16.5427 19.296 16.7352 19.3725C17.1423 19.5345 17.395 19.7977 17.5035 20.1698C17.5388 20.2915 17.5565 20.4195 17.5565 20.5544C17.5565 20.832 17.4815 21.1383 17.3297 21.4731ZM17.9711 19.0292C17.741 18.8022 17.4616 18.6237 17.134 18.4937C16.8087 18.3645 16.4799 18.3 16.1485 18.3L16.1332 18.3001C15.7967 18.3021 15.4641 18.3722 15.1363 18.5097V18.5096C14.7932 18.6493 14.4942 18.8448 14.2405 19.0959C13.9868 19.3468 13.7801 19.6487 13.6206 20.0003C13.4633 20.3478 13.3759 20.6954 13.3597 21.0431C13.3578 21.0824 13.357 21.1218 13.357 21.161C13.357 21.4679 13.4132 21.7685 13.5256 22.0622C13.6448 22.3723 13.8206 22.6407 14.0525 22.867C14.2842 23.0932 14.5693 23.2733 14.9066 23.4068V23.4067C15.2293 23.535 15.5569 23.5991 15.8888 23.599H15.8973C16.232 23.5975 16.5639 23.5304 16.8921 23.3986L16.8924 23.3984L16.8926 23.3983C17.2378 23.2542 17.5389 23.0561 17.7956 22.8053C18.0523 22.5543 18.2597 22.2533 18.4183 21.9038C18.5769 21.5542 18.6633 21.2062 18.6775 20.86C18.6788 20.8266 18.6795 20.7933 18.6795 20.7601C18.6795 20.4488 18.6207 20.1438 18.503 19.8454C18.3785 19.5284 18.201 19.256 17.9711 19.0292ZM9.84963 23.0417C9.79863 22.9847 9.72996 22.9426 9.64631 22.9152C9.56026 22.8872 9.4563 22.8736 9.33383 22.8736C9.21844 22.8736 9.08655 22.8857 8.93775 22.9095L7.23001 23.1826C7.24806 23.0595 7.31342 22.8976 7.42864 22.7005C7.55735 22.4796 7.74706 22.2142 7.99769 21.9053L7.99782 21.9052C8.08382 21.7976 8.14955 21.7155 8.19498 21.6588C8.2276 21.621 8.27303 21.5654 8.33189 21.4919C8.72254 21.0125 8.96433 20.6221 9.05703 20.3157C9.11008 20.142 9.14236 19.967 9.15405 19.7907C9.15723 19.7424 9.15869 19.6945 9.15869 19.647C9.15869 19.5206 9.14764 19.3962 9.12528 19.2738C9.10493 19.1623 9.07558 19.0695 9.03622 18.995C8.99687 18.9207 8.94692 18.8642 8.88524 18.8285C8.8157 18.7889 8.71785 18.7721 8.58985 18.7719C8.48417 18.7719 8.35743 18.7839 8.20909 18.8076L6.23557 19.1235C5.99658 19.1618 5.8201 19.2276 5.70751 19.3268C5.61803 19.4053 5.57181 19.507 5.57227 19.6238C5.57227 19.6543 5.57524 19.6858 5.58127 19.7184C5.60903 19.8753 5.69641 19.9904 5.8373 20.0489C5.92046 20.084 6.02094 20.1007 6.13822 20.1007C6.21811 20.1007 6.30587 20.0929 6.40175 20.0777L8.05354 19.8171C8.05635 19.8444 8.05828 19.8716 8.05828 19.8987C8.05828 19.9952 8.0404 20.0895 8.0046 20.1823C7.95557 20.3102 7.83306 20.4931 7.63782 20.7255C7.58251 20.7889 7.49777 20.8878 7.38359 21.0218C6.93814 21.5266 6.61909 21.957 6.42603 22.315C6.42603 22.3152 6.42603 22.3152 6.42591 22.3153C6.42591 22.3153 6.42591 22.3155 6.42586 22.3155C6.28883 22.5619 6.1937 22.8046 6.14153 23.0436C6.11113 23.1829 6.09576 23.3167 6.09576 23.4451C6.09576 23.5371 6.10364 23.626 6.11942 23.7122C6.14203 23.8358 6.17465 23.9377 6.21857 24.0185C6.26249 24.0989 6.31851 24.159 6.38768 24.1946C6.45208 24.2273 6.5467 24.2402 6.67696 24.2406C6.8423 24.2406 7.06488 24.2178 7.34662 24.1728L9.1373 23.8864C9.45442 23.8353 9.67495 23.7646 9.80311 23.6661C9.90552 23.5874 9.95857 23.4794 9.95802 23.3521C9.95802 23.3199 9.95484 23.2867 9.94844 23.2521C9.93341 23.1695 9.90062 23.0986 9.84963 23.0417ZM8.33194 21.4918L8.33206 21.4917C8.33194 21.4918 8.33194 21.4919 8.33189 21.4919H8.33177L8.33194 21.4918ZM31.593 22.8566C31.3354 23.1478 30.9885 23.2923 30.5408 23.2928C30.09 23.2923 29.7417 23.1483 29.4827 22.8585C29.2244 22.5685 29.0937 22.1699 29.0935 21.6582C29.0937 21.1367 29.2239 20.7321 29.4808 20.4398C29.7383 20.1477 30.0876 20.0027 30.5408 20.0021C30.9885 20.0027 31.3353 20.1476 31.593 20.4398C31.85 20.7321 31.9805 21.1367 31.9805 21.6582C31.9805 22.1675 31.8503 22.5657 31.593 22.8566ZM32.9747 20.6372C32.8417 20.3245 32.6447 20.0441 32.3843 19.7967C32.135 19.5589 31.8548 19.3794 31.5454 19.259C31.2357 19.1385 30.9009 19.0783 30.5413 19.0784C30.1792 19.0783 29.8411 19.1384 29.529 19.2589C29.217 19.3794 28.937 19.559 28.6901 19.7968C28.4301 20.0417 28.2339 20.3211 28.1036 20.6338C27.9735 20.9467 27.9082 21.2879 27.9082 21.6571C27.9082 22.0216 27.9736 22.3617 28.1057 22.6766C28.2372 22.9916 28.4323 23.2744 28.6901 23.5241C28.9317 23.7577 29.2088 23.9344 29.5195 24.0535C29.8303 24.1726 30.1713 24.2322 30.5413 24.2322C30.898 24.2322 31.2325 24.1726 31.5431 24.0535C31.8539 23.9344 32.1347 23.7579 32.3841 23.5244C32.6447 23.2745 32.8417 22.9926 32.9747 22.6785C33.1079 22.3648 33.1744 22.024 33.1744 21.6571C33.1744 21.2903 33.1079 20.9501 32.9747 20.6372Z" fill="white"/>
    </g>
    <defs>
    <linearGradient id="paint0_linear_2253_1678" x1="30.6391" y1="18.3071" x2="30.6391" y2="24.7427" gradientUnits="userSpaceOnUse">
    <stop stop-color="#FFE500"/>
    <stop offset="1" stop-color="#FCB822"/>
    </linearGradient>
    <linearGradient id="paint1_linear_2253_1678" x1="19.9122" y1="18.9883" x2="26.2994" y2="24.4713" gradientUnits="userSpaceOnUse">
    <stop stop-color="#168CCC"/>
    <stop offset="1" stop-color="#00649E"/>
    </linearGradient>
    <linearGradient id="paint2_linear_2253_1678" x1="16.0245" y1="19.1653" x2="16.0245" y2="24.8034" gradientUnits="userSpaceOnUse">
    <stop stop-color="#25A149"/>
    <stop offset="1" stop-color="#008A52"/>
    </linearGradient>
    <linearGradient id="paint3_linear_2253_1678" x1="7.28212" y1="18.6133" x2="8.19223" y2="24.4864" gradientUnits="userSpaceOnUse">
    <stop stop-color="#D92231"/>
    <stop offset="1" stop-color="#BA2234"/>
    </linearGradient>
    <clipPath id="clip0_2253_1678">
    <rect width="31" height="10" fill="white" transform="translate(4 15)"/>
    </clipPath>
    </defs>
    </svg>
    