<svg width="40" height="40" viewBox="0 0 40 40" fill="none" xmlns="http://www.w3.org/2000/svg">
    <rect width="40" height="40" rx="20" fill="#A9C0D1"/>
    <path d="M13.125 18.7501H20.625M13.125 21.2501H19.375M24.375 25.4431C23.5656 26.167 22.564 26.6412 21.4911 26.8084C20.4181 26.9756 19.3197 26.8286 18.3284 26.3853C17.3372 25.9419 16.4954 25.2211 15.9048 24.3099C15.3142 23.3987 14.9999 22.336 15 21.2501V18.7501C14.9999 17.6642 15.3142 16.6015 15.9048 15.6903C16.4954 14.7791 17.3372 14.0583 18.3284 13.6149C19.3197 13.1716 20.4181 13.0246 21.4911 13.1918C22.564 13.359 23.5656 13.8332 24.375 14.5571" stroke="black" stroke-width="2" stroke-linecap="round" stroke-linejoin="round"/>
    </svg>
    