<svg width="40" height="40" viewBox="0 0 40 40" fill="none" xmlns="http://www.w3.org/2000/svg">
    <rect width="40" height="40" rx="20" fill="#A9C0D1"/>
    <path d="M20 11.875V13.75M20 26.25V28.125M24.375 16.875C24.375 16.4646 24.2942 16.0583 24.1371 15.6791C23.9801 15.3 23.7499 14.9555 23.4597 14.6653C23.1695 14.3751 22.825 14.1449 22.4459 13.9879C22.0667 13.8308 21.6604 13.75 21.25 13.75H18.75C17.9212 13.75 17.1263 14.0792 16.5403 14.6653C15.9542 15.2513 15.625 16.0462 15.625 16.875C15.625 17.7038 15.9542 18.4987 16.5403 19.0847C17.1263 19.6708 17.9212 20 18.75 20H21.875C22.7038 20 23.4987 20.3292 24.0847 20.9153C24.6708 21.5013 25 22.2962 25 23.125C25 23.9538 24.6708 24.7487 24.0847 25.3347C23.4987 25.9208 22.7038 26.25 21.875 26.25H18.125C17.2962 26.25 16.5013 25.9208 15.9153 25.3347C15.3292 24.7487 15 23.9538 15 23.125" stroke="black" stroke-width="2" stroke-linecap="round" stroke-linejoin="round"/>
    </svg>
    