<svg width="40" height="40" viewBox="0 0 40 40" fill="none" xmlns="http://www.w3.org/2000/svg">
    <g clip-path="url(#clip0_2253_1655)">
    <path d="M1.24414 26.9571C4.07 34.573 11.4009 40.0006 20.0002 40.0006C28.5995 40.0006 35.9303 34.573 38.7562 26.9571L20.0002 25.218L1.24414 26.9571Z" fill="#FFDA44"/>
    <path d="M20.0002 0.000488281C11.4009 0.000488281 4.07 5.42799 1.24414 13.044L20.0002 14.7831L38.7562 13.0439C35.9303 5.42799 28.5995 0.000488281 20.0002 0.000488281Z" fill="black"/>
    <path d="M1.24398 13.0439C0.440078 15.2106 0 17.554 0 20.0004C0 22.4468 0.440078 24.7903 1.24398 26.9569H38.7561C39.56 24.7903 40 22.4468 40 20.0004C40 17.554 39.56 15.2106 38.756 13.0439H1.24398Z" fill="#D80027"/>
    </g>
    <defs>
    <clipPath id="clip0_2253_1655">
    <rect y="0.000488281" width="40" height="40" rx="20" fill="white"/>
    </clipPath>
    </defs>
    </svg>
    