<svg width="40" height="40" viewBox="0 0 40 40" fill="none" xmlns="http://www.w3.org/2000/svg">
    <rect width="40" height="40" rx="20" fill="#A9C0D1"/>
    <path d="M19.746 27.24C18.426 27.24 17.2727 26.94 16.286 26.34C15.2993 25.74 14.5327 24.9067 13.986 23.84C13.4393 22.76 13.166 21.5067 13.166 20.08C13.166 18.64 13.446 17.3733 14.006 16.28C14.5793 15.1733 15.386 14.3133 16.426 13.7C17.4793 13.0733 18.726 12.76 20.166 12.76C21.806 12.76 23.166 13.1533 24.246 13.94C25.326 14.7267 26.026 15.8133 26.346 17.2H23.486C23.2727 16.5467 22.886 16.04 22.326 15.68C21.766 15.3067 21.046 15.12 20.166 15.12C18.766 15.12 17.686 15.5667 16.926 16.46C16.166 17.34 15.786 18.5533 15.786 20.1C15.786 21.6467 16.1593 22.8467 16.906 23.7C17.666 24.54 18.6927 24.96 19.986 24.96C21.2527 24.96 22.206 24.62 22.846 23.94C23.4993 23.2467 23.8927 22.34 24.026 21.22H20.486V19.3H26.606V27H24.246L24.046 25.16C23.5927 25.8267 23.026 26.34 22.346 26.7C21.666 27.06 20.7993 27.24 19.746 27.24Z" fill="black"/>
    </svg>
    