<svg width="22" height="20" viewBox="0 0 22 20" fill="none" xmlns="http://www.w3.org/2000/svg">
    <path
        d="M12 7H6M20 12.0499C20.56 12.0299 21 11.58 21 11.03V8.96991C21 8.41991 20.56 7.96995 20 7.94995M20 12.0499H18.0399C16.9599 12.0499 15.97 11.2599 15.88 10.1799C15.82 9.54993 16.0599 8.95993 16.4799 8.54993C16.8499 8.16993 17.36 7.94995 17.92 7.94995H20M20 12.0499L20 13.5C20 16.5 18 18.5 15 18.5H6C3 18.5 1 16.5 1 13.5V6.5C1 3.78 2.64 1.88 5.19 1.56C5.45 1.52 5.72 1.5 6 1.5H15C15.26 1.5 15.51 1.50999 15.75 1.54999C18.33 1.84999 20 3.76 20 6.5L20 7.94995"
        stroke="black" stroke-width="1.5" stroke-linecap="round" stroke-linejoin="round" />
</svg>
    