<svg width="22" height="22" viewBox="0 0 22 22" fill="none" xmlns="http://www.w3.org/2000/svg">
    <path
        d="M6.75 9.74C6.75 9.32579 6.41421 8.99 6 8.99C5.58579 8.99 5.25 9.32579 5.25 9.74H6.75ZM5.25 12.94C5.25 13.3542 5.58579 13.69 6 13.69C6.41421 13.69 6.75 13.3542 6.75 12.94H5.25ZM11.75 8C11.75 7.58579 11.4142 7.25 11 7.25C10.5858 7.25 10.25 7.58579 10.25 8H11.75ZM10.25 14.68C10.25 15.0942 10.5858 15.43 11 15.43C11.4142 15.43 11.75 15.0942 11.75 14.68H10.25ZM16.75 9.74C16.75 9.32579 16.4142 8.99 16 8.99C15.5858 8.99 15.25 9.32579 15.25 9.74H16.75ZM15.25 12.94C15.25 13.3542 15.5858 13.69 16 13.69C16.4142 13.69 16.75 13.3542 16.75 12.94H15.25ZM5.25 9.74V12.94H6.75V9.74H5.25ZM10.25 8V14.68H11.75V8H10.25ZM15.25 9.74V12.94H16.75V9.74H15.25ZM8 21.75H14V20.25H8V21.75ZM14 21.75C16.574 21.75 18.5709 21.2398 19.9053 19.9053C21.2398 18.5709 21.75 16.574 21.75 14H20.25C20.25 16.426 19.7602 17.9291 18.8447 18.8447C17.9291 19.7602 16.426 20.25 14 20.25V21.75ZM21.75 14V8H20.25V14H21.75ZM21.75 8C21.75 5.42603 21.2398 3.42914 19.9053 2.09467C18.5709 0.760201 16.574 0.25 14 0.25V1.75C16.426 1.75 17.9291 2.2398 18.8447 3.15533C19.7602 4.07086 20.25 5.57397 20.25 8H21.75ZM14 0.25H8V1.75H14V0.25ZM8 0.25C5.42603 0.25 3.42914 0.760201 2.09467 2.09467C0.760201 3.42914 0.25 5.42603 0.25 8H1.75C1.75 5.57397 2.2398 4.07086 3.15533 3.15533C4.07086 2.2398 5.57397 1.75 8 1.75V0.25ZM0.25 8V14H1.75V8H0.25ZM0.25 14C0.25 16.574 0.760201 18.5709 2.09467 19.9053C3.42914 21.2398 5.42603 21.75 8 21.75V20.25C5.57397 20.25 4.07086 19.7602 3.15533 18.8447C2.2398 17.9291 1.75 16.426 1.75 14H0.25Z"
        fill="black" />
</svg>
    