<svg width="22" height="20" viewBox="0 0 22 20" fill="none" xmlns="http://www.w3.org/2000/svg">
    <path
        d="M3.38844 6.43007C3.68128 6.13712 4.15615 6.13703 4.4491 6.42986C4.74205 6.7227 4.74215 7.19757 4.44931 7.49052L3.38844 6.43007ZM0.880371 10L0.349936 10.5302C0.0571827 10.2374 0.0571826 9.76265 0.349936 9.46978L0.880371 10ZM4.44931 12.5095C4.74215 12.8024 4.74205 13.2773 4.4491 13.5701C4.15615 13.863 3.68128 13.8629 3.38844 13.5699L4.44931 12.5095ZM11.4977 9.25C11.9119 9.25 12.2477 9.58579 12.2477 10C12.2477 10.4142 11.9119 10.75 11.4977 10.75L11.4977 9.25ZM2.37768 10.75C1.96347 10.75 1.62768 10.4142 1.62768 9.99999C1.62768 9.58578 1.96347 9.24999 2.37768 9.24999L2.37768 10.75ZM9.76968 19.774C9.35547 19.774 9.01968 19.4382 9.01968 19.024C9.01968 18.6098 9.35547 18.274 9.76968 18.274V19.774ZM9.76968 1.63C9.35547 1.63 9.01968 1.29421 9.01968 0.880001C9.01968 0.465788 9.35547 0.130001 9.76968 0.130001V1.63ZM4.44931 7.49052L1.41081 10.5302L0.349936 9.46978L3.38844 6.43007L4.44931 7.49052ZM1.41081 9.46978L4.44931 12.5095L3.38844 13.5699L0.349936 10.5302L1.41081 9.46978ZM11.4977 10.75L2.37768 10.75L2.37768 9.24999L11.4977 9.25L11.4977 10.75ZM9.76968 18.274L16.5857 18.274V19.774L9.76968 19.774V18.274ZM16.5857 18.274C18.3983 18.274 19.8677 16.8046 19.8677 14.992H21.3677C21.3677 17.633 19.2267 19.774 16.5857 19.774V18.274ZM19.8677 14.992V4.912H21.3677V14.992H19.8677ZM19.8677 4.912C19.8677 3.0994 18.3983 1.63 16.5857 1.63V0.130001C19.2267 0.130001 21.3677 2.27098 21.3677 4.912H19.8677ZM16.5857 1.63L9.76968 1.63V0.130001L16.5857 0.130001V1.63Z"
        fill="black" />
</svg>
    