<svg width="22" height="22" viewBox="0 0 22 22" fill="none" xmlns="http://www.w3.org/2000/svg">
    <path
        d="M8.5 12.75C8.5 13.72 9.25001 14.5 10.17 14.5H12.05C12.85 14.5 13.5 13.82 13.5 12.97C13.5 12.06 13.1 11.73 12.51 11.52L9.5 10.47C8.91 10.26 8.51001 9.93999 8.51001 9.01999C8.51001 8.17999 9.15999 7.48999 9.95999 7.48999H11.84C12.76 7.48999 13.51 8.26999 13.51 9.23999"
        stroke="black" stroke-width="1.5" stroke-linecap="round" stroke-linejoin="round" />
    <path d="M11 6.5V15.5" stroke="black" stroke-width="1.5" stroke-linecap="round"
        stroke-linejoin="round" />
    <path d="M21 11C21 16.52 16.52 21 11 21C5.48 21 1 16.52 1 11C1 5.48 5.48 1 11 1" stroke="black"
        stroke-width="1.5" stroke-linecap="round" stroke-linejoin="round" />
    <path d="M16 2V6H20" stroke="#009E52" stroke-width="1.5" stroke-linecap="round"
        stroke-linejoin="round" />
    <path d="M21 1L16 6" stroke="#009E52" stroke-width="1.5" stroke-linecap="round"
        stroke-linejoin="round" />
</svg>
    