<svg width="161" height="50" viewBox="0 0 161 50" fill="none" xmlns="http://www.w3.org/2000/svg">
<path fill-rule="evenodd" clip-rule="evenodd" d="M101.325 31.3V14.875H104.046V31.3H101.325ZM69.992 31.525C67.4886 31.525 65.3 30.685 63.4263 29.005L65.0902 27.025C66.6642 28.39 68.3206 29.0725 70.0594 29.0725C70.9139 29.0725 71.5884 28.8925 72.0831 28.5325C72.5928 28.1575 72.8476 27.6625 72.8476 27.0475C72.8476 26.4625 72.6078 25.9975 72.1281 25.6525C71.6484 25.2925 70.704 24.9475 69.2949 24.6175C67.4661 24.1825 66.132 23.635 65.2926 22.975C64.4681 22.3 64.0559 21.2725 64.0559 19.8925C64.0559 18.5425 64.558 17.4475 65.5624 16.6075C66.5667 15.7525 67.8559 15.325 69.4299 15.325C71.5884 15.325 73.4922 15.985 75.1411 17.305L73.6571 19.3975C72.203 18.3175 70.779 17.7775 69.3849 17.7775C68.5904 17.7775 67.9608 17.9575 67.4961 18.3175C67.0464 18.6775 66.8216 19.135 66.8216 19.69C66.8216 20.305 67.0689 20.785 67.5636 21.13C68.0732 21.46 69.0701 21.805 70.5541 22.165C72.293 22.585 73.5672 23.1475 74.3766 23.8525C75.2011 24.5575 75.6133 25.5475 75.6133 26.8225C75.6133 28.2775 75.0962 29.425 74.0618 30.265C73.0275 31.105 71.6709 31.525 69.992 31.525ZM82.5309 31.5025C80.2524 31.5025 79.1132 30.34 79.1132 28.015V21.76H77.6066V19.42H79.1132V16.1575H81.8339V19.42H85.0268V21.76H81.8339V27.5875C81.8339 28.5775 82.3211 29.0725 83.2954 29.0725C83.8801 29.0725 84.4422 28.9375 84.9818 28.6675V30.895C84.2623 31.3 83.4453 31.5025 82.5309 31.5025ZM87.3913 34.2475C88.2757 34.7275 89.2126 34.9675 90.2019 34.9675C91.1613 34.9675 91.9333 34.7125 92.5179 34.2025C93.1025 33.7075 93.6347 32.8525 94.1144 31.6375L98.8363 19.42H96.0032L92.9227 28.24L89.5499 19.42H86.6493L91.596 31.3C91.3712 31.81 91.1313 32.1625 90.8765 32.3575C90.6217 32.5675 90.2994 32.6725 89.9096 32.6725C89.4 32.6725 88.8678 32.5225 88.3132 32.2225L87.3913 34.2475ZM108.749 29.77C109.948 30.97 111.447 31.57 113.246 31.57C115.059 31.57 116.573 30.97 117.788 29.77C119.002 28.555 119.609 27.0925 119.609 25.3825C119.609 23.6425 119.002 22.1725 117.788 20.9725C116.588 19.7725 115.089 19.1725 113.291 19.1725C111.492 19.1725 109.985 19.78 108.771 20.995C107.557 22.195 106.95 23.6575 106.95 25.3825C106.95 27.1075 107.549 28.57 108.749 29.77ZM113.291 29.2075C114.37 29.2075 115.239 28.84 115.899 28.105C116.558 27.37 116.888 26.4625 116.888 25.3825C116.888 24.3175 116.544 23.4175 115.854 22.6825C115.164 21.9325 114.295 21.5575 113.246 21.5575C112.181 21.5575 111.319 21.925 110.66 22.66C110 23.395 109.67 24.3025 109.67 25.3825C109.67 26.4325 110.015 27.3325 110.705 28.0825C111.394 28.8325 112.256 29.2075 113.291 29.2075ZM122.695 15.55V31.3H125.461V26.2375H128.586C130.4 26.2375 131.899 25.765 133.083 24.82C134.283 23.875 134.882 22.555 134.882 20.86C134.882 19.24 134.343 17.95 133.263 16.99C132.184 16.03 130.73 15.55 128.901 15.55H122.695ZM125.461 23.74H128.676C129.711 23.74 130.535 23.4775 131.15 22.9525C131.764 22.4275 132.072 21.7375 132.072 20.8825C132.072 19.9825 131.764 19.2925 131.15 18.8125C130.55 18.3175 129.726 18.07 128.676 18.07H125.461V23.74ZM144.442 31.3H147.14V24.2575C147.14 22.6525 146.698 21.415 145.814 20.545C144.944 19.675 143.648 19.24 141.924 19.24C140.38 19.24 138.873 19.57 137.404 20.23L138.146 22.4125C139.331 21.9175 140.462 21.67 141.542 21.67C142.486 21.67 143.205 21.8875 143.7 22.3225C144.21 22.7575 144.465 23.3875 144.465 24.2125V24.4375C143.43 24.1075 142.336 23.9425 141.182 23.9425C139.743 23.9425 138.581 24.2725 137.697 24.9325C136.812 25.5925 136.37 26.56 136.37 27.835C136.37 29.005 136.775 29.92 137.584 30.58C138.409 31.225 139.413 31.5475 140.597 31.5475C142.201 31.5475 143.483 30.9775 144.442 29.8375V31.3ZM144.51 27.0025V26.3275C143.7 26.0125 142.793 25.855 141.789 25.855C140.934 25.855 140.267 26.02 139.788 26.35C139.308 26.68 139.068 27.145 139.068 27.745C139.068 28.285 139.286 28.7125 139.72 29.0275C140.155 29.3425 140.702 29.5 141.362 29.5C142.276 29.5 143.026 29.2675 143.61 28.8025C144.21 28.3375 144.51 27.7375 144.51 27.0025ZM149.555 34.2475C150.44 34.7275 151.376 34.9675 152.366 34.9675C153.325 34.9675 154.097 34.7125 154.682 34.2025C155.266 33.7075 155.799 32.8525 156.278 31.6375L161 19.42H158.167L155.086 28.24L151.714 19.42H148.813L153.76 31.3C153.535 31.81 153.295 32.1625 153.04 32.3575C152.785 32.5675 152.463 32.6725 152.073 32.6725C151.564 32.6725 151.032 32.5225 150.477 32.2225L149.555 34.2475Z" fill="white"/>
<mask id="mask0_0_6499" style="mask-type:alpha" maskUnits="userSpaceOnUse" x="5" y="15" width="44" height="33">
<path fill-rule="evenodd" clip-rule="evenodd" d="M48.9564 47.8502V15.5996H5.77246V47.8502H48.9564Z" fill="white"/>
</mask>
<g mask="url(#mask0_0_6499)">
<path fill-rule="evenodd" clip-rule="evenodd" d="M44.6826 15.5996V17.3197L46.3929 18.1797L44.6826 15.5996ZM45.5365 34.0897L47.2468 33.6599L46.3916 31.5097L45.5365 34.0897ZM47.6738 33.23L48.9564 29.3597H46.8187L47.6738 33.23ZM48.529 28.4996L47.2462 25.0595L46.8187 28.4996H48.529ZM48.9547 24.2001L47.2444 23.3404L48.5272 27.2104L48.9547 24.2001ZM46.8187 24.6296L44.2533 24.1995L45.9635 28.0697L46.8187 24.6296ZM43.3987 25.4897L42.1159 28.9297H45.1089L43.3987 25.4897ZM46.3916 29.79L42.9711 30.2199L44.6813 33.66L46.3916 29.79ZM40.8326 34.0897H43.8255L42.5429 31.5097L40.8326 34.0897ZM42.115 30.6497H37.412L39.5498 34.9497L42.115 30.6497ZM43.8238 38.3901L46.8168 34.5201H43.8238V38.3901ZM42.9703 39.6801V36.2399L40.8326 38.8199L42.9703 39.6801ZM42.5435 35.3799C42.3671 35.1799 38.6954 35.8099 38.6954 35.8099L39.978 38.82C39.978 38.82 42.7199 35.58 42.5435 35.3799ZM37.8401 36.2399L32.7093 36.6699L35.2747 40.54L37.8401 36.2399ZM39.5503 39.2499L38.2677 36.2399L36.1299 40.11L39.5503 39.2499ZM38.2695 43.5489L39.9798 40.1087L35.7041 41.3987L38.2695 43.5489ZM29.7156 41.8299L31.426 45.2699L36.9842 43.55L34.4189 41.4L29.7156 41.8299ZM32.2811 37.5299L29.7156 40.9699L33.9913 40.5399L32.2811 37.5299ZM30.1431 45.27L28.0053 42.6901L26.295 45.27H30.1431ZM22.4462 42.2609L25.0116 45.2709L27.1494 42.2609H22.4462ZM28.4334 47.8501L30.9988 46.1301H25.868L28.4334 47.8501ZM22.0198 47.8501L23.73 46.1301H20.7371L22.0198 47.8501ZM18.1716 46.99L20.7371 47.4201L18.1716 45.6999V46.99ZM19.4549 45.27L23.7306 45.6999L22.0204 43.12L19.4549 45.27ZM21.1652 43.12L16.8895 41.4L18.1721 44.84L21.1652 43.12ZM16.0338 44.84L17.7439 44.4099L13.8958 41.8299L16.0338 44.84ZM9.62249 43.1206L12.6155 44.8406L9.62249 41.4005V43.1206ZM13.4681 44.84V43.12L11.3304 41.4L13.4681 44.84ZM10.901 40.1087L13.4663 42.2589L13.0387 40.5387L10.901 40.1087ZM8.3373 41.4L9.19236 40.5399L7.05459 37.5299L8.3373 41.4ZM7.48271 33.2299L5.77246 34.5199L8.3379 37.0999L7.48271 33.2299ZM47.6739 19.8999V22.4796H48.5291L47.6739 19.8999ZM46.3911 22.0497L46.8187 19.0395L45.1084 18.1797L46.3911 22.0497Z" fill="#53258E"/>
</g>
<path fill-rule="evenodd" clip-rule="evenodd" d="M29.0728 30.1015L35.4862 29.6716L32.4933 25.3715L29.0728 30.1015ZM36.3433 29.2404L38.0537 24.0802L32.9229 24.5105L36.3433 29.2404ZM38.0519 21.5014L38.907 17.6313L35.9141 18.0614L38.0519 21.5014ZM33.3486 23.2214L38.4795 22.7914L35.059 18.4914L33.3486 23.2214ZM34.2054 18.4916L29.5023 18.9215L32.9228 22.7916L34.2054 18.4916ZM28.6434 19.7809L25.2228 24.081L31.6364 23.6509L28.6434 19.7809ZM25.2228 24.5118L28.6434 29.2416L31.6364 24.9416L25.2228 24.5118ZM22.2316 30.1015H27.79L24.3695 25.3715L22.2316 30.1015ZM18.811 24.0813L20.9487 29.2414L23.9418 24.9413L18.811 24.0813ZM15.3903 29.2416L20.0935 29.6716L17.5281 24.9416L15.3903 29.2416ZM17.9582 24.0802H13.6825L15.8203 28.3805L17.9582 24.0802ZM10.2619 29.2406L14.1099 29.6708L11.9721 24.9406L10.2619 29.2406ZM8.54911 24.5114L9.4043 28.3814L11.5421 24.0813L8.54911 24.5114ZM8.12208 25.3712C7.91281 25.7277 6.41183 29.2414 6.41183 29.2414L8.5496 30.1014C8.5496 30.1014 8.33147 25.0149 8.12208 25.3712ZM3.84514 25.8015L4.70021 28.8116L5.98292 24.9416L5.55539 24.5118L3.84514 25.8015ZM21.802 18.4916L18.3815 23.2218L23.5123 24.0816L21.802 18.4916ZM11.1145 19.7813L8.54911 23.2214H10.2595L11.1145 19.7813ZM35.9122 17.2018L40.6154 16.7719L35.4846 12.4716L35.9122 17.2018ZM35.9141 11.6112L40.6173 15.9111L40.1898 12.0411L35.9141 11.6112ZM40.1874 10.7512V9.89115L37.622 8.60115L40.1874 10.7512ZM33.778 7.3102L29.5023 6.02008L29.9297 8.17029L33.778 7.3102ZM38.479 6.88125L33.7758 5.59113L36.3412 8.60115L38.479 6.88125ZM2.99121 22.3614L5.98417 23.2215L5.55664 19.3514L2.99121 22.3614Z" fill="#DA1D61"/>
<path fill-rule="evenodd" clip-rule="evenodd" d="M34.6349 11.3251L29.9316 9.17533L34.6349 8.74516V11.3251ZM28.6483 9.60552L34.2067 12.1855L29.0758 13.0456L28.6483 9.60552ZM32.0648 4.44588C32.2157 4.45518 35.0578 4.44588 35.0578 4.44588L32.92 5.30583C32.92 5.30583 31.9139 4.43644 32.0648 4.44588ZM34.6332 13.0451V16.9152L29.5023 13.9051L34.6332 13.0451ZM24.3712 23.3651L22.661 18.2051L27.7917 19.4951L24.3712 23.3651ZM33.3501 17.7751L28.2193 18.6351L22.661 17.3452L28.2193 14.335L33.3501 17.7751ZM20.9501 17.7752L17.957 22.9352L17.1018 17.7752H20.9501ZM17.1041 23.3642H12.8285L15.8216 18.2042L17.1041 23.3642ZM14.9645 17.7752L11.544 22.5054L11.9715 17.7752H14.9645ZM7.69639 22.9351V19.925L10.2618 18.2051L7.69639 22.9351ZM2.5653 19.0652V22.5052L0 22.9351L2.5653 19.0652ZM6.41183 16.9149L8.97713 17.7749L6.41183 20.785V16.9149ZM15.3937 15.6241C15.3937 15.6241 14.0887 15.221 14.111 15.1939C14.1334 15.1667 13.6835 16.4839 13.6835 16.4839H11.1182L9.40793 17.3441L11.1182 14.334V15.6241L11.9732 15.1939L12.4009 13.044L15.3937 11.3238L13.6835 13.9039L16.6764 12.1839L15.3937 15.6241ZM18.3733 15.5177L17.9577 11.7552H21.3781L18.6346 15.3029L21.3781 13.0452V16.9152H16.6749L18.3733 15.5177ZM28.2175 13.0442L22.2316 16.4841L22.6591 12.1841L28.2175 13.0442ZM27.7917 12.281L22.661 10.9908L27.7917 9.27093V12.281ZM23.0904 10.0357V7.45584L28.6488 7.88588L23.0904 10.0357ZM28.6469 7.02514L23.5162 6.59509L29.0744 4.87506L28.6469 7.02514ZM32.0688 5.30521H29.931L30.4441 4.53123L28.6483 2.72522L33.7791 3.15512L31.3302 4.56243L32.0688 5.30521Z" fill="#EC440F"/>
<path fill-rule="evenodd" clip-rule="evenodd" d="M8.55029 32.3699L7.69511 35.3797L10.2605 34.9499L8.55029 32.3699ZM32.9216 35.3796L38.48 34.9497L35.9145 31.0796L32.9216 35.3796ZM29.5009 31.0796L31.2113 34.9497L34.2042 31.0796H29.5009ZM26.0803 35.8099L31.2112 36.2399L28.6457 31.5097L26.0803 35.8099ZM28.2183 40.9699L31.2112 37.0999L26.0803 36.6697L28.2183 40.9699ZM22.6596 40.97L27.363 41.4L24.7976 37.1L22.6596 40.97ZM18.3864 36.6697L21.3794 41.8297L23.9448 37.0999L18.3864 36.6697ZM17.1018 40.9699L20.5224 41.8299L18.3846 38.3899L17.1018 40.9699ZM28.2204 31.0796L21.807 30.6497L25.2275 35.8099L28.2204 31.0796ZM23.5172 36.2401L20.9518 31.5101L18.3864 35.8102L23.5172 36.2401ZM20.5229 30.6499L15.8197 30.2199L17.9575 34.9499L20.5229 30.6499ZM13.2543 40.5399L16.6747 40.97L13.2543 37.1V40.5399ZM14.107 36.2409L16.6724 39.6809L18.3826 36.2409H14.107ZM14.5387 30.6497L12.8284 34.9497L16.6764 35.3796L14.5387 30.6497ZM11.9714 39.2499V35.81H9.8336L11.9714 39.2499ZM9.83539 39.6799H11.5456L9.40785 36.6697L9.83539 39.6799ZM13.2542 30.6497L8.97845 29.7896L11.1164 34.9497L13.2542 30.6497ZM36.7679 29.7909L41.4711 29.3607L43.1814 24.2007H39.3334L36.7679 29.7909ZM44.0386 18.6096L44.4662 22.9096L46.604 23.7697L44.0386 18.6096ZM43.1833 22.4797V18.1796L39.7629 17.7495L43.1833 22.4797ZM39.7632 18.6096L38.4807 22.9096L42.7563 23.3396L39.7632 18.6096ZM5.98723 29.3604L7.26995 34.0905L8.55266 30.6505L5.98723 29.3604ZM4.70014 34.0907L5.12779 30.2207L3.84507 31.0807L4.70014 34.0907ZM2.99226 25.4897L2.13721 30.2197L4.7025 29.3597L2.99226 25.4897ZM44.4678 17.3195L44.8954 16.8896L41.0474 12.5894L41.4749 16.8896L44.4678 17.3195ZM44.4674 15.1689L43.1846 13.8789L44.0398 15.599L44.4674 15.1689Z" fill="#9D2066"/>
<mask id="mask1_0_6499" style="mask-type:alpha" maskUnits="userSpaceOnUse" x="1" y="0" width="27" height="19">
<path fill-rule="evenodd" clip-rule="evenodd" d="M27.4709 0H1.38965V18.4904H27.4709V0V0Z" fill="white"/>
</mask>
<g mask="url(#mask1_0_6499)">
<path fill-rule="evenodd" clip-rule="evenodd" d="M22.3402 10.7502V8.60024L18.0645 11.1801L22.3402 10.7502ZM1.38965 18.4905L2.67224 17.2005L2.24472 16.7703L1.38965 18.4905ZM13.0382 10.6224L11.6515 9.46029L11.0101 11.3953L10.7963 11.1802L9.08605 13.3304L10.8353 11.923L10.3688 13.3304L14.2168 11.6102L13.2042 10.7615L13.7893 10.3202L13.0382 10.6224ZM7.37746 15.4813L8.66017 11.6112L5.23969 15.4813H7.37746ZM6.51991 9.46029L2.67177 12.9002L5.2372 13.3304L6.51991 9.46029ZM15.9267 8.17036L13.7888 10.3203L15.4991 9.46035L15.9267 8.17036ZM19.7753 7.74017L15.9273 9.46021L18.065 10.3202L19.7753 7.74017ZM21.0594 6.45066L24.48 5.59084L23.1972 4.73076L21.0594 6.45066ZM24.0506 3.87009L25.3334 5.16021L27.4711 3.87009H24.0506ZM13.7888 6.45011L16.3543 5.5903L15.9267 6.88029L19.7747 5.5903L19.3472 5.16025L21.4849 3.44021L18.492 4.73021L17.6369 3.87012L17.2093 4.73021H15.9267L13.7888 6.45011ZM25.3352 0L21.0594 0.860215L23.1972 2.58013L25.3352 0ZM16.3548 1.72011L11.6515 3.87005L14.2168 4.73014L16.3548 1.72011Z" fill="#F9A42A"/>
</g>
<path fill-rule="evenodd" clip-rule="evenodd" d="M46.3907 36.24V38.39L47.6735 34.52L46.3907 36.24ZM45.105 39.6809V37.1009L43.3947 40.1108L45.105 39.6809ZM39.1201 45.7L41.2578 44.41L40.4026 43.9801L39.1201 45.7ZM40.8304 43.1198L38.2649 44.4098L39.5477 44.8399L40.8304 43.1198ZM42.5407 40.9699L41.6856 43.5499C41.6856 43.5499 44.3637 40.9076 44.251 40.9699C44.1383 41.032 42.5407 40.9699 42.5407 40.9699ZM39.1201 43.1199L42.5406 40.9699L40.4026 40.5399L39.1201 43.1199ZM36.5534 46.5605L38.2637 45.2706H37.4085L36.5534 46.5605ZM32.2788 45.7L35.2719 46.9901L36.9821 44.41L32.2788 45.7ZM31.4242 49.1399L32.2794 48.2798L29.2864 49.1399H31.4242ZM28.8594 48.2799L33.9902 47.85L31.4247 46.56L28.8594 48.2799ZM25.0112 50L27.5766 49.5699L24.5837 48.71L25.0112 50ZM19.4503 48.2806L23.726 49.5709L23.2983 48.2806H19.4503ZM23.3003 46.56V48.2799L27.1485 48.71L23.3003 46.56ZM18.1699 47.8501V45.7L14.3218 44.8401L18.1699 47.8501Z" fill="#0067B4"/>
</svg>
