<svg width="40" height="40" viewBox="0 0 40 40" fill="none" xmlns="http://www.w3.org/2000/svg">
    <rect width="40" height="40" rx="20" fill="#FFF62D"/>
    <path fill-rule="evenodd" clip-rule="evenodd" d="M26.757 9.28315C26.6001 8.90562 26.0104 8.90562 25.8535 9.28315C25.5278 10.0676 25.0657 11.0315 24.6037 11.4936C24.1415 11.9556 23.1776 12.4177 22.3931 12.7435C22.0157 12.9003 22.0157 13.4901 22.3931 13.6469C23.1776 13.9727 24.1415 14.4347 24.6037 14.8968C25.0657 15.3588 25.5278 16.3228 25.8535 17.1072C26.0104 17.4847 26.6001 17.4847 26.757 17.1072C27.0827 16.3228 27.5449 15.3588 28.0068 14.8968C28.4717 14.4319 29.3974 13.967 30.1415 13.6409C30.5082 13.4802 30.5082 12.9102 30.1415 12.7495C29.3974 12.4234 28.4717 11.9585 28.0068 11.4936C27.5449 11.0315 27.0827 10.0676 26.757 9.28315ZM18.2297 12.693C18.0847 12.3107 17.5092 12.3107 17.3642 12.693C16.7512 14.3097 15.5725 17.1213 14.3938 18.2999C13.2151 19.4786 10.4034 20.6573 8.78668 21.2706C8.40444 21.4156 8.40444 21.991 8.7867 22.136C10.4035 22.7491 13.2151 23.9276 14.3938 25.1063C15.5725 26.285 16.7512 29.0967 17.3642 30.7134C17.5092 31.0955 18.0847 31.0955 18.2297 30.7134C18.8428 29.0967 20.0214 26.285 21.2001 25.1063C22.3819 23.9247 25.0518 22.743 26.5732 22.1312C26.9447 21.9818 26.9447 21.4246 26.5732 21.2752C25.052 20.6635 22.3819 19.4817 21.2001 18.2999C20.0214 17.1213 18.8428 14.3097 18.2297 12.693Z" fill="black"/>
    </svg>
    