<svg width="21" height="17" viewBox="0 0 21 17" fill="none" xmlns="http://www.w3.org/2000/svg">
    <path d="M5 2.25H2.75C2.35218 2.25 1.97064 2.40804 1.68934 2.68934C1.40804 2.97064 1.25 3.35218 1.25 3.75C1.25 4.14782 1.40804 4.52936 1.68934 4.81066C1.97064 5.09196 2.35218 5.25 2.75 5.25H4.25C4.64782 5.25 5.02936 5.40804 5.31066 5.68934C5.59196 5.97064 5.75 6.35218 5.75 6.75C5.75 7.14782 5.59196 7.52936 5.31066 7.81066C5.02936 8.09196 4.64782 8.25 4.25 8.25H1.625M3.5 1.5V2.25M3.5 8.25V9M8 2.25H20V15C20 15.1989 19.921 15.3897 19.7803 15.5303C19.6397 15.671 19.4489 15.75 19.25 15.75H2.75C2.55109 15.75 2.36032 15.671 2.21967 15.5303C2.07902 15.3897 2 15.1989 2 15V11.25M8.75 6.75H20M6.5 11.25H20M14.75 6.75V15.75" stroke="black" stroke-width="1.5" stroke-linecap="round" stroke-linejoin="round"/>
    </svg>
    