<svg width="40" height="40" viewBox="0 0 40 40" fill="none" xmlns="http://www.w3.org/2000/svg">
    <rect width="40" height="40" rx="20" fill="#A9C0D1"/>
    <path d="M20.1726 27.24C19.1459 27.24 18.2392 27.0667 17.4526 26.72C16.6659 26.36 16.0459 25.8533 15.5926 25.2C15.1392 24.5333 14.9059 23.7267 14.8926 22.78H17.5926C17.6192 23.4333 17.8526 23.9867 18.2926 24.44C18.7459 24.88 19.3659 25.1 20.1526 25.1C20.8326 25.1 21.3726 24.94 21.7726 24.62C22.1726 24.2867 22.3726 23.8467 22.3726 23.3C22.3726 22.7267 22.1926 22.28 21.8326 21.96C21.4859 21.64 21.0192 21.38 20.4326 21.18C19.8459 20.98 19.2192 20.7667 18.5526 20.54C17.4726 20.1667 16.6459 19.6867 16.0726 19.1C15.5126 18.5133 15.2326 17.7333 15.2326 16.76C15.2192 15.9333 15.4126 15.2267 15.8126 14.64C16.2259 14.04 16.7859 13.58 17.4926 13.26C18.1992 12.9267 19.0126 12.76 19.9326 12.76C20.8659 12.76 21.6859 12.9267 22.3926 13.26C23.1126 13.5933 23.6726 14.06 24.0726 14.66C24.4859 15.26 24.7059 15.9733 24.7326 16.8H21.9926C21.9792 16.3067 21.7859 15.8733 21.4126 15.5C21.0526 15.1133 20.5459 14.92 19.8926 14.92C19.3326 14.9067 18.8592 15.0467 18.4726 15.34C18.0992 15.62 17.9126 16.0333 17.9126 16.58C17.9126 17.0467 18.0592 17.42 18.3526 17.7C18.6459 17.9667 19.0459 18.1933 19.5526 18.38C20.0592 18.5667 20.6392 18.7667 21.2926 18.98C21.9859 19.22 22.6192 19.5 23.1926 19.82C23.7659 20.14 24.2259 20.5667 24.5726 21.1C24.9192 21.62 25.0926 22.2933 25.0926 23.12C25.0926 23.8533 24.9059 24.5333 24.5326 25.16C24.1592 25.7867 23.6059 26.2933 22.8726 26.68C22.1392 27.0533 21.2392 27.24 20.1726 27.24Z" fill="black"/>
    </svg>
    