<svg width="40" height="40" viewBox="0 0 40 40" fill="none" xmlns="http://www.w3.org/2000/svg">
    <rect width="40" height="40" rx="20" fill="#FFF400"/>
    <path d="M25.55 11.5049C29.11 11.5049 30 12.3849 30 15.8949V24.1049C30 27.6149 29.11 28.4949 25.56 28.4949H14.44C10.89 28.5049 10 27.6249 10 24.1149V15.8949C10 12.3849 10.89 11.5049 14.44 11.5049H25.55Z" fill="black"/>
    <mask id="mask0_2253_1803" style="mask-type:alpha" maskUnits="userSpaceOnUse" x="10" y="11" width="20" height="18">
    <path d="M25.55 11.5049C29.11 11.5049 30 12.3849 30 15.8949V24.1049C30 27.6149 29.11 28.4949 25.56 28.4949H14.44C10.89 28.5049 10 27.6249 10 24.1149V15.8949C10 12.3849 10.89 11.5049 14.44 11.5049H25.55Z" fill="#FFF400"/>
    </mask>
    <g mask="url(#mask0_2253_1803)">
    <path d="M9.14258 16.5049H30.8569" stroke="#FFF62D" stroke-width="1.5" stroke-linecap="round" stroke-linejoin="round"/>
    </g>
    <path d="M14 24.5049H16" stroke="#FFF400" stroke-width="1.5" stroke-linecap="round" stroke-linejoin="round"/>
    <path d="M18.5 24.5049H22.5" stroke="#FFF400" stroke-width="1.5" stroke-linecap="round" stroke-linejoin="round"/>
    </svg>
    