<svg width="40" height="40" viewBox="0 0 40 40" fill="none" xmlns="http://www.w3.org/2000/svg">
    <rect width="40" height="40" rx="20" fill="black"/>
    <path d="M18.125 26.3332H21.875V12.3332C21.875 11.4165 21.5 10.6665 20.375 10.6665H19.625C18.5 10.6665 18.125 11.4165 18.125 12.3332V26.3332Z" fill="#DE4C66" stroke="#DE4C66" stroke-width="1.5" stroke-linecap="round" stroke-linejoin="round"/>
    <path d="M24.168 26.3335H27.5013V20.5002C27.5013 19.5835 27.168 18.8335 26.168 18.8335H25.5013C24.5013 18.8335 24.168 19.5835 24.168 20.5002V26.3335Z" fill="#6FDDAF" stroke="#6FDDAF" stroke-width="1.5" stroke-linecap="round" stroke-linejoin="round"/>
    <path d="M11.666 27.3335H28.3327" stroke="#FFF62D" stroke-width="1.5" stroke-linecap="round" stroke-linejoin="round"/>
    <path d="M12.5 27.3332H15.8333V17.3332C15.8333 16.4165 15.5 15.6665 14.5 15.6665H13.8333C12.8333 15.6665 12.5 16.4165 12.5 17.3332V27.3332Z" fill="#FFF62D" stroke="#FFF62D" stroke-width="1.5" stroke-linecap="round" stroke-linejoin="round"/>
    </svg>
    